<?xml version="1.0" encoding="UTF-8" standalone="no"?>
<!DOCTYPE svg PUBLIC "-//W3C//DTD SVG 1.1//EN" "http://www.w3.org/Graphics/SVG/1.1/DTD/svg11.dtd">
<svg width="100%" height="100%" viewBox="0 0 1726 551" version="1.1" xmlns="http://www.w3.org/2000/svg" xmlns:xlink="http://www.w3.org/1999/xlink" xml:space="preserve" xmlns:serif="http://www.serif.com/" style="fill-rule:evenodd;clip-rule:evenodd;stroke-linejoin:round;stroke-miterlimit:1.41421;">
    <g transform="matrix(1,0,0,1,-398.028,-296.754)">
        <g transform="matrix(1.6854,0,0,0.537701,398.028,296.754)">
            <g transform="matrix(0.593332,0,0,1.85977,-192.843,-543.134)">
                <path d="M412,399.4L448,399.4L448,435.4L450.8,435.4C458.8,420.2 471.1,409.9 487.6,404.6C504.1,399.3 532,396.6 571.2,396.6C605.4,396.6 630.8,398.5 647.3,402.2C663.8,406 676.8,412.8 686.2,422.6C693.6,430.5 698.7,440.3 701.7,452C704.6,463.8 706.1,480.8 706.1,503L706.1,637.3L668.1,637.3L668.1,519.1C668.1,497.9 667.2,482.7 665.5,473.4C663.7,464.1 660.2,456.3 654.8,450C648.4,442.6 638.7,437.4 625.5,434.3C612.4,431.2 592.7,429.7 566.6,429.7C537.5,429.7 514.8,431.8 498.5,436.1C482.3,440.4 470,447.3 461.8,457C456.1,464 452.4,471.9 450.6,480.7C448.8,489.5 448,505.1 448,527.4L448,637.4L412,637.4L412,399.4Z" style="fill:rgb(25,42,73);fill-rule:nonzero;"/>
                <path d="M750,723.4L750,399.4L788,399.4L788,429.4L790.2,429.4C798.3,416 809.8,407 824.6,402.6C839.4,398.2 865.4,396 902.6,396C934.7,396 958.8,397.2 975,399.5C991.2,401.8 1004.5,406.1 1015,412.2C1031.3,421.7 1042.4,434.6 1048.4,451.1C1054.4,467.1 1057.4,489.2 1057.4,517.4C1057.4,553.1 1051.9,579.5 1040.9,596.4C1029.9,613.5 1015.1,624.8 996.4,630.3C977.7,635.8 945.1,638.5 898.6,638.5C864.5,638.5 840.1,636.4 825.3,632.1C810.5,627.9 798.8,619.6 790.2,607.3L788,607.3L788,723.3L750,723.3L750,723.4ZM911.8,428.9C881.6,428.9 859.1,429.9 844.4,431.8C829.7,433.7 818.8,437.1 811.6,441.9C802.7,447.9 796.4,456.6 792.4,468.1C788.5,479.5 786.5,495.3 786.5,515.3C786.5,538.9 788.6,556.6 792.9,568.7C797.2,580.7 804.5,589.6 814.8,595.3C828.5,602.8 856.2,606.6 898,606.6C925.9,606.6 946.9,605.6 961,603.7C975.1,601.8 985.8,598.4 993.2,593.5C1002.2,587.5 1008.7,578.7 1012.6,567.1C1016.5,555.5 1018.5,539.4 1018.5,518.9C1018.5,495.7 1016.4,478.2 1012.2,466.4C1008,454.6 1000.8,445.9 990.4,440.2C977.1,432.7 950.9,428.9 911.8,428.9" style="fill:rgb(25,42,73);fill-rule:nonzero;"/>
                <path d="M1354,563.4L1393.8,563.4C1393.1,591.6 1383.1,611.4 1363.7,622.7C1344.3,634 1310.6,639.6 1262.5,639.6C1222.7,639.6 1192.6,638 1171.9,635C1151.3,631.9 1135.7,626.7 1125.2,619.3C1101.1,602.3 1089.1,568.6 1089.1,518.3C1089.1,483.1 1094.2,456.6 1104.4,438.9C1114.1,422 1128.1,410.6 1146.4,404.7C1164.7,398.8 1195.2,395.8 1238,395.8C1278.9,395.8 1308.5,398 1326.7,402.3C1344.9,406.6 1359.4,415 1370.3,427.3C1379.3,437.7 1385.5,449.7 1388.8,463.4C1392.1,477.1 1394,498 1394.3,525.3L1129.5,525.3C1130.5,555.6 1136.3,575.9 1147,586.9C1154.2,594.4 1165.7,599.5 1181.4,602.3C1197.2,605.1 1222.9,606.4 1258.4,606.4C1285.3,606.4 1305,605.1 1317.5,602.6C1330,600.1 1339.4,595.5 1345.5,588.8C1350.2,583.6 1353.1,575 1354.3,563M1352.7,493.4C1352.5,470.2 1346.3,454 1334.2,444.8C1326.2,438.6 1314.9,434.3 1300.5,431.9C1286,429.5 1264.9,428.3 1237,428.3C1212.6,428.3 1194,429.4 1181.3,431.7C1168.5,434 1158.5,437.9 1151.4,443.6C1139.5,452.8 1132.7,469.4 1130.9,493.4L1352.7,493.4Z" style="fill:rgb(25,42,73);fill-rule:nonzero;"/>
                <path d="M1688,563.4L1727.4,563.4C1726.7,591.6 1716.7,611.4 1697.3,622.7C1677.9,634 1644.2,639.6 1596.1,639.6C1556.4,639.6 1526.2,638 1505.5,635C1484.9,631.9 1469.3,626.7 1458.8,619.3C1434.7,602.3 1422.7,568.6 1422.7,518.3C1422.7,483.1 1427.8,456.6 1438,438.9C1447.7,422 1461.7,410.6 1480,404.7C1498.3,398.8 1528.8,395.8 1571.6,395.8C1612.5,395.8 1642.1,398 1660.3,402.3C1678.5,406.6 1693,415 1703.9,427.3C1712.9,437.7 1719.1,449.7 1722.4,463.4C1725.7,477.1 1727.6,498 1727.9,525.3L1463.1,525.3C1464.1,555.6 1470,575.9 1480.6,586.9C1487.8,594.4 1499.3,599.5 1515,602.3C1530.8,605.1 1556.5,606.4 1592,606.4C1618.9,606.4 1638.6,605.1 1651.1,602.6C1663.6,600.1 1673,595.5 1679.2,588.8C1683.9,583.6 1686.8,575 1688,563M1686.4,493.4C1686.2,470.2 1680.1,454 1667.9,444.8C1659.9,438.6 1648.7,434.3 1634.2,431.9C1619.8,429.5 1598.6,428.3 1570.7,428.3C1546.3,428.3 1527.7,429.4 1515,431.7C1502.2,434 1492.2,437.9 1485.1,443.6C1473.2,452.8 1466.4,469.4 1464.6,493.4L1686.4,493.4Z" style="fill:rgb(25,42,73);fill-rule:nonzero;"/>
                <path d="M1764,295.4L1802,295.4L1802,491.4L1824.1,491.4L1968.2,399.4L2025.8,399.4L1861.4,507.1L2049.9,635.4L1987,635.4L1821.4,523.4L1802,523.4L1802,637.4L1764,637.4L1764,295.4Z" style="fill:rgb(25,42,73);fill-rule:nonzero;"/>
                <path d="M337.2,795.4C337.6,807.7 343.2,816.3 356.6,816.3C363.5,816.3 368.6,813.3 372.8,809.7L375.7,815.2C370.7,819.7 364.1,822.5 355.8,822.5C338.1,822.5 330.5,810.1 330.5,793.1C330.5,775.9 340,763.4 355.4,763.4C370.1,763.4 376.4,773.9 376.4,786.4C376.4,789.6 376,792.8 375.3,795.4L337.2,795.4ZM369.6,789.4C369.8,788.1 370,786.7 370,785.2C370,776.3 365.2,769.1 355.3,769.1C344.4,769.1 337.9,777.6 337.5,789.4L369.6,789.4Z" style="fill:rgb(25,42,73);fill-rule:nonzero;"/>
                <path d="M462,821.4L462,786.7C462,776 457.9,770.9 448.2,770.9C440.5,770.9 436.3,775.9 433.9,783.2C434,784 434,784.8 434,785.6L434,821.4L426,821.4L426,786.7C426,776 421.3,770.9 412.8,770.9C404.7,770.9 400,776.5 398,783.8L398,821.4L392,821.4L392,765.4L398,765.4L398,774.5C401.5,768 407,764.4 415.4,764.4C424,764.4 429.8,768.2 432.2,775.7C435.5,768.6 440.8,764.4 449.3,764.4C462.4,764.4 467.9,771.6 467.9,785.6L467.9,821.4L462,821.4Z" style="fill:rgb(25,42,73);fill-rule:nonzero;"/>
                <path d="M486,765.4L492,765.4L492,771.5C496.7,767.2 502.1,763.9 509.2,763.9C523,763.9 532.3,774.8 532.3,793.1C532.3,811.4 523,822 509.2,822C502.3,822 496.7,818.8 492,814.7L492,841.4L486,841.4L486,765.4ZM508.2,770.2C502.2,770.2 496.8,773.6 494,777.4L494,808.7C496.7,812.4 502.1,815.8 508.2,815.8C519.2,815.8 526.2,807.1 526.2,792.9C526.2,778.7 519.2,770.2 508.2,770.2" style="fill:rgb(25,42,73);fill-rule:nonzero;"/>
                <path d="M569.3,763.5C584.5,763.5 594.8,774.9 594.8,793.2C594.8,811.3 584.5,822.6 569.3,822.6C554.3,822.6 544.1,811.3 544.1,793.2C544.2,774.9 554.3,763.5 569.3,763.5M569.3,816C580.4,816 587.8,807.4 587.8,793.2C587.8,778.7 580.4,770 569.3,770C558.4,770 550.9,778.7 550.9,793.2C550.9,807.5 558.4,816 569.3,816" style="fill:rgb(25,42,73);fill-rule:nonzero;"/>
                <path d="M687.8,765.4L669.1,821.4L660.5,821.4L645.6,773.4L630.2,821.4L621.5,821.4L603.4,765.4L611,765.4L626.1,814.3L641.4,765.4L649.9,765.4L664.6,814.3L680.2,765.4L687.8,765.4Z" style="fill:rgb(25,42,73);fill-rule:nonzero;"/>
                <path d="M702.9,795.4C703.3,807.7 708.9,816.3 722.3,816.3C729.2,816.3 734.3,813.3 738.5,809.7L741.4,815.2C736.4,819.7 729.8,822.5 721.5,822.5C703.8,822.5 696.2,810.1 696.2,793.1C696.2,775.9 705.7,763.4 721.1,763.4C735.8,763.4 742.1,773.9 742.1,786.4C742.1,789.6 741.7,792.8 741,795.4L702.9,795.4ZM735.3,789.4C735.5,788.1 735.7,786.7 735.7,785.2C735.7,776.3 730.9,769.1 721,769.1C710.1,769.1 703.6,777.6 703.2,789.4L735.3,789.4Z" style="fill:rgb(25,42,73);fill-rule:nonzero;"/>
                <path d="M758,821.4L758,765.4L764,765.4L764,775C766.6,767.8 770.6,764.1 777.4,764.1C780.9,764.1 784,765.3 786.4,767.4L784.8,773.6C782.4,771.8 779.8,770.6 776.8,770.6C769.9,770.6 766.3,776.4 764,784.6L764,821.3L758,821.3L758,821.4Z" style="fill:rgb(25,42,73);fill-rule:nonzero;"/>
                <path d="M801.4,744.5C804,744.5 805.8,745.8 805.8,749.1C805.8,752.3 804,753.6 801.4,753.6C798.6,753.6 796.7,752.3 796.7,749.1C796.6,745.7 798.6,744.5 801.4,744.5M798,765.4L804,765.4L804,821.4L798,821.4L798,765.4Z" style="fill:rgb(25,42,73);fill-rule:nonzero;"/>
                <path d="M860,821.4L860,787.5C860,776.8 855.6,770.9 846.1,770.9C837.7,770.9 832.2,776.9 830,784.2L830,821.4L824,821.4L824,765.4L830,765.4L830,774.8C833.6,768.4 840.2,764.4 848.9,764.4C861.8,764.4 868,772.4 868,786.3L868,821.3L860,821.3L860,821.4Z" style="fill:rgb(25,42,73);fill-rule:nonzero;"/>
                <path d="M904.5,764.1C911.5,764.1 917,767.2 922,771.3L922,765.4L928,765.4L928,818.6C927.5,835.1 917.7,842.3 905.7,842.3C895.9,842.3 890.2,838.4 887,836.6L888.7,830.3C891.7,832.4 897.5,836.2 904.9,836.2C913.3,836.2 920.6,831.7 922,819.4L922,810.5C916.9,814.7 911.4,817.9 904.5,817.9C890.7,817.9 881.6,807.1 881.6,791.1C881.6,774.9 890.7,764.1 904.5,764.1M906,811.7C912.3,811.7 917.2,807.7 920,804.3L920,778C917.2,774.6 912.6,770.4 906.1,770.4C895.1,770.4 888,778.4 888,791.1C888,803.4 894.9,811.7 906,811.7" style="fill:rgb(25,42,73);fill-rule:nonzero;"/>
                <path d="M998,821.4L998,815.1C994.9,818.6 989.4,822.2 981.4,822.2C970.4,822.2 963.4,815.5 963.4,805.1C963.4,791.3 974.5,785.4 988.8,785.4C992.1,785.4 995.7,785.9 998,786.7L998,784C998.4,774.6 993.5,770.3 984.9,770.3C979.5,770.3 974,771.6 969.6,773.9L968.2,768C973.1,765.5 980.3,764 985.9,764C998.2,764 1005.3,771.1 1004,784.1L1004,821.3L998,821.3L998,821.4ZM982.9,816.4C990.1,816.4 995.1,812.7 998,809.4L998,791.9C996,791.3 992.1,790.6 988.8,790.6C978.4,790.6 970,794.7 970,804.4C970,812 975.3,816.4 982.9,816.4" style="fill:rgb(25,42,73);fill-rule:nonzero;"/>
                <path d="M1060,821.4L1060,787.5C1060,776.8 1055.6,770.9 1046.1,770.9C1037.6,770.9 1032.2,776.9 1030,784.2L1030,821.4L1024,821.4L1024,765.4L1030,765.4L1030,774.8C1033.6,768.4 1040.2,764.4 1048.9,764.4C1061.8,764.4 1068,772.4 1068,786.3L1068,821.3L1060,821.3L1060,821.4Z" style="fill:rgb(25,42,73);fill-rule:nonzero;"/>
                <path d="M1128,821.4L1122,821.4L1122,814.6C1117.2,818.9 1111.6,822.2 1104.7,822.2C1090.8,822.2 1081.5,811.2 1081.5,793C1081.5,774.8 1090.7,764.1 1104.7,764.1C1111.5,764.1 1117.1,767.4 1122,771.5L1122,745.4L1128,745.4L1128,821.4ZM1105.7,815.8C1111.7,815.8 1117.1,812.4 1120,808.8L1120,777.5C1117.1,773.7 1111.9,770.3 1105.7,770.3C1094.8,770.3 1087.8,779 1087.8,793.2C1087.8,807.4 1094.8,815.8 1105.7,815.8" style="fill:rgb(25,42,73);fill-rule:nonzero;"/>
                <path d="M1189.8,816C1196.3,816 1200.7,813.3 1204.4,809L1207.8,814.2C1203.3,819.1 1197.7,822.5 1189.7,822.5C1174.7,822.5 1164.5,811 1164.5,792.9C1164.5,774.8 1174.7,763.4 1189.7,763.4C1197.7,763.4 1203.3,766.7 1207.8,771.7L1204.4,776.9C1200.7,772.6 1196.4,769.9 1189.7,769.9C1178.8,769.9 1171.5,778.6 1171.5,792.8C1171.4,807.3 1178.7,816 1189.8,816" style="fill:rgb(25,42,73);fill-rule:nonzero;"/>
                <path d="M1243.3,763.5C1258.5,763.5 1268.8,774.9 1268.8,793.2C1268.8,811.3 1258.5,822.6 1243.3,822.6C1228.3,822.6 1218.1,811.3 1218.1,793.2C1218.1,774.9 1228.3,763.5 1243.3,763.5M1243.3,816C1254.5,816 1261.8,807.4 1261.8,793.2C1261.8,778.7 1254.4,770 1243.3,770C1232.4,770 1224.9,778.7 1224.9,793.2C1224.8,807.5 1232.3,816 1243.3,816" style="fill:rgb(25,42,73);fill-rule:nonzero;"/>
                <path d="M1320,821.4L1320,787.5C1320,776.8 1315.5,770.9 1306.1,770.9C1297.6,770.9 1292.1,776.9 1290,784.2L1290,821.4L1284,821.4L1284,765.4L1290,765.4L1290,774.8C1293.6,768.4 1300.2,764.4 1308.9,764.4C1321.8,764.4 1328,772.4 1328,786.3L1328,821.3L1320,821.3L1320,821.4Z" style="fill:rgb(25,42,73);fill-rule:nonzero;"/>
                <path d="M1382,821.4L1382,787.5C1382,776.8 1377.5,770.9 1368,770.9C1359.6,770.9 1354.1,776.9 1352,784.2L1352,821.4L1346,821.4L1346,765.4L1352,765.4L1352,774.8C1355.6,768.4 1362.2,764.4 1370.9,764.4C1383.8,764.4 1390,772.4 1390,786.3L1390,821.3L1382,821.3L1382,821.4Z" style="fill:rgb(25,42,73);fill-rule:nonzero;"/>
                <path d="M1410.8,795.4C1411.2,807.7 1416.8,816.3 1430.2,816.3C1437.1,816.3 1442.2,813.3 1446.4,809.7L1449.3,815.2C1444.3,819.7 1437.7,822.5 1429.3,822.5C1411.6,822.5 1404,810.1 1404,793.1C1404,775.9 1413.6,763.4 1428.9,763.4C1443.6,763.4 1449.9,773.9 1449.9,786.4C1449.9,789.6 1449.5,792.8 1448.8,795.4L1410.8,795.4ZM1443.1,789.4C1443.3,788.1 1443.5,786.7 1443.5,785.2C1443.5,776.3 1438.7,769.1 1428.8,769.1C1417.9,769.1 1411.4,777.6 1411,789.4L1443.1,789.4Z" style="fill:rgb(25,42,73);fill-rule:nonzero;"/>
                <path d="M1487,816C1493.5,816 1498,813.3 1501.6,809L1505,814.2C1500.5,819.1 1494.9,822.5 1486.9,822.5C1471.9,822.5 1461.7,811 1461.7,792.9C1461.7,774.8 1471.9,763.4 1486.9,763.4C1494.9,763.4 1500.5,766.7 1505,771.7L1501.6,776.9C1498,772.6 1493.6,769.9 1486.9,769.9C1475.9,769.9 1468.7,778.6 1468.7,792.8C1468.6,807.3 1475.9,816 1487,816" style="fill:rgb(25,42,73);fill-rule:nonzero;"/>
                <path d="M1530,805.8C1530.2,813 1533.2,816 1538.8,816C1542.4,816 1547.2,814.1 1550.1,811.7L1552.1,817.4C1548,820.2 1543.4,822.2 1537.3,822.2C1528.7,822.2 1523.9,806.5 1523.9,806.5L1523.9,771.4L1513.9,771.4L1513.9,765.4L1523.4,765.4L1524.1,751.4L1529.8,751.4L1529.8,765.4L1549.8,765.4L1549.8,771.4L1529.8,771.4L1529.8,805.8L1530,805.8Z" style="fill:rgb(25,42,73);fill-rule:nonzero;"/>
                <path d="M1567.2,744.5C1569.8,744.5 1571.6,745.8 1571.6,749.1C1571.6,752.3 1569.8,753.6 1567.2,753.6C1564.4,753.6 1562.5,752.3 1562.5,749.1C1562.5,745.7 1564.4,744.5 1567.2,744.5M1564,765.4L1570,765.4L1570,821.4L1564,821.4L1564,765.4Z" style="fill:rgb(25,42,73);fill-rule:nonzero;"/>
                <path d="M1626,821.4L1626,787.5C1626,776.8 1621.2,770.9 1611.1,770.9C1602.1,770.9 1596.2,776.9 1594,784.2L1594,821.4L1588,821.4L1588,765.4L1596,765.4L1596,774.8C1599.6,768.4 1606.2,764.4 1614.9,764.4C1627.8,764.4 1634,772.4 1634,786.3L1634,821.3L1626,821.3L1626,821.4Z" style="fill:rgb(25,42,73);fill-rule:nonzero;"/>
                <path d="M1670.3,764.1C1677.3,764.1 1682.8,767.2 1686,771.3L1686,765.4L1692,765.4L1692,818.6C1693.3,835.1 1683.5,842.3 1671.5,842.3C1661.7,842.3 1656,838.4 1652.9,836.6L1654.6,830.3C1657.6,832.4 1663.4,836.2 1670.8,836.2C1679.2,836.2 1686.4,831.7 1686.1,819.4L1686.1,810.5C1682.8,814.7 1677.2,817.9 1670.4,817.9C1656.6,817.9 1647.5,807.1 1647.5,791.1C1647.4,774.9 1656.5,764.1 1670.3,764.1M1672,811.7C1678.3,811.7 1683.1,807.7 1686,804.3L1686,778C1683.2,774.6 1678.6,770.4 1672.1,770.4C1661.1,770.4 1654,778.4 1654,791.1C1654,803.4 1660.9,811.7 1672,811.7" style="fill:rgb(25,42,73);fill-rule:nonzero;"/>
                <path d="M1734,765.4L1740,765.4L1740,771.5C1743.8,767.2 1749.2,763.9 1756.3,763.9C1770.1,763.9 1779.4,774.8 1779.4,793.1C1779.4,811.4 1770.1,822 1756.3,822C1749.5,822 1743.8,818.8 1740,814.7L1740,841.4L1734,841.4L1734,765.4ZM1754.2,770.2C1748.2,770.2 1742.8,773.6 1740,777.4L1740,808.7C1742.7,812.4 1748.1,815.8 1754.2,815.8C1765.2,815.8 1772.2,807.1 1772.2,792.9C1772.2,778.7 1765.2,770.2 1754.2,770.2" style="fill:rgb(25,42,73);fill-rule:nonzero;"/>
                <path d="M1798,795.4C1798.4,807.7 1804,816.3 1817.4,816.3C1824.3,816.3 1829.4,813.3 1833.6,809.7L1836.5,815.2C1831.5,819.7 1824.9,822.5 1816.6,822.5C1798.9,822.5 1791.3,810.1 1791.3,793.1C1791.3,775.9 1800.8,763.4 1816.2,763.4C1830.9,763.4 1837.2,773.9 1837.2,786.4C1837.2,789.6 1836.8,792.8 1836.1,795.4L1798,795.4ZM1830.3,789.4C1830.5,788.1 1830.7,786.7 1830.7,785.2C1830.7,776.3 1825.9,769.1 1816,769.1C1805.1,769.1 1798.6,777.6 1798.2,789.4L1830.3,789.4Z" style="fill:rgb(25,42,73);fill-rule:nonzero;"/>
                <path d="M1874.1,763.5C1889.3,763.5 1899.6,774.9 1899.6,793.2C1899.6,811.3 1889.3,822.6 1874.1,822.6C1859.1,822.6 1848.9,811.3 1848.9,793.2C1848.9,774.9 1859.1,763.5 1874.1,763.5M1874.1,816C1885.3,816 1892.6,807.4 1892.6,793.2C1892.6,778.7 1885.2,770 1874.1,770C1863.2,770 1855.7,778.7 1855.7,793.2C1855.7,807.5 1863.2,816 1874.1,816" style="fill:rgb(25,42,73);fill-rule:nonzero;"/>
                <path d="M1914,765.4L1920,765.4L1920,771.5C1924.8,767.2 1930.3,763.9 1937.4,763.9C1951.2,763.9 1960.5,774.8 1960.5,793.1C1960.5,811.4 1951.2,822 1937.4,822C1930.5,822 1924.8,818.8 1920,814.7L1920,841.4L1914,841.4L1914,765.4ZM1936.1,770.2C1930.1,770.2 1924.7,773.6 1922,777.4L1922,808.7C1924.7,812.4 1930.1,815.8 1936.1,815.8C1947.1,815.8 1954.1,807.1 1954.1,792.9C1954.2,778.7 1947.2,770.2 1936.1,770.2" style="fill:rgb(25,42,73);fill-rule:nonzero;"/>
                <path d="M1982,745.4L1982,808.9C1982.8,814.5 1984.6,816.1 1988,816.1C1990.7,816.1 1992.6,815 1994.3,813.9L1995.1,819.5C1993.1,820.9 1989.5,822.3 1985.8,822.3C1979.5,822.3 1975.9,819.2 1976.1,810.5L1976.1,745.5L1982,745.5L1982,745.4Z" style="fill:rgb(25,42,73);fill-rule:nonzero;"/>
                <path d="M2009.1,795.4C2009.5,807.7 2015.1,816.3 2028.5,816.3C2035.3,816.3 2040.5,813.3 2044.7,809.7L2047.6,815.2C2042.6,819.7 2036,822.5 2027.7,822.5C2010,822.5 2002.4,810.1 2002.4,793.1C2002.4,775.9 2011.9,763.4 2027.3,763.4C2042,763.4 2048.3,773.9 2048.3,786.4C2048.3,789.6 2047.9,792.8 2047.2,795.4L2009.1,795.4ZM2041.5,789.4C2041.7,788.1 2041.9,786.7 2041.9,785.2C2041.9,776.3 2037.1,769.1 2027.2,769.1C2016.3,769.1 2009.8,777.6 2009.4,789.4L2041.5,789.4Z" style="fill:rgb(25,42,73);fill-rule:nonzero;"/>
                <path d="M332,295.4L370,295.4L370,339.4L332,339.4L332,295.4ZM332,399.4L370,399.4L370,637.4L332,637.4L332,399.4Z" style="fill:rgb(25,42,73);fill-rule:nonzero;"/>
            </g>
        </g>
    </g>
</svg>
