<?xml version="1.0" encoding="UTF-8" standalone="no"?><!DOCTYPE svg PUBLIC "-//W3C//DTD SVG 1.1//EN" "http://www.w3.org/Graphics/SVG/1.1/DTD/svg11.dtd"><svg width="100%" height="100%" viewBox="0 0 1419 136" version="1.1" xmlns="http://www.w3.org/2000/svg" xmlns:xlink="http://www.w3.org/1999/xlink" xml:space="preserve" xmlns:serif="http://www.serif.com/" style="fill-rule:evenodd;clip-rule:evenodd;stroke-linejoin:round;stroke-miterlimit:1.41421;"><g id="layer101"><path d="M266.5,134.757c-1.6,-0.7 -4.1,-2.1 -5.4,-3.3c-4.5,-4 -5.1,-7.3 -5.1,-26.6l0,-18l8,0l0,35.2l2.9,2.9c2.3,2.3 3.8,2.9 7.1,2.9c9.5,0 11,-3.3 11,-25l0,-16l7,0l0,18.2c0,16.4 -0.2,18.6 -2.1,22.5c-1.3,2.6 -3.4,5 -5.2,6c-3.9,2 -14.2,2.6 -18.2,1.2Z" style="fill-rule:nonzero;"/><path d="M324.7,119.757l-15.7,-16.2l0,31.3l-3.5,0l-3.5,0l0,-25l0,-25.1l32,32.6l0,-15.2l0,-15.3l7,0l0,24.5c0,13.5 -0.2,24.5 -0.3,24.5c-0.2,0 -7.4,-7.3 -16,-16.1Z" style="fill-rule:nonzero;"/><path d="M377.7,124.657c-3.8,-9.3 -11.4,-28.7 -14.2,-36c-0.6,-1.5 -0.1,-1.8 3.4,-1.8c3.1,0 4.3,0.5 4.8,1.8c0.3,0.9 2.9,7.8 5.8,15.2l5.3,13.5l1.4,-3.5c0.8,-1.9 3.4,-8.8 5.8,-15.2l4.4,-11.8l4.4,0c3.1,0 4.3,0.4 3.9,1.3c-0.3,0.6 -3.4,8.4 -7,17.2c-3.6,8.8 -7.8,19.3 -9.4,23.2c-1.5,4 -3.1,7.3 -3.4,7.3c-0.4,0 -2.7,-5.1 -5.2,-11.2Z" style="fill-rule:nonzero;"/><path d="M477.4,134.257c-3,-1.5 -6.4,-6 -6.4,-8.6c0,-0.8 1.2,-2 2.6,-2.6c2.3,-1.1 2.8,-0.9 5.1,1.8c2.2,2.7 3.1,3.1 6.7,2.8c3.4,-0.2 4.2,-0.8 5,-2.9c1.7,-5 0.2,-7.4 -7.5,-11.4c-7.9,-4.2 -10.9,-7.9 -10.9,-13.8c0,-5.8 2.3,-10.1 6.3,-12c6.2,-3 12.3,-2.1 17.5,2.6c2.9,2.7 2.8,3.9 -0.7,6c-2.7,1.6 -2.9,1.6 -4.6,-0.3c-3.3,-3.6 -10.5,-1.9 -10.5,2.4c0,2.8 4.1,6.5 12.4,11.4c4.7,2.8 5.7,3.9 6.6,7.3c3.5,12.9 -9.5,23.3 -21.6,17.3Z" style="fill-rule:nonzero;"/><path d="M770.6,119.757l-15.6,-16.2l0,31.3l-3.5,0l-3.5,0l0,-25.2l0,-25.3l4.7,5c2.6,2.8 9.8,10.2 16,16.7l11.3,11.6l0,-15.4l0,-15.4l8,0l0,24.5c0,13.7 -0.4,24.5 -0.9,24.5c-0.5,0 -7.9,-7.3 -16.5,-16.1Z" style="fill-rule:nonzero;"/><path d="M0,70.857l0,-64l20.4,0c18.6,0 20.5,0.2 21,1.8c0.2,0.9 1.9,12.3 3.7,25.2c1.7,12.9 3.5,23.8 3.9,24.3c0.6,0.7 1.5,-5.9 4.5,-34.3c0.9,-8 1.8,-15.1 2,-15.7c0.3,-1 5.5,-1.3 21.5,-1.3l21,0l0,128l-14.5,0l-14.5,0l-0.1,-36.2l-0.1,-36.3l-4.8,35.5c-2.7,19.5 -4.9,35.8 -4.9,36.3c-0.1,0.4 -4.8,0.7 -10.5,0.7l-10.3,0l-1.2,-10.7c-0.7,-6 -3,-22.7 -5.1,-37.3l-3.8,-26.5l-0.1,37.3l-0.1,37.2l-14,0l-14,0l0,-64Z" style="fill-rule:nonzero;"/><path d="M110,70.857l0,-64l32,0l0,128l-16,0l-16,0l0,-64Z" style="fill-rule:nonzero;"/><path d="M154,70.857l0,-64.2l24.8,0.4c27.3,0.5 32.4,1.4 38.6,6.8c1.8,1.7 4.4,5.4 5.7,8.2c2.1,4.8 2.4,6.7 2.4,19.3c0,16.4 -0.7,18.3 -8.4,21.9l-4.8,2.2l4.4,1.8c4.7,2 8.3,6 10.2,11.6c1.8,5.2 2.5,24.4 1.3,33.8c-1.7,12.4 -5.4,17.9 -13.7,20.2c-2.3,0.6 -16.3,1.4 -32.2,1.7l-28.3,0.6l0,-64.3Zm39.6,39.6c1.7,-1.3 1.9,-2.9 2.2,-14.3c0.4,-15.7 -0.3,-18.3 -5.3,-18.3l-3.5,0l0,34l2.3,0c1.3,0 3.2,-0.6 4.3,-1.4Zm0.9,-55.7c0.5,-0.5 1,-5.6 1,-11.4c0,-11.3 -0.6,-12.7 -5.7,-13.9l-2.8,-0.6l0,28.3l3.2,-0.7c1.8,-0.3 3.7,-1.1 4.3,-1.7Z" style="fill-rule:nonzero;"/><path d="M351,110.857l0,-24l8,0l0,48l-4,0l-4,0l0,-24Z" style="fill-rule:nonzero;"/><path d="M406,110.857l0,-24l25,0l0,8l-8.5,0l-8.5,0l0,10l17,0l0,8l-8.5,0l-8.5,0l0,14l17,0l0,8l-12.5,0l-12.5,0l0,-24Z" style="fill-rule:nonzero;"/><path d="M439,110.857l0,-24l7.5,0c13,0 17.9,3.7 17.9,13.5c0,6.2 -2.2,10.2 -6.5,11.7c-2.9,1 -3,1.1 -1.3,3.7c0.9,1.4 4.3,6.1 7.6,10.3c3.2,4.3 5.8,8 5.8,8.3c0,0.3 -2,0.5 -4.4,0.5l-4.4,0l-7.4,-10.5l-7.3,-10.4l-0.3,10.4l-0.3,10.5l-3.4,0l-3.5,0l0,-24Zm16.2,-5.7c2.2,-2 2.4,-6.6 0.2,-8.7c-0.8,-0.9 -3.1,-1.6 -5,-1.6l-3.4,0l0,12l3.2,0c1.7,0 4,-0.7 5,-1.7Z" style="fill-rule:nonzero;"/><path d="M507,110.857l0,-24l8,0l0,48l-4,0l-4,0l0,-24Z" style="fill-rule:nonzero;"/><path d="M531,114.857l0,-20l-5.5,0l-5.5,0l0,-4l0,-4l31,0l0,8l-6,0l-6,0l0,40l-4,0l-4,0l0,-20Z" style="fill-rule:nonzero;"/><path d="M550.4,131.657c0.8,-1.8 4.4,-10 7.9,-18.3c11.6,-26.9 12.8,-29.3 13.8,-27c0.4,1.1 4.8,11.3 9.8,22.7c5,11.3 9.3,21.8 9.7,23.2c0.6,2.5 0.4,2.6 -3.2,2.6c-3.8,0 -4,-0.1 -6.4,-6l-2.5,-6l-8.6,0l-8.6,0l-2.4,6l-2.4,6l-4.2,0l-4.3,0l1.4,-3.2Zm25.2,-18.5c-0.3,-1 -1.4,-3.9 -2.4,-6.6l-1.8,-4.7l-2.5,5.7c-1.3,3.2 -2.5,6.1 -2.7,6.5c-0.2,0.4 2,0.8 4.8,0.8c4.4,0 5.1,-0.2 4.6,-1.7Z" style="fill-rule:nonzero;"/><path d="M603,114.857l0,-19.9l-5.7,-0.3l-5.8,-0.3l-0.3,-3.7l-0.3,-3.8l32.2,0l-0.3,3.8l-0.3,3.7l-5.7,0.3l-5.8,0.3l0,39.9l-4,0l-4,0l0,-20Z" style="fill-rule:nonzero;"/><path d="M645,110.757l0,-24.1l10.4,0.4c9.4,0.3 10.7,0.6 13.1,2.8c5.2,4.9 5.5,15.1 0.5,18.2c-1.8,1.1 -1.7,1.2 0.3,2.3c6,2.9 7,13.9 1.8,19.7c-3.1,3.5 -7.9,4.7 -18.3,4.8l-7.8,0l0,-24.1Zm17.3,16c2.9,-1.6 3.7,-2.8 3.7,-6.4c0,-1.6 -0.4,-3.5 -0.8,-4.1c-1.3,-1.9 -5,-3.4 -8.6,-3.4l-3.6,0l0,15l3.6,0c1.9,0 4.5,-0.5 5.7,-1.1Zm1,-23c1.2,-1.5 1.6,-3.1 1.2,-4.8c-0.9,-3.5 -1.3,-3.8 -6.7,-4.6l-4.8,-0.7l0,13.5l4.2,-0.6c2.7,-0.4 4.9,-1.4 6.1,-2.8Z" style="fill-rule:nonzero;"/><path d="M681,110.857l0,-24l25,0l0,8l-8.5,0l-8.5,0l0,10l17,0l0,8l-8.5,0l-8.5,0l0,14l17,0l0,8l-12.5,0l-12.5,0l0,-24Z" style="fill-rule:nonzero;"/><path d="M713,110.857l0,-24l7.3,0c14.4,0 18.7,3.3 18.7,14.1c0,5.7 -2.5,10.9 -5.3,10.9c-0.7,0 -1.8,0.4 -2.6,0.9c-1.1,0.7 0,2.8 5.3,10c8.7,12 8.8,12.1 3.8,12.1c-3.8,0 -4.4,-0.4 -8.4,-5.7c-2.4,-3.2 -5.7,-7.8 -7.3,-10.3l-3,-4.5l-0.3,10.3l-0.3,10.2l-3.9,0l-4,0l0,-24Zm16.4,-5.6c1.8,-1.8 2.1,-5.6 0.6,-8.5c-0.8,-1.4 -2.1,-1.9 -5,-1.9l-4,0l0,12l3.4,0c1.9,0 4.2,-0.7 5,-1.6Z" style="fill-rule:nonzero;"/><path d="M562.2,80.657c-2.9,-2.9 -0.2,-7.2 4,-6.6c1.7,0.2 2.4,1.1 2.6,3.2c0.5,4.1 -3.7,6.3 -6.6,3.4Z" style="fill-rule:nonzero;"/><path d="M573.6,80.257c-1.9,-1.9 -2,-2.5 -0.3,-4.8c1.9,-2.6 6.1,-1.8 6.5,1.2c0.7,4.4 -3.2,6.7 -6.2,3.6Z" style="fill-rule:nonzero;"/><path d="M679.8,52.157c-1.5,-3.2 -4.3,-9.8 -6.4,-14.7l-3.9,-8.9l-1.2,6.4c-0.7,3.5 -2,9.7 -2.9,13.7l-1.6,7.2l-3.5,0c-3.5,0 -3.5,-0.1 -2.9,-3.2c0.4,-1.8 1.3,-6.7 2.1,-10.8c2.3,-12.6 6.5,-31.4 7.4,-33.5c0.7,-1.7 1.3,-0.9 4.1,5c1.8,3.9 3.8,8.6 4.5,10.5c0.8,1.9 2.7,6.5 4.3,10.2l2.9,6.8l4.5,-10.3c2.5,-5.6 5.1,-11.8 5.7,-13.7c2,-6 4.9,-10.7 5.5,-9c0.3,0.8 2.6,11 5.2,22.5c2.5,11.6 4.8,21.2 5,21.4c0.2,0.2 1.7,-2.7 3.5,-6.5c7.5,-16.5 12.2,-27.2 14.1,-32.1c1,-2.9 2.3,-5.5 2.8,-5.8c0.5,-0.3 1.8,1.4 2.9,3.7c7.1,15.7 11.1,24.9 11.1,25.4c0,0.4 1.8,4.6 4,9.5c2.2,4.9 4,9.2 4,9.5c0,0.3 -1.8,0.4 -4.1,0.2c-4,-0.3 -4.2,-0.5 -6.3,-5.8l-2.2,-5.5l-8.6,-0.3l-8.5,-0.3l-2.6,6.1l-2.6,6l-7.3,0l-7.4,0l-2.3,-11.7c-1.3,-6.5 -2.6,-12.4 -2.9,-13.1c-0.2,-0.7 -3.1,4.7 -6.3,11.9c-3.2,7.3 -6.3,13.7 -6.7,14.1c-0.5,0.5 -2,-1.7 -3.4,-4.9Zm55.2,-15.6c0,-0.1 -1.3,-3.3 -2.8,-7l-2.8,-6.6l-2.2,6.2c-1.2,3.4 -2.2,6.5 -2.2,7c0,0.4 2.3,0.7 5,0.7c2.8,0 5,-0.1 5,-0.3Z" style="fill-rule:nonzero;"/><path d="M881,55.657c-0.5,-1.3 -3.4,-7.8 -6.3,-14.6l-5.4,-12.2l-2.8,13.5l-2.8,13.5l-3.3,0c-4,0 -4,0 -1.5,-11.7c1.1,-4.8 3.1,-14.9 4.6,-22.3c1.5,-7.4 3,-13.9 3.4,-14.3c0.8,-0.8 5.3,8.4 11.7,24.2c3.5,8.4 3.9,9.1 4.8,7c0.6,-1.3 2.4,-5.5 4.2,-9.4c3.2,-7 7.5,-17.3 8.8,-21c1.2,-3.2 2,-0.7 7.2,22.9l4.8,22l2.3,-5.5c9.4,-21.8 17.9,-40.8 18.3,-40.9c0.5,0 13.6,28.9 15.9,35c0.5,1.4 2.1,5.1 3.5,8.3l2.6,5.7l-4.3,0l-4.2,0l-2.3,-6l-2.4,-6l-8.5,0l-8.4,0l-2.6,6l-2.6,6l-7.2,0l-7.2,0l-2.9,-13.5l-2.8,-13.4l-2.2,5.7c-2.5,6.8 -10.3,23.2 -11,23.2c-0.2,0 -0.9,-1 -1.4,-2.2Zm53,-19.7c0,-1.5 -4.2,-11.1 -4.9,-11.1c-0.3,0 -1.5,2.4 -2.6,5.3c-1.1,2.8 -2.1,5.5 -2.3,6c-0.2,0.4 1.9,0.7 4.7,0.7c2.8,0 5.1,-0.4 5.1,-0.9Z" style="fill-rule:nonzero;"/><path d="M1096.2,41.157l-16.1,-16.8l-0.1,15.8l0,15.7l-3.5,0l-3.5,0l0,-24.5c0,-13.5 0.4,-24.5 0.9,-24.5c0.4,0 7.9,7.4 16.5,16.5l15.6,16.4l0,-15.4l0,-15.5l7,0l0,24.5c0,13.5 -0.2,24.5 -0.4,24.5c-0.2,0 -7.6,-7.5 -16.4,-16.7Z" style="fill-rule:nonzero;"/><path d="M1262.2,55.157c-0.6,-1.6 -3.5,-8.1 -6.5,-14.6l-5.5,-11.7l-1.1,6.7c-1.4,7.6 -3,15.9 -3.8,18.6c-0.4,1.4 -1.6,1.7 -7.8,1.7l-7.3,0l-7.4,-10l-7.3,-10.1l-0.3,10.1l-0.3,10l-3.4,0l-3.5,0l0,-23.5l0,-23.5l8.5,0c9.5,0 13,1.2 15.1,5.1c1.7,3.4 1.8,11.8 0.3,15.3c-0.7,1.4 -2.7,3.2 -4.5,4.1l-3.3,1.6l6.7,9.3c3.7,5.2 6.8,9.3 7,9.2c0.1,-0.2 2.5,-10.6 5.3,-23.2c2.7,-12.5 5.1,-22.9 5.3,-23.1c0.2,-0.2 1.8,2.9 3.6,6.9c1.8,4 4.8,10.5 6.5,14.3c1.8,3.9 3.5,8 3.9,9.3c0.8,2.5 2.6,3 2.6,0.8c0,-0.8 1.7,-5.2 3.8,-9.8c2.1,-4.6 5.1,-11.3 6.7,-15c1.5,-3.8 3.1,-6.8 3.5,-6.8c0.4,0 1.7,5.1 2.9,11.3c1.2,6.1 3.4,16.7 4.9,23.4l2.7,12.3l4.9,-11.3c12.5,-28.7 15,-34.3 15.7,-35.1c0.8,-0.9 1.8,1 10,19.9c2.8,6.6 6.7,15.3 8.5,19.3c1.9,4.1 3.4,7.8 3.4,8.3c0,0.6 -1.9,0.9 -4.2,0.7c-4.1,-0.3 -4.3,-0.5 -6.4,-5.8l-2.2,-5.5l-8.8,0l-8.9,0l-2,5.8l-2,5.7l-7.5,0l-7.5,0l-2.4,-12.5c-1.4,-6.9 -2.7,-12.5 -3,-12.5c-0.8,0 -12.1,24.3 -12.1,25.8c0,2.2 -1.8,1.2 -2.8,-1.5Zm53.2,-20.5c-0.3,-1.3 -1.6,-4.2 -2.8,-6.5l-2.1,-4.2l-2.7,6.4l-2.7,6.5l5.5,0c5.3,0 5.5,-0.1 4.8,-2.2Zm-90.4,-9.4c2.1,-5.4 -0.8,-9.4 -6.9,-9.4l-3.1,0l0,12l4.5,0c4,0 4.7,-0.3 5.5,-2.6Z" style="fill-rule:nonzero;"/><path d="M337,54.957c-17.7,-9.4 -18.2,-35.5 -1,-45.1c6,-3.3 15.6,-3.3 21.8,-0.1c4.1,2.1 4.3,2.3 3.6,5.9c-0.4,2 -0.8,3.9 -1,4.1c-0.1,0.2 -1.7,-0.7 -3.5,-2c-4.8,-3.4 -12.4,-3.7 -16.9,-0.7c-7.5,5.1 -10,14.9 -6,23.5c3.7,8.3 13,10.7 22.3,5.7l4.8,-2.5l-0.3,4.8c-0.3,4.4 -0.6,5 -3.8,6.5c-4.8,2.4 -15.3,2.3 -20,-0.1Z" style="fill-rule:nonzero;"/><path d="M418.8,55.257c-2.7,-1.4 -5.8,-6 -5.8,-8.6c0,-0.8 1.3,-1.9 2.9,-2.5c2.6,-1 3.1,-0.8 5,1.8c1.8,2.3 2.9,2.9 6.1,2.9c3.2,0 4.3,-0.5 5.7,-2.6c1.5,-2.3 1.5,-2.9 0.2,-5.2c-0.8,-1.4 -3.7,-3.9 -6.6,-5.6c-9.2,-5.5 -11.5,-8 -12,-13c-1.1,-9.3 4,-14.6 14,-14.6c4.5,0 6.1,0.5 8.6,2.6c3.8,3.2 3.9,5.7 0.5,7.3c-2.3,1 -3,0.9 -4.9,-0.9c-4.1,-3.8 -9.8,-2.2 -9.8,2.9c0,4 1.1,5.1 8.9,9.1c5.8,2.9 6.9,3.9 8.7,7.9c1.8,4.2 1.9,5 0.6,10.1c-1.9,7.2 -5.7,10 -13.8,10c-3.1,-0.1 -6.8,-0.7 -8.3,-1.6Z" style="fill-rule:nonzero;"/><path d="M461,55.257c-18,-7.8 -18.8,-37 -1.3,-45.5c6,-2.9 14.2,-3 20.5,-0.4c4.7,1.9 4.8,2.1 4.8,6.3c0,2.3 -0.2,4.2 -0.4,4.2c-0.3,0 -2.7,-1.2 -5.3,-2.6c-11.6,-6.2 -23.5,0.8 -23.6,13.9c-0.1,7.5 1.8,12 6.1,15.1c5,3.5 11.2,3.5 17.6,0.1c2.6,-1.4 4.9,-2.5 5.2,-2.5c0.2,0 0.4,2 0.4,4.5c0,4.4 -0.2,4.7 -4.2,6.5c-5.2,2.4 -14.8,2.6 -19.8,0.4Z" style="fill-rule:nonzero;"/><path d="M1166.2,54.757c-8.4,-4.2 -13.2,-12.4 -13.2,-22.6c0,-8.3 2.2,-13.4 7.7,-18.4c5.2,-4.7 10,-6.2 17.8,-5.7c15.4,1 24.5,15 20.5,31.6c-3.3,13.8 -19.9,21.5 -32.8,15.1Zm17.8,-8.1c4.8,-3.3 7.2,-7 7.7,-12.1c0.7,-6.1 -1.1,-10.9 -5.7,-15.1c-4.8,-4.3 -8,-5.2 -13,-3.7c-5.5,1.6 -8.6,4.5 -10.4,9.8c-2,5.8 -1.9,8.7 0.3,14.2c3.4,8.3 14,11.7 21.1,6.9Z" style="fill-rule:nonzero;"/><path d="M256,32.357l0,-23.5l25,0l0,7l-8.5,0l-8.5,0l0,11l17,0l0,7l-8.5,0l-8.5,0l0,22l-4,0l-4,0l0,-23.5Z" style="fill-rule:nonzero;"/><path d="M280.9,53.657c0.5,-1.3 2.3,-5.3 4,-9.1c1.7,-3.7 3.1,-7 3.1,-7.3c0,-1.5 13.4,-30.4 14.1,-30.4c0.4,0 1.3,1.7 2,3.8c0.7,2 4.9,11.9 9.4,21.9c4.6,10 8.6,19.4 8.9,20.8c0.6,2.5 0.5,2.6 -3.5,2.3c-4,-0.3 -4.2,-0.5 -6.3,-5.8l-2.2,-5.5l-8.6,-0.3l-8.5,-0.3l-2.6,6.1c-2.6,5.9 -2.7,6 -6.6,6c-3.8,0 -4,-0.1 -3.2,-2.2Zm26.1,-17c0,-0.2 -0.7,-2.1 -1.6,-4.3c-0.8,-2.2 -1.7,-4.8 -2.1,-5.7c-0.3,-1 -0.9,-1.8 -1.3,-1.8c-0.7,0 -5,9.5 -5,11.1c0,0.5 2.3,0.9 5,0.9c2.8,0 5,-0.1 5,-0.2Z" style="fill-rule:nonzero;"/><path d="M370,32.357l0,-23.5l7,0l0,17l21,0l0,-8.5l0,-8.5l8,0l0,47l-4,0l-4,0l0,-11.5l0,-11.5l-10.5,0l-10.5,0l0,23l-3.5,0l-3.5,0l0,-23.5Z" style="fill-rule:nonzero;"/><path d="M493,32.357l0,-23.5l8,0l0,17l21,0l0,-8.5l0,-8.5l7,0l0,47l-3.5,0l-3.5,0l0,-11.5l0,-11.5l-10.5,0l-10.5,0l0,23l-4,0l-4,0l0,-23.5Z" style="fill-rule:nonzero;"/><path d="M533,54.957c0,-0.6 1.8,-4.9 4,-9.6c2.2,-4.7 4,-8.9 4,-9.3c0,-1.2 12.1,-27.6 13,-28.6c0.6,-0.6 1.2,-0.2 1.6,1c0.4,1 4.3,10 8.7,19.9c4.4,9.9 8.7,20.1 9.7,22.8l1.8,4.7l-4.1,0l-4.2,0l-2.3,-6l-2.4,-6l-8.5,0l-8.4,0l-2.6,6c-2.6,5.8 -2.7,6 -6.5,6c-2.1,0 -3.8,-0.4 -3.8,-0.9Zm26,-18.8c0,-0.5 -1,-3.6 -2.2,-7l-2.2,-6.2l-2.8,6.6c-1.5,3.7 -2.8,6.9 -2.8,7c0,0.2 2.3,0.3 5,0.3c2.8,0 5,-0.3 5,-0.7Z" style="fill-rule:nonzero;"/><path d="M579,32.357l0,-23.5l26,0l0,7l-9,0l-9,0l0,11l18,0l0,7l-9,0l-9,0l0,22l-4,0l-4,0l0,-23.5Z" style="fill-rule:nonzero;"/><path d="M619,35.857l0,-20l-6,0l-6,0l0,-3.5l0,-3.5l31,0l0,7l-6,0l-6,0l0,40l-3.5,0l-3.5,0l0,-20Z" style="fill-rule:nonzero;"/><path d="M758,35.857l0,-20l-6,0l-6,0l0,-3.5l0,-3.5l31,0l0,7l-5.5,0l-5.5,0l0,40l-4,0l-4,0l0,-20Z" style="fill-rule:nonzero;"/><path d="M782,32.357l0,-23.5l8,0l0,17l21,0l0,-8.5l0,-8.5l8,0l0,47l-4,0l-4,0l0,-11.5l0,-11.5l-10.5,0l-10.5,0l0,23l-4,0l-4,0l0,-23.5Z" style="fill-rule:nonzero;"/><path d="M828,32.357l0,-23.5l25,0l0,7l-8.5,0l-8.5,0l0,11l17,0l0,7l-8.5,0l-8.5,0l0,14l17,0l0,8l-12.5,0l-12.5,0l0,-23.5Z" style="fill-rule:nonzero;"/><path d="M958,35.857l0,-20l-6,0l-6,0l0,-3.5l0,-3.5l32,0l0,7l-6,0l-6,0l0,40l-4,0l-4,0l0,-20Z" style="fill-rule:nonzero;"/><path d="M982,32.357l0,-23.5l8,0l0,47l-4,0l-4,0l0,-23.5Z" style="fill-rule:nonzero;"/><path d="M999,32.357l0,-23.5l7.9,0l0.6,18.4l4.4,-6c8,-10.7 10,-12.4 14.8,-12.4c3.8,0 5.7,1.2 3.6,2.2c-0.5,0.2 -3.7,3.9 -7.2,8.3c-3.6,4.4 -7.1,8.4 -7.8,8.8c-1,0.6 0.3,2.8 4.9,8.9c3.5,4.5 8,10.5 10,13.5l3.7,5.3l-5.2,0c-5.1,-0.1 -5.3,-0.2 -8.4,-4.8c-1.8,-2.6 -3.9,-5.6 -4.8,-6.7c-0.8,-1.1 -3.1,-4.2 -5,-7l-3.5,-5l0,23.5l-4,0l-4,0l0,-23.5Z" style="fill-rule:nonzero;"/><path d="M1056,32.357l0,-23.5l7,0l0,47l-3.5,0l-3.5,0l0,-23.5Z" style="fill-rule:nonzero;"/><path d="M1123,32.357l0,-23.5l25,0l0,7l-9,0l-9,0l0,11l18,0l0,7l-9,0l-9,0l0,22l-3.5,0l-3.5,0l0,-23.5Z" style="fill-rule:nonzero;"/><path d="M1339,35.857l0,-20l-5.5,0l-5.5,0l0,-3.5l0,-3.5l31,0l0,7l-6,0l-6,0l0,40l-4,0l-4,0l0,-20Z" style="fill-rule:nonzero;"/><path d="M1364,32.357l0,-23.5l7,0l0,47l-3.5,0l-3.5,0l0,-23.5Z" style="fill-rule:nonzero;"/><path d="M1381,32.357l0,-23.5l7.9,0l0.6,17.2l6.8,-8.6l6.8,-8.6l10,0l-8.4,10.3l-8.5,10.3l5.1,7.1c2.9,3.9 7.1,9.6 9.5,12.7c2.3,3 4.2,5.8 4.2,6.1c0,0.3 -2.2,0.5 -4.9,0.5c-4.7,0 -5.1,-0.3 -7.8,-4c-1.5,-2.2 -5.2,-7.2 -8,-11.2l-5.3,-7.1l0,22.3l-4,0l-4,0l0,-23.5Z" style="fill-rule:nonzero;"/></g><g id="layer102"><path d="M0,70.857l0,-64l20.5,0c20.4,0 20.5,0 21,2.3c0.2,1.2 1.9,12.3 3.6,24.7c1.7,12.4 3.3,23.2 3.6,24c0.8,1.9 1.6,-3.9 4.3,-29.5c1.2,-11 2.4,-20.3 2.6,-20.7c0.3,-0.5 9.9,-0.8 21.5,-0.8l20.9,0l0,128l-14.5,0l-14.5,0l-0.1,-36.2l-0.1,-36.3l-4.8,35.5c-2.7,19.5 -4.9,35.8 -4.9,36.3c-0.1,0.4 -4.7,0.7 -10.4,0.7l-10.3,0l-1.3,-10.7c-0.7,-6 -3,-22.7 -5.1,-37.3l-3.8,-26.5l-0.1,37.3l-0.1,37.2l-14,0l-14,0l0,-64Z" style="fill:#047391;fill-rule:nonzero;"/><path d="M110,70.857l0,-64l32,0l0,128l-16,0l-16,0l0,-64Z" style="fill:#047391;fill-rule:nonzero;"/><path d="M154,70.857l0,-64.2l24.8,0.4c27.3,0.5 32.4,1.4 38.6,6.8c1.8,1.7 4.4,5.4 5.7,8.2c2.1,4.8 2.4,6.7 2.4,19.3c0,16.4 -0.7,18.3 -8.4,21.9l-4.8,2.2l4.4,1.8c4.7,2 8.3,6 10.2,11.6c1.8,5.2 2.5,24.4 1.3,33.8c-1.7,12.4 -5.4,17.9 -13.7,20.2c-2.3,0.6 -16.3,1.4 -32.2,1.7l-28.3,0.6l0,-64.3Zm39.6,39.6c1.7,-1.3 1.9,-2.9 2.2,-14.3c0.4,-15.7 -0.3,-18.3 -5.3,-18.3l-3.5,0l0,34l2.3,0c1.3,0 3.2,-0.6 4.3,-1.4Zm0.9,-55.7c0.5,-0.5 1,-5.6 1,-11.4c0,-11.3 -0.6,-12.7 -5.7,-13.9l-2.8,-0.6l0,28.3l3.2,-0.7c1.8,-0.3 3.7,-1.1 4.3,-1.7Z" style="fill:#047391;fill-rule:nonzero;"/></g></svg>