<?xml version="1.0" encoding="UTF-8" standalone="no"?>
<!-- Generator: Gravit.io -->

<svg
   xmlns:dc="http://purl.org/dc/elements/1.1/"
   xmlns:cc="http://creativecommons.org/ns#"
   xmlns:rdf="http://www.w3.org/1999/02/22-rdf-syntax-ns#"
   xmlns:svg="http://www.w3.org/2000/svg"
   xmlns="http://www.w3.org/2000/svg"
   xmlns:sodipodi="http://sodipodi.sourceforge.net/DTD/sodipodi-0.dtd"
   xmlns:inkscape="http://www.inkscape.org/namespaces/inkscape"
   style="isolation:isolate"
   viewBox="0 0 283.465 113.386"
   width="283.465"
   height="113.386"
   version="1.1"
   id="svg34"
   sodipodi:docname="logo-rgb.svg"
   inkscape:version="0.92.4 (unknown)">
  <metadata
     id="metadata40">
    <rdf:RDF>
      <cc:Work
         rdf:about="">
        <dc:format>image/svg+xml</dc:format>
        <dc:type
           rdf:resource="http://purl.org/dc/dcmitype/StillImage" />
        <dc:title></dc:title>
      </cc:Work>
    </rdf:RDF>
  </metadata>
  <defs
     id="defs38" />
  <sodipodi:namedview
     pagecolor="#ffffff"
     bordercolor="#666666"
     borderopacity="1"
     objecttolerance="10"
     gridtolerance="10"
     guidetolerance="10"
     inkscape:pageopacity="0"
     inkscape:pageshadow="2"
     inkscape:window-width="1867"
     inkscape:window-height="1056"
     id="namedview36"
     showgrid="false"
     inkscape:pagecheckerboard="true"
     inkscape:showpageshadow="false"
     inkscape:zoom="3.2129312"
     inkscape:cx="140.13837"
     inkscape:cy="52.404549"
     inkscape:window-x="53"
     inkscape:window-y="24"
     inkscape:window-maximized="1"
     inkscape:current-layer="svg34" />
  <path
     d=" M 228.743371 96.788574 L 236.120444 96.788574 L 237.314421 100.818247 L 239.467844 100.818247 L 234.457404 84.059924 L 224.116709 100.818247 L 226.270132 100.818247 L 228.743371 96.788574 Z  M 233.753811 88.452054 L 235.587418 94.954966 L 229.873385 94.954966 L 233.753811 88.452054 Z  M 245.821509 93.121358 L 247.505869 92.289838 L 247.505869 92.289838 Q 247.250017 91.458318 246.610386 90.999916 L 246.610386 90.999916 L 246.610386 90.999916 Q 245.970756 90.541514 245.053952 90.541514 L 245.053952 90.541514 L 245.053952 90.541514 Q 243.838654 90.541514 242.847226 91.383695 L 242.847226 91.383695 L 242.847226 91.383695 Q 241.855799 92.225875 241.663909 93.441173 L 241.663909 93.441173 L 241.663909 93.441173 Q 241.621267 93.675705 241.621267 93.888915 L 241.621267 93.888915 L 241.621267 93.888915 Q 241.621267 94.613829 242.005046 95.05091 L 242.005046 95.05091 L 242.005046 95.05091 Q 242.388824 95.487991 243.177702 95.957054 L 243.177702 95.957054 L 244.904705 96.959142 L 244.904705 96.959142 Q 245.181878 97.172352 245.309804 97.364241 L 245.309804 97.364241 L 245.309804 97.364241 Q 245.43773 97.55613 245.43773 97.833304 L 245.43773 97.833304 L 245.43773 97.833304 Q 245.43773 97.854625 245.43773 97.939909 L 245.43773 97.939909 L 245.43773 97.939909 Q 245.43773 98.003872 245.43773 98.046514 L 245.43773 98.046514 L 245.43773 98.046514 Q 245.331125 98.664823 244.830081 99.059262 L 244.830081 99.059262 L 244.830081 99.059262 Q 244.329037 99.453701 243.689406 99.453701 L 243.689406 99.453701 L 243.689406 99.453701 Q 243.049776 99.453701 242.687318 99.123225 L 242.687318 99.123225 L 242.687318 99.123225 Q 242.324861 98.79275 242.09033 98.17444 L 242.09033 98.17444 L 240.320685 98.920676 L 240.320685 98.920676 Q 240.555216 99.944085 241.429378 100.551734 L 241.429378 100.551734 L 241.429378 100.551734 Q 242.30354 101.159383 243.433554 101.159383 L 243.433554 101.159383 L 243.433554 101.159383 Q 244.115827 101.159383 244.776779 100.914191 L 244.776779 100.914191 L 244.776779 100.914191 Q 245.43773 100.668999 245.992077 100.221258 L 245.992077 100.221258 L 245.992077 100.221258 Q 246.546423 99.773517 246.908881 99.165867 L 246.908881 99.165867 L 246.908881 99.165867 Q 247.271338 98.558218 247.377943 97.854625 L 247.377943 97.854625 L 247.377943 97.854625 Q 247.420585 97.598772 247.420585 97.385562 L 247.420585 97.385562 L 247.420585 97.385562 Q 247.420585 96.532721 246.908881 95.989035 L 246.908881 95.989035 L 246.908881 95.989035 Q 246.397176 95.445349 245.523014 95.018929 L 245.523014 95.018929 L 245.523014 95.018929 Q 245.523014 95.018929 245.139236 94.82704 L 245.139236 94.82704 L 245.139236 94.82704 Q 244.286395 94.42194 243.881296 94.123446 L 243.881296 94.123446 L 243.881296 94.123446 Q 243.476196 93.824952 243.476196 93.37721 L 243.476196 93.37721 L 243.476196 93.37721 Q 243.476196 93.37721 243.476196 93.313247 L 243.476196 93.313247 L 243.476196 93.313247 Q 243.476196 93.270605 243.476196 93.227963 L 243.476196 93.227963 L 243.476196 93.227963 Q 243.540159 92.822864 243.902617 92.53503 L 243.902617 92.53503 L 243.902617 92.53503 Q 244.265074 92.247196 244.691494 92.247196 L 244.691494 92.247196 L 244.691494 92.247196 Q 245.096594 92.247196 245.405749 92.492388 L 245.405749 92.492388 L 245.405749 92.492388 Q 245.714903 92.73758 245.821509 93.121358 L 245.821509 93.121358 Z  M 250.981196 100.818247 L 252.281778 92.630975 L 254.158028 92.630975 L 254.435201 90.840009 L 252.558951 90.840009 L 253.177261 87.023546 L 251.258369 87.023546 L 250.640059 90.840009 L 249.595329 90.840009 L 249.318156 92.630975 L 250.362886 92.630975 L 249.062304 100.818247 L 250.981196 100.818247 Z  M 257.270897 92.460406 L 257.526749 90.840009 L 255.607857 90.840009 L 254.030102 100.818247 L 255.948994 100.818247 L 256.71655 95.914412 L 256.71655 95.914412 Q 256.844476 95.189497 257.025705 94.592508 L 257.025705 94.592508 L 257.025705 94.592508 Q 257.206934 93.99552 257.526749 93.494476 L 257.526749 93.494476 L 257.526749 93.494476 Q 257.846564 92.993432 258.358269 92.684277 L 258.358269 92.684277 L 258.358269 92.684277 Q 258.869973 92.375122 259.616209 92.375122 L 259.616209 92.375122 L 259.616209 92.375122 Q 260.319803 92.375122 260.724902 92.780222 L 260.724902 92.780222 L 261.876237 91.031898 L 261.876237 91.031898 Q 261.172644 90.541514 260.362445 90.541514 L 260.362445 90.541514 L 260.362445 90.541514 Q 259.42432 90.541514 258.635442 91.053219 L 258.635442 91.053219 L 258.635442 91.053219 Q 257.846564 91.564923 257.33486 92.460406 L 257.33486 92.460406 L 257.270897 92.460406 Z  M 267.441024 90.541514 L 267.441024 90.541514 L 267.441024 90.541514 Q 266.353652 90.541514 265.308922 90.935953 L 265.308922 90.935953 L 265.308922 90.935953 Q 264.264192 91.330392 263.422011 92.065967 L 263.422011 92.065967 L 263.422011 92.065967 Q 262.579831 92.801543 262.014824 93.771649 L 262.014824 93.771649 L 262.014824 93.771649 Q 261.449817 94.741756 261.279249 95.850449 L 261.279249 95.850449 L 261.279249 95.850449 Q 261.215286 96.29819 261.215286 96.724611 L 261.215286 96.724611 L 261.215286 96.724611 Q 261.215286 97.684057 261.545762 98.494255 L 261.545762 98.494255 L 261.545762 98.494255 Q 261.876237 99.304454 262.483887 99.901443 L 262.483887 99.901443 L 262.483887 99.901443 Q 263.091536 100.498431 263.933716 100.828907 L 263.933716 100.828907 L 263.933716 100.828907 Q 264.775896 101.159383 265.777984 101.159383 L 265.777984 101.159383 L 265.777984 101.159383 Q 266.865356 101.159383 267.899426 100.754284 L 267.899426 100.754284 L 267.899426 100.754284 Q 268.933495 100.349184 269.786336 99.624269 L 269.786336 99.624269 L 269.786336 99.624269 Q 270.639177 98.899355 271.204184 97.929248 L 271.204184 97.929248 L 271.204184 97.929248 Q 271.769191 96.959142 271.939759 95.850449 L 271.939759 95.850449 L 271.939759 95.850449 Q 272.003722 95.402707 272.003722 94.976287 L 272.003722 94.976287 L 272.003722 94.976287 Q 272.003722 94.016841 271.673247 93.206642 L 271.673247 93.206642 L 271.673247 93.206642 Q 271.342771 92.396443 270.735122 91.799455 L 270.735122 91.799455 L 270.735122 91.799455 Q 270.127473 91.202466 269.285292 90.87199 L 269.285292 90.87199 L 269.285292 90.87199 Q 268.443112 90.541514 267.441024 90.541514 Z  M 267.163851 92.375122 L 267.163851 92.375122 L 267.163851 92.375122 Q 268.421791 92.375122 269.24265 93.217303 L 269.24265 93.217303 L 269.24265 93.217303 Q 270.06351 94.059483 270.06351 95.296102 L 270.06351 95.296102 L 270.06351 95.296102 Q 270.06351 95.573275 270.020868 95.850449 L 270.020868 95.850449 L 270.020868 95.850449 Q 269.914262 96.532721 269.551805 97.172352 L 269.551805 97.172352 L 269.551805 97.172352 Q 269.189348 97.811983 268.635001 98.291706 L 268.635001 98.291706 L 268.635001 98.291706 Q 268.080655 98.771429 267.419703 99.048602 L 267.419703 99.048602 L 267.419703 99.048602 Q 266.758751 99.325775 266.055158 99.325775 L 266.055158 99.325775 L 266.055158 99.325775 Q 264.797217 99.325775 263.976358 98.483595 L 263.976358 98.483595 L 263.976358 98.483595 Q 263.155499 97.641414 263.155499 96.383474 L 263.155499 96.383474 L 263.155499 96.383474 Q 263.155499 96.106301 263.198141 95.850449 L 263.198141 95.850449 L 263.198141 95.850449 Q 263.304746 95.146855 263.667203 94.517885 L 263.667203 94.517885 L 263.667203 94.517885 Q 264.029661 93.888915 264.584007 93.398531 L 264.584007 93.398531 L 264.584007 93.398531 Q 265.138354 92.908148 265.799305 92.641635 L 265.799305 92.641635 L 265.799305 92.641635 Q 266.460257 92.375122 267.163851 92.375122 Z  M 210.535219 93.014753 L 210.748429 92.886827 L 213.626767 97.236315 L 213.626767 97.236315 Q 212.475432 98.238403 211.526646 98.80341 L 211.526646 98.80341 L 211.526646 98.80341 Q 210.577861 99.368417 209.597094 99.368417 L 209.597094 99.368417 L 209.597094 99.368417 Q 208.552364 99.368417 207.795467 98.60086 L 207.795467 98.60086 L 207.795467 98.60086 Q 207.038571 97.833304 207.038571 96.788574 L 207.038571 96.788574 L 207.038571 96.788574 Q 207.038571 96.745932 207.059892 96.596684 L 207.059892 96.596684 L 207.059892 96.596684 Q 207.081213 96.490079 207.081213 96.404795 L 207.081213 96.404795 L 207.081213 96.404795 Q 207.23046 95.487991 208.040659 94.763077 L 208.040659 94.763077 L 208.040659 94.763077 Q 208.850858 94.038162 210.194082 93.227963 L 210.194082 93.227963 L 210.194082 93.227963 Q 210.279366 93.164 210.535219 93.014753 L 210.535219 93.014753 Z  M 211.857122 90.200378 L 211.579949 90.370946 L 211.153528 89.688674 L 211.110886 89.624711 L 211.110886 89.624711 Q 210.812392 89.134327 210.641824 88.77187 L 210.641824 88.77187 L 210.641824 88.77187 Q 210.471256 88.409412 210.471256 88.004313 L 210.471256 88.004313 L 210.471256 88.004313 Q 210.471256 87.94035 210.492577 87.833745 L 210.492577 87.833745 L 210.492577 87.833745 Q 210.513898 87.72714 210.513898 87.684498 L 210.513898 87.684498 L 210.513898 87.684498 Q 210.620503 86.938262 211.228152 86.458539 L 211.228152 86.458539 L 211.228152 86.458539 Q 211.835801 85.978816 212.560716 85.978816 L 212.560716 85.978816 L 212.560716 85.978816 Q 213.306951 85.978816 213.754693 86.351934 L 213.754693 86.351934 L 213.754693 86.351934 Q 214.202434 86.725052 214.202434 87.386003 L 214.202434 87.386003 L 214.202434 87.386003 Q 214.202434 87.449966 214.181113 87.556571 L 214.181113 87.556571 L 214.181113 87.556571 Q 214.159792 87.684498 214.159792 87.72714 L 214.159792 87.72714 L 214.159792 87.72714 Q 214.053187 88.409412 213.573464 88.889135 L 213.573464 88.889135 L 213.573464 88.889135 Q 213.093741 89.368858 212.219579 89.944526 L 212.219579 89.944526 L 212.219579 89.944526 Q 212.006369 90.093773 211.857122 90.200378 L 211.857122 90.200378 Z  M 214.586213 98.643502 L 215.9934 100.818247 L 218.466638 100.818247 L 216.163968 97.257636 L 218.487959 94.954966 L 217.400587 93.633062 L 215.183201 95.807807 L 212.475432 91.756813 L 212.475432 91.756813 Q 214.010545 90.754725 214.927349 89.859242 L 214.927349 89.859242 L 214.927349 89.859242 Q 215.844153 88.963759 216.036042 87.748461 L 216.036042 87.748461 L 216.036042 87.748461 Q 216.078684 87.449966 216.078684 87.194114 L 216.078684 87.194114 L 216.078684 87.194114 Q 216.078684 85.893532 215.16188 85.147296 L 215.16188 85.147296 L 215.16188 85.147296 Q 214.245076 84.40106 212.85921 84.40106 L 212.85921 84.40106 L 212.85921 84.40106 Q 211.238812 84.40106 210.044835 85.349846 L 210.044835 85.349846 L 210.044835 85.349846 Q 208.850858 86.298631 208.595006 87.919029 L 208.595006 87.919029 L 208.595006 87.919029 Q 208.552364 88.174881 208.552364 88.452054 L 208.552364 88.452054 L 208.552364 88.452054 Q 208.552364 89.240932 208.8935 89.976507 L 208.8935 89.976507 L 208.8935 89.976507 Q 209.234636 90.712083 209.810304 91.436997 L 209.810304 91.436997 L 208.68029 92.161912 L 208.68029 92.161912 Q 207.145176 93.164 206.281675 94.102125 L 206.281675 94.102125 L 206.281675 94.102125 Q 205.418174 95.04025 205.204963 96.426116 L 205.204963 96.426116 L 205.204963 96.426116 Q 205.141 96.809895 205.141 97.193673 L 205.141 97.193673 L 205.141 97.193673 Q 205.141 98.941997 206.334977 100.05069 L 206.334977 100.05069 L 206.334977 100.05069 Q 207.528955 101.159383 209.383883 101.159383 L 209.383883 101.159383 L 209.383883 101.159383 Q 210.727108 101.159383 212.080993 100.47711 L 212.080993 100.47711 L 212.080993 100.47711 Q 213.434877 99.794838 214.586213 98.643502 L 214.586213 98.643502 Z  M 145.271573 100.818247 L 146.337624 94.080804 L 147.488959 94.080804 L 147.488959 94.080804 Q 148.682936 94.080804 149.727666 93.814291 L 149.727666 93.814291 L 149.727666 93.814291 Q 150.772396 93.547778 151.646558 92.982771 L 151.646558 92.982771 L 151.646558 92.982771 Q 152.52072 92.417764 153.096388 91.511621 L 153.096388 91.511621 L 153.096388 91.511621 Q 153.672055 90.605478 153.863944 89.390179 L 153.863944 89.390179 L 153.863944 89.390179 Q 153.949229 88.835833 153.949229 88.345449 L 153.949229 88.345449 L 153.949229 88.345449 Q 153.949229 86.533162 152.595344 85.63768 L 152.595344 85.63768 L 152.595344 85.63768 Q 151.241459 84.742197 148.107269 84.742197 L 148.107269 84.742197 L 145.804598 84.742197 L 143.267397 100.818247 L 145.271573 100.818247 Z  M 146.614797 92.289838 L 147.531601 86.533162 L 148.064627 86.533162 L 148.064627 86.533162 Q 148.853505 86.533162 149.535777 86.618447 L 149.535777 86.618447 L 149.535777 86.618447 Q 150.21805 86.703731 150.783057 86.938262 L 150.783057 86.938262 L 150.783057 86.938262 Q 151.348064 87.172793 151.6892 87.631195 L 151.6892 87.631195 L 151.6892 87.631195 Q 152.030337 88.089597 152.030337 88.814512 L 152.030337 88.814512 L 152.030337 88.814512 Q 152.030337 89.049043 151.987695 89.347537 L 151.987695 89.347537 L 151.987695 89.347537 Q 151.859768 90.264341 151.401367 90.850669 L 151.401367 90.850669 L 151.401367 90.850669 Q 150.942965 91.436997 150.292673 91.746152 L 150.292673 91.746152 L 150.292673 91.746152 Q 149.642382 92.055307 148.896147 92.172573 L 148.896147 92.172573 L 148.896147 92.172573 Q 148.149911 92.289838 147.254428 92.289838 L 147.254428 92.289838 L 146.614797 92.289838 Z  M 158.469285 82.3116 L 156.550393 82.3116 L 153.608092 100.818247 L 155.526984 100.818247 L 156.251899 96.234227 L 156.251899 96.234227 Q 156.401146 95.338744 156.550393 94.709774 L 156.550393 94.709774 L 156.550393 94.709774 Q 156.69964 94.080804 157.019456 93.505136 L 157.019456 93.505136 L 157.019456 93.505136 Q 157.339271 92.929469 157.914938 92.588332 L 157.914938 92.588332 L 157.914938 92.588332 Q 158.490606 92.247196 159.364768 92.247196 L 159.364768 92.247196 L 159.364768 92.247196 Q 160.388177 92.247196 160.803937 92.662956 L 160.803937 92.662956 L 160.803937 92.662956 Q 161.219697 93.078716 161.219697 93.910236 L 161.219697 93.910236 L 161.219697 93.910236 Q 161.219697 94.379298 161.091771 95.104213 L 161.091771 95.104213 L 160.196288 100.818247 L 162.11518 100.818247 L 163.053305 94.869682 L 163.053305 94.869682 Q 163.181231 94.102125 163.181231 93.483815 L 163.181231 93.483815 L 163.181231 93.483815 Q 163.181231 92.097949 162.488298 91.319732 L 162.488298 91.319732 L 162.488298 91.319732 Q 161.795364 90.541514 160.196288 90.541514 L 160.196288 90.541514 L 160.196288 90.541514 Q 159.279484 90.541514 158.384001 90.967935 L 158.384001 90.967935 L 158.384001 90.967935 Q 157.488518 91.394355 156.934172 92.183233 L 156.934172 92.183233 L 156.891529 92.183233 L 158.469285 82.3116 Z  M 164.737665 90.840009 L 167.999781 99.112565 L 162.904057 106.53228 L 165.078802 106.53228 L 175.632707 90.840009 L 173.479284 90.840009 L 169.343006 97.172352 L 166.976372 90.840009 L 164.737665 90.840009 Z  M 180.302011 93.121358 L 181.986371 92.289838 L 181.986371 92.289838 Q 181.730519 91.458318 181.090888 90.999916 L 181.090888 90.999916 L 181.090888 90.999916 Q 180.451258 90.541514 179.534454 90.541514 L 179.534454 90.541514 L 179.534454 90.541514 Q 178.319156 90.541514 177.327728 91.383695 L 177.327728 91.383695 L 177.327728 91.383695 Q 176.336301 92.225875 176.144412 93.441173 L 176.144412 93.441173 L 176.144412 93.441173 Q 176.101769 93.675705 176.101769 93.888915 L 176.101769 93.888915 L 176.101769 93.888915 Q 176.101769 94.613829 176.485548 95.05091 L 176.485548 95.05091 L 176.485548 95.05091 Q 176.869326 95.487991 177.658204 95.957054 L 177.658204 95.957054 L 179.385207 96.959142 L 179.385207 96.959142 Q 179.66238 97.172352 179.790306 97.364241 L 179.790306 97.364241 L 179.790306 97.364241 Q 179.918232 97.55613 179.918232 97.833304 L 179.918232 97.833304 L 179.918232 97.833304 Q 179.918232 97.854625 179.918232 97.939909 L 179.918232 97.939909 L 179.918232 97.939909 Q 179.918232 98.003872 179.918232 98.046514 L 179.918232 98.046514 L 179.918232 98.046514 Q 179.811627 98.664823 179.310583 99.059262 L 179.310583 99.059262 L 179.310583 99.059262 Q 178.809539 99.453701 178.169909 99.453701 L 178.169909 99.453701 L 178.169909 99.453701 Q 177.530278 99.453701 177.167821 99.123225 L 177.167821 99.123225 L 177.167821 99.123225 Q 176.805363 98.79275 176.570832 98.17444 L 176.570832 98.17444 L 174.801187 98.920676 L 174.801187 98.920676 Q 175.035718 99.944085 175.90988 100.551734 L 175.90988 100.551734 L 175.90988 100.551734 Q 176.784042 101.159383 177.914056 101.159383 L 177.914056 101.159383 L 177.914056 101.159383 Q 178.596329 101.159383 179.257281 100.914191 L 179.257281 100.914191 L 179.257281 100.914191 Q 179.918232 100.668999 180.472579 100.221258 L 180.472579 100.221258 L 180.472579 100.221258 Q 181.026925 99.773517 181.389383 99.165867 L 181.389383 99.165867 L 181.389383 99.165867 Q 181.75184 98.558218 181.858445 97.854625 L 181.858445 97.854625 L 181.858445 97.854625 Q 181.901087 97.598772 181.901087 97.385562 L 181.901087 97.385562 L 181.901087 97.385562 Q 181.901087 96.532721 181.389383 95.989035 L 181.389383 95.989035 L 181.389383 95.989035 Q 180.877678 95.445349 180.003516 95.018929 L 180.003516 95.018929 L 180.003516 95.018929 Q 180.003516 95.018929 179.619738 94.82704 L 179.619738 94.82704 L 179.619738 94.82704 Q 178.766897 94.42194 178.361798 94.123446 L 178.361798 94.123446 L 178.361798 94.123446 Q 177.956698 93.824952 177.956698 93.37721 L 177.956698 93.37721 L 177.956698 93.37721 Q 177.956698 93.37721 177.956698 93.313247 L 177.956698 93.313247 L 177.956698 93.313247 Q 177.956698 93.270605 177.956698 93.227963 L 177.956698 93.227963 L 177.956698 93.227963 Q 178.020661 92.822864 178.383119 92.53503 L 178.383119 92.53503 L 178.383119 92.53503 Q 178.745576 92.247196 179.171997 92.247196 L 179.171997 92.247196 L 179.171997 92.247196 Q 179.577096 92.247196 179.886251 92.492388 L 179.886251 92.492388 L 179.886251 92.492388 Q 180.195406 92.73758 180.302011 93.121358 L 180.302011 93.121358 Z  M 185.610945 100.818247 L 187.1887 90.840009 L 185.269809 90.840009 L 183.692053 100.818247 L 185.610945 100.818247 Z  M 187.167379 84.934086 L 187.167379 84.934086 L 187.167379 84.934086 Q 186.613033 84.934086 186.165291 85.328525 L 186.165291 85.328525 L 186.165291 85.328525 Q 185.71755 85.722964 185.632266 86.27731 L 185.632266 86.27731 L 185.632266 86.27731 Q 185.632266 86.319952 185.632266 86.383915 L 185.632266 86.383915 L 185.632266 86.383915 Q 185.610945 86.447878 185.610945 86.469199 L 185.610945 86.469199 L 185.610945 86.469199 Q 185.610945 86.959583 185.93076 87.268738 L 185.93076 87.268738 L 185.93076 87.268738 Q 186.250576 87.577893 186.740959 87.577893 L 186.740959 87.577893 L 186.740959 87.577893 Q 187.295306 87.577893 187.743047 87.194114 L 187.743047 87.194114 L 187.743047 87.194114 Q 188.190788 86.810336 188.276073 86.27731 L 188.276073 86.27731 L 188.276073 86.27731 Q 188.276073 86.234668 188.276073 86.170705 L 188.276073 86.170705 L 188.276073 86.170705 Q 188.297394 86.085421 188.297394 86.0641 L 188.297394 86.0641 L 188.297394 86.0641 Q 188.297394 85.573717 187.977578 85.253901 L 187.977578 85.253901 L 187.977578 85.253901 Q 187.657763 84.934086 187.167379 84.934086 Z  M 191.708757 94.592508 L 193.670291 82.3116 L 191.751399 82.3116 L 188.809098 100.818247 L 190.72799 100.818247 L 191.3463 96.937821 L 192.113856 96.276869 L 194.949552 100.818247 L 197.444112 100.818247 L 193.670291 94.976287 L 198.595447 90.840009 L 196.058245 90.840009 L 191.708757 94.592508 Z  M 147.51028 64.367829 L 153.288277 64.367829 L 153.56545 62.534221 L 145.783277 62.534221 L 143.246076 78.610271 L 145.250252 78.610271 L 146.508192 70.721493 L 152.0943 70.721493 L 152.371473 68.887885 L 146.785365 68.887885 L 147.51028 64.367829 Z  M 157.680407 77.245726 L 157.680407 77.245726 L 157.680407 77.245726 Q 156.422467 77.245726 155.729534 76.414206 L 155.729534 76.414206 L 155.729534 76.414206 Q 155.036601 75.582686 155.036601 74.346067 L 155.036601 74.346067 L 155.036601 74.346067 Q 155.036601 73.983609 155.100564 73.621152 L 155.100564 73.621152 L 155.100564 73.621152 Q 155.207169 72.917558 155.526984 72.267267 L 155.526984 72.267267 L 155.526984 72.267267 Q 155.846799 71.616976 156.337183 71.115932 L 156.337183 71.115932 L 156.337183 71.115932 Q 156.827566 70.614888 157.467197 70.327054 L 157.467197 70.327054 L 157.467197 70.327054 Q 158.106828 70.039221 158.831742 70.039221 L 158.831742 70.039221 L 158.831742 70.039221 Q 160.132325 70.039221 160.846579 70.838759 L 160.846579 70.838759 L 160.846579 70.838759 Q 161.560833 71.638297 161.560833 72.896237 L 161.560833 72.896237 L 161.560833 72.896237 Q 161.560833 73.258695 161.49687 73.621152 L 161.49687 73.621152 L 161.49687 73.621152 Q 161.262339 75.156266 160.228269 76.200996 L 160.228269 76.200996 L 160.228269 76.200996 Q 159.1942 77.245726 157.680407 77.245726 Z  M 162.520279 78.610271 L 164.098035 68.632033 L 162.179143 68.632033 L 161.92329 70.295073 L 161.880648 70.295073 L 161.880648 70.295073 Q 161.411586 69.378269 160.612048 68.855904 L 160.612048 68.855904 L 160.612048 68.855904 Q 159.812509 68.333539 158.725137 68.333539 L 158.725137 68.333539 L 158.725137 68.333539 Q 157.680407 68.333539 156.731622 68.759959 L 156.731622 68.759959 L 156.731622 68.759959 Q 155.782836 69.18638 155.047261 69.911294 L 155.047261 69.911294 L 155.047261 69.911294 Q 154.311686 70.636209 153.831963 71.584995 L 153.831963 71.584995 L 153.831963 71.584995 Q 153.35224 72.53378 153.202993 73.557189 L 153.202993 73.557189 L 153.202993 73.557189 Q 153.117709 74.090215 153.117709 74.62324 L 153.117709 74.62324 L 153.117709 74.62324 Q 153.117709 76.49949 154.151778 77.725449 L 154.151778 77.725449 L 154.151778 77.725449 Q 155.185848 78.951407 157.126061 78.951407 L 157.126061 78.951407 L 157.126061 78.951407 Q 158.14947 78.951407 159.108916 78.439703 L 159.108916 78.439703 L 159.108916 78.439703 Q 160.068362 77.927998 160.814597 77.053836 L 160.814597 77.053836 L 160.857239 77.053836 L 160.601387 78.610271 L 162.520279 78.610271 Z  M 173.479284 71.467729 L 173.863062 68.994491 L 173.863062 68.994491 Q 173.372679 68.674675 172.701067 68.504107 L 172.701067 68.504107 L 172.701067 68.504107 Q 172.029454 68.333539 171.325861 68.333539 L 171.325861 68.333539 L 171.325861 68.333539 Q 170.195847 68.333539 169.129796 68.738638 L 169.129796 68.738638 L 169.129796 68.738638 Q 168.063745 69.143738 167.210904 69.868652 L 167.210904 69.868652 L 167.210904 69.868652 Q 166.358063 70.593567 165.782395 71.574334 L 165.782395 71.574334 L 165.782395 71.574334 Q 165.206728 72.555101 165.014839 73.706436 L 165.014839 73.706436 L 165.014839 73.706436 Q 164.950875 74.154178 164.950875 74.537956 L 164.950875 74.537956 L 164.950875 74.537956 Q 164.950875 75.497402 165.292012 76.307601 L 165.292012 76.307601 L 165.292012 76.307601 Q 165.633148 77.1178 166.251458 77.704128 L 166.251458 77.704128 L 166.251458 77.704128 Q 166.869767 78.290456 167.711948 78.620932 L 167.711948 78.620932 L 167.711948 78.620932 Q 168.554128 78.951407 169.556216 78.951407 L 169.556216 78.951407 L 169.556216 78.951407 Q 171.070009 78.951407 172.391912 78.290456 L 172.391912 78.290456 L 172.797011 75.838538 L 172.797011 75.838538 Q 171.389824 77.160442 169.85471 77.160442 L 169.85471 77.160442 L 169.85471 77.160442 Q 168.511486 77.160442 167.711948 76.360903 L 167.711948 76.360903 L 167.711948 76.360903 Q 166.912409 75.561365 166.912409 74.282104 L 166.912409 74.282104 L 166.912409 74.282104 Q 166.912409 73.940967 166.955051 73.621152 L 166.955051 73.621152 L 166.955051 73.621152 Q 167.061657 72.938879 167.413453 72.309909 L 167.413453 72.309909 L 167.413453 72.309909 Q 167.76525 71.680939 168.298276 71.190556 L 168.298276 71.190556 L 168.298276 71.190556 Q 168.831301 70.700172 169.492253 70.412338 L 169.492253 70.412338 L 169.492253 70.412338 Q 170.153205 70.124505 170.835477 70.124505 L 170.835477 70.124505 L 170.835477 70.124505 Q 172.519838 70.124505 173.479284 71.467729 L 173.479284 71.467729 Z  M 179.278602 60.103625 L 177.35971 60.103625 L 174.417409 78.610271 L 176.336301 78.610271 L 177.061215 74.026251 L 177.061215 74.026251 Q 177.210463 73.130769 177.35971 72.501798 L 177.35971 72.501798 L 177.35971 72.501798 Q 177.508957 71.872828 177.828772 71.297161 L 177.828772 71.297161 L 177.828772 71.297161 Q 178.148588 70.721493 178.724255 70.380357 L 178.724255 70.380357 L 178.724255 70.380357 Q 179.299923 70.039221 180.174085 70.039221 L 180.174085 70.039221 L 180.174085 70.039221 Q 181.197494 70.039221 181.613253 70.45498 L 181.613253 70.45498 L 181.613253 70.45498 Q 182.029013 70.87074 182.029013 71.70226 L 182.029013 71.70226 L 182.029013 71.70226 Q 182.029013 72.171323 181.901087 72.896237 L 181.901087 72.896237 L 181.005604 78.610271 L 182.924496 78.610271 L 183.862621 72.661706 L 183.862621 72.661706 Q 183.990547 71.894149 183.990547 71.27584 L 183.990547 71.27584 L 183.990547 71.27584 Q 183.990547 69.889973 183.297614 69.111756 L 183.297614 69.111756 L 183.297614 69.111756 Q 182.604681 68.333539 181.005604 68.333539 L 181.005604 68.333539 L 181.005604 68.333539 Q 180.0888 68.333539 179.193318 68.759959 L 179.193318 68.759959 L 179.193318 68.759959 Q 178.297835 69.18638 177.743488 69.975257 L 177.743488 69.975257 L 177.700846 69.975257 L 179.278602 60.103625 Z  M 190.791953 70.913382 L 192.476314 70.081863 L 192.476314 70.081863 Q 192.220461 69.250343 191.580831 68.791941 L 191.580831 68.791941 L 191.580831 68.791941 Q 190.9412 68.333539 190.024396 68.333539 L 190.024396 68.333539 L 190.024396 68.333539 Q 188.809098 68.333539 187.817671 69.175719 L 187.817671 69.175719 L 187.817671 69.175719 Q 186.826243 70.0179 186.634354 71.233198 L 186.634354 71.233198 L 186.634354 71.233198 Q 186.591712 71.467729 186.591712 71.680939 L 186.591712 71.680939 L 186.591712 71.680939 Q 186.591712 72.405854 186.97549 72.842935 L 186.97549 72.842935 L 186.97549 72.842935 Q 187.359269 73.280016 188.148146 73.749078 L 188.148146 73.749078 L 189.875149 74.751166 L 189.875149 74.751166 Q 190.152322 74.964376 190.280249 75.156266 L 190.280249 75.156266 L 190.280249 75.156266 Q 190.408175 75.348155 190.408175 75.625328 L 190.408175 75.625328 L 190.408175 75.625328 Q 190.408175 75.646649 190.408175 75.731933 L 190.408175 75.731933 L 190.408175 75.731933 Q 190.408175 75.795896 190.408175 75.838538 L 190.408175 75.838538 L 190.408175 75.838538 Q 190.30157 76.456848 189.800526 76.851287 L 189.800526 76.851287 L 189.800526 76.851287 Q 189.299482 77.245726 188.659851 77.245726 L 188.659851 77.245726 L 188.659851 77.245726 Q 188.02022 77.245726 187.657763 76.91525 L 187.657763 76.91525 L 187.657763 76.91525 Q 187.295306 76.584774 187.060774 75.966464 L 187.060774 75.966464 L 185.29113 76.7127 L 185.29113 76.7127 Q 185.525661 77.736109 186.399823 78.343758 L 186.399823 78.343758 L 186.399823 78.343758 Q 187.273985 78.951407 188.403999 78.951407 L 188.403999 78.951407 L 188.403999 78.951407 Q 189.086271 78.951407 189.747223 78.706216 L 189.747223 78.706216 L 189.747223 78.706216 Q 190.408175 78.461024 190.962521 78.013282 L 190.962521 78.013282 L 190.962521 78.013282 Q 191.516868 77.565541 191.879325 76.957892 L 191.879325 76.957892 L 191.879325 76.957892 Q 192.241782 76.350243 192.348388 75.646649 L 192.348388 75.646649 L 192.348388 75.646649 Q 192.39103 75.390797 192.39103 75.177587 L 192.39103 75.177587 L 192.39103 75.177587 Q 192.39103 74.324746 191.879325 73.78106 L 191.879325 73.78106 L 191.879325 73.78106 Q 191.367621 73.237374 190.493459 72.810953 L 190.493459 72.810953 L 190.493459 72.810953 Q 190.493459 72.810953 190.10968 72.619064 L 190.10968 72.619064 L 190.10968 72.619064 Q 189.25684 72.213965 188.85174 71.91547 L 188.85174 71.91547 L 188.85174 71.91547 Q 188.446641 71.616976 188.446641 71.169235 L 188.446641 71.169235 L 188.446641 71.169235 Q 188.446641 71.169235 188.446641 71.105272 L 188.446641 71.105272 L 188.446641 71.105272 Q 188.446641 71.06263 188.446641 71.019988 L 188.446641 71.019988 L 188.446641 71.019988 Q 188.510604 70.614888 188.873061 70.327054 L 188.873061 70.327054 L 188.873061 70.327054 Q 189.235519 70.039221 189.661939 70.039221 L 189.661939 70.039221 L 189.661939 70.039221 Q 190.067038 70.039221 190.376193 70.284412 L 190.376193 70.284412 L 190.376193 70.284412 Q 190.685348 70.529604 190.791953 70.913382 L 190.791953 70.913382 Z  M 202.22002 71.467729 L 202.603799 68.994491 L 202.603799 68.994491 Q 202.113415 68.674675 201.441803 68.504107 L 201.441803 68.504107 L 201.441803 68.504107 Q 200.770191 68.333539 200.066597 68.333539 L 200.066597 68.333539 L 200.066597 68.333539 Q 198.936583 68.333539 197.870532 68.738638 L 197.870532 68.738638 L 197.870532 68.738638 Q 196.804481 69.143738 195.95164 69.868652 L 195.95164 69.868652 L 195.95164 69.868652 Q 195.098799 70.593567 194.523132 71.574334 L 194.523132 71.574334 L 194.523132 71.574334 Q 193.947464 72.555101 193.755575 73.706436 L 193.755575 73.706436 L 193.755575 73.706436 Q 193.691612 74.154178 193.691612 74.537956 L 193.691612 74.537956 L 193.691612 74.537956 Q 193.691612 75.497402 194.032748 76.307601 L 194.032748 76.307601 L 194.032748 76.307601 Q 194.373885 77.1178 194.992194 77.704128 L 194.992194 77.704128 L 194.992194 77.704128 Q 195.610504 78.290456 196.452684 78.620932 L 196.452684 78.620932 L 196.452684 78.620932 Q 197.294864 78.951407 198.296952 78.951407 L 198.296952 78.951407 L 198.296952 78.951407 Q 199.810745 78.951407 201.132648 78.290456 L 201.132648 78.290456 L 201.537748 75.838538 L 201.537748 75.838538 Q 200.13056 77.160442 198.595447 77.160442 L 198.595447 77.160442 L 198.595447 77.160442 Q 197.252222 77.160442 196.452684 76.360903 L 196.452684 76.360903 L 196.452684 76.360903 Q 195.653146 75.561365 195.653146 74.282104 L 195.653146 74.282104 L 195.653146 74.282104 Q 195.653146 73.940967 195.695788 73.621152 L 195.695788 73.621152 L 195.695788 73.621152 Q 195.802393 72.938879 196.15419 72.309909 L 196.15419 72.309909 L 196.15419 72.309909 Q 196.505987 71.680939 197.039012 71.190556 L 197.039012 71.190556 L 197.039012 71.190556 Q 197.572038 70.700172 198.232989 70.412338 L 198.232989 70.412338 L 198.232989 70.412338 Q 198.893941 70.124505 199.576214 70.124505 L 199.576214 70.124505 L 199.576214 70.124505 Q 201.260574 70.124505 202.22002 71.467729 L 202.22002 71.467729 Z  M 208.019338 60.103625 L 206.100446 60.103625 L 203.158145 78.610271 L 205.077037 78.610271 L 205.801952 74.026251 L 205.801952 74.026251 Q 205.951199 73.130769 206.100446 72.501798 L 206.100446 72.501798 L 206.100446 72.501798 Q 206.249693 71.872828 206.569509 71.297161 L 206.569509 71.297161 L 206.569509 71.297161 Q 206.889324 70.721493 207.464992 70.380357 L 207.464992 70.380357 L 207.464992 70.380357 Q 208.040659 70.039221 208.914821 70.039221 L 208.914821 70.039221 L 208.914821 70.039221 Q 209.93823 70.039221 210.35399 70.45498 L 210.35399 70.45498 L 210.35399 70.45498 Q 210.76975 70.87074 210.76975 71.70226 L 210.76975 71.70226 L 210.76975 71.70226 Q 210.76975 72.171323 210.641824 72.896237 L 210.641824 72.896237 L 209.746341 78.610271 L 211.665233 78.610271 L 212.603358 72.661706 L 212.603358 72.661706 Q 212.731284 71.894149 212.731284 71.27584 L 212.731284 71.27584 L 212.731284 71.27584 Q 212.731284 69.889973 212.038351 69.111756 L 212.038351 69.111756 L 212.038351 69.111756 Q 211.345417 68.333539 209.746341 68.333539 L 209.746341 68.333539 L 209.746341 68.333539 Q 208.829537 68.333539 207.934054 68.759959 L 207.934054 68.759959 L 207.934054 68.759959 Q 207.038571 69.18638 206.484225 69.975257 L 206.484225 69.975257 L 206.441583 69.975257 L 208.019338 60.103625 Z  M 218.829096 77.245726 L 218.829096 77.245726 L 218.829096 77.245726 Q 217.571156 77.245726 216.878222 76.414206 L 216.878222 76.414206 L 216.878222 76.414206 Q 216.185289 75.582686 216.185289 74.346067 L 216.185289 74.346067 L 216.185289 74.346067 Q 216.185289 73.983609 216.249252 73.621152 L 216.249252 73.621152 L 216.249252 73.621152 Q 216.355857 72.917558 216.675673 72.267267 L 216.675673 72.267267 L 216.675673 72.267267 Q 216.995488 71.616976 217.485871 71.115932 L 217.485871 71.115932 L 217.485871 71.115932 Q 217.976255 70.614888 218.615886 70.327054 L 218.615886 70.327054 L 218.615886 70.327054 Q 219.255516 70.039221 219.980431 70.039221 L 219.980431 70.039221 L 219.980431 70.039221 Q 221.281013 70.039221 221.995267 70.838759 L 221.995267 70.838759 L 221.995267 70.838759 Q 222.709522 71.638297 222.709522 72.896237 L 222.709522 72.896237 L 222.709522 72.896237 Q 222.709522 73.258695 222.645559 73.621152 L 222.645559 73.621152 L 222.645559 73.621152 Q 222.411027 75.156266 221.376958 76.200996 L 221.376958 76.200996 L 221.376958 76.200996 Q 220.342888 77.245726 218.829096 77.245726 Z  M 223.668968 78.610271 L 225.246723 68.632033 L 223.327831 68.632033 L 223.071979 70.295073 L 223.029337 70.295073 L 223.029337 70.295073 Q 222.560275 69.378269 221.760736 68.855904 L 221.760736 68.855904 L 221.760736 68.855904 Q 220.961198 68.333539 219.873826 68.333539 L 219.873826 68.333539 L 219.873826 68.333539 Q 218.829096 68.333539 217.88031 68.759959 L 217.88031 68.759959 L 217.88031 68.759959 Q 216.931525 69.18638 216.19595 69.911294 L 216.19595 69.911294 L 216.19595 69.911294 Q 215.460374 70.636209 214.980651 71.584995 L 214.980651 71.584995 L 214.980651 71.584995 Q 214.500929 72.53378 214.351681 73.557189 L 214.351681 73.557189 L 214.351681 73.557189 Q 214.266397 74.090215 214.266397 74.62324 L 214.266397 74.62324 L 214.266397 74.62324 Q 214.266397 76.49949 215.300467 77.725449 L 215.300467 77.725449 L 215.300467 77.725449 Q 216.334536 78.951407 218.274749 78.951407 L 218.274749 78.951407 L 218.274749 78.951407 Q 219.298158 78.951407 220.257604 78.439703 L 220.257604 78.439703 L 220.257604 78.439703 Q 221.21705 77.927998 221.963286 77.053836 L 221.963286 77.053836 L 222.005928 77.053836 L 221.750076 78.610271 L 223.668968 78.610271 Z  M 233.73249 62.043838 L 234.052305 60.103625 L 234.052305 60.103625 Q 233.433995 59.847772 232.730402 59.847772 L 232.730402 59.847772 L 232.730402 59.847772 Q 231.003399 59.847772 230.097255 60.913823 L 230.097255 60.913823 L 230.097255 60.913823 Q 229.191112 61.979875 228.892618 63.77084 L 228.892618 63.77084 L 228.125061 68.632033 L 227.250899 68.632033 L 226.973726 70.422999 L 227.847888 70.422999 L 226.547305 78.610271 L 228.466197 78.610271 L 229.76678 70.422999 L 232.410586 70.422999 L 232.68776 68.632033 L 230.043953 68.632033 L 230.726226 64.346508 L 230.726226 64.346508 Q 230.81151 63.834803 230.907454 63.408383 L 230.907454 63.408383 L 230.907454 63.408383 Q 231.003399 62.981963 231.195288 62.576863 L 231.195288 62.576863 L 231.195288 62.576863 Q 231.387177 62.171764 231.717653 61.905251 L 231.717653 61.905251 L 231.717653 61.905251 Q 232.048129 61.638738 232.517191 61.638738 L 232.517191 61.638738 L 232.517191 61.638738 Q 232.773044 61.638738 233.039556 61.734683 L 233.039556 61.734683 L 233.039556 61.734683 Q 233.306069 61.830627 233.647205 62.001196 L 233.647205 62.001196 L 233.73249 62.043838 Z  M 234.222873 78.610271 L 235.523455 70.422999 L 237.399705 70.422999 L 237.676878 68.632033 L 235.800629 68.632033 L 236.418938 64.81557 L 234.500046 64.81557 L 233.881737 68.632033 L 232.837007 68.632033 L 232.559833 70.422999 L 233.604563 70.422999 L 232.303981 78.610271 L 234.222873 78.610271 Z "
     fill-rule="evenodd"
     fill="rgb(0,0,0)"
     id="path2" />
  <g
     style="isolation:isolate"
     id="atomic">
    <path
       d=" M 59.98032 81.46801 C 56.890621 79.684174 53.90258 77.844208 51.022636 75.96505"
       fill="none"
       vector-effect="non-scaling-stroke"
       stroke-width="1.066051"
       stroke="rgb(0,0,0)"
       stroke-linejoin="miter"
       stroke-linecap="round"
       stroke-miterlimit="3"
       id="path4" />
    <path
       d=" M 37.113014 65.811485 C 36.759502 65.528801 36.414707 65.245255 36.072765 64.961433"
       fill="none"
       vector-effect="non-scaling-stroke"
       stroke-width="1.066051"
       stroke="rgb(0,0,0)"
       stroke-linejoin="miter"
       stroke-linecap="round"
       stroke-miterlimit="3"
       id="path6" />
    <path
       d=" M 36.072765 64.961433 C 16.092079 48.485012 5.534483 31.08139 11.225416 21.224403 C 18.895668 7.93914 53.196548 13.361497 87.77536 33.325584 C 122.354179 53.289673 144.200516 80.283928 136.530258 93.569191 C 128.860016 106.854454 94.559135 101.432098 59.98032 81.46801"
       fill="none"
       vector-effect="non-scaling-stroke"
       stroke-width="1.066051"
       stroke="rgb(0,0,0)"
       stroke-linejoin="miter"
       stroke-linecap="square"
       stroke-miterlimit="3"
       id="path8" />
    <path
       d=" M 64.054342 56.754118 C 64.054342 54.172534 66.15026 52.076615 68.731845 52.076615 C 71.313429 52.076615 73.409348 54.172534 73.409348 56.754118 C 73.409348 59.335702 71.313429 61.431621 68.731845 61.431621 C 66.15026 61.431621 64.054342 59.335702 64.054342 56.754118 Z "
       fill="rgb(255,0,0)"
       id="path10" />
    <path
       d=" M 69.327498 62.072486 C 69.327498 59.490901 71.423417 57.394983 74.005001 57.394983 C 76.586585 57.394983 78.682504 59.490901 78.682504 62.072486 C 78.682504 64.65407 76.586585 66.749989 74.005001 66.749989 C 71.423417 66.749989 69.327498 64.65407 69.327498 62.072486 Z "
       fill="rgb(255,0,0)"
       id="path12" />
    <path
       d=" M 64.054342 53.193089 C 64.054342 50.611505 66.15026 48.515586 68.731845 48.515586 C 71.313429 48.515586 73.409348 50.611505 73.409348 53.193089 C 73.409348 55.774674 71.313429 57.870593 68.731845 57.870593 C 66.15026 57.870593 64.054342 55.774674 64.054342 53.193089 Z "
       fill="rgb(0,0,0)"
       id="path14" />
    <path
       d=" M 37.851768 70.813236 C 37.851768 67.25867 40.737625 64.372814 44.29219 64.372814 C 47.846756 64.372814 50.732612 67.25867 50.732612 70.813236 C 50.732612 74.367801 47.846756 77.253658 44.29219 77.253658 C 40.737625 77.253658 37.851768 74.367801 37.851768 70.813236 Z "
       fill="rgb(0,0,0)"
       id="path16" />
    <path
       d=" M 72.714269 53.956891 C 72.714269 51.375307 74.810188 49.279388 77.391772 49.279388 C 79.973357 49.279388 82.069275 51.375307 82.069275 53.956891 C 82.069275 56.538475 79.973357 58.634394 77.391772 58.634394 C 74.810188 58.634394 72.714269 56.538475 72.714269 53.956891 Z "
       fill="rgb(0,0,0)"
       id="path18" />
    <path
       d=" M 71.424079 59.489279 C 71.424079 56.907694 73.519998 54.811776 76.101582 54.811776 C 78.683167 54.811776 80.779085 56.907694 80.779085 59.489279 C 80.779085 62.070863 78.683167 64.166782 76.101582 64.166782 C 73.519998 64.166782 71.424079 62.070863 71.424079 59.489279 Z "
       fill="rgb(0,0,0)"
       id="path20" />
    <path
       d=" M 69.327498 53.193089 C 69.327498 50.611505 71.423417 48.515586 74.005001 48.515586 C 76.586585 48.515586 78.682504 50.611505 78.682504 53.193089 C 78.682504 55.774674 76.586585 57.870593 74.005001 57.870593 C 71.423417 57.870593 69.327498 55.774674 69.327498 53.193089 Z "
       fill="rgb(255,0,0)"
       id="path22" />
  </g>
  <g
     style="isolation:isolate"
     id="blocker" />
  <path
     d="M 222.45312 9.8242188 L 204.82031 38.402344 L 210.45312 38.402344 L 220.59961 21.396484 L 225.43164 38.529297 L 220.54492 38.529297 L 220.54492 43.361328 L 226.83594 43.361328 L 229.98047 53.978516 L 235.6543 53.978516 L 222.45312 9.8242188 z M 151.89844 11.621094 L 148.49219 33.197266 L 153.80859 33.197266 L 153.80859 33.193359 L 168.52539 33.193359 L 169.25586 28.361328 L 154.53906 28.361328 L 156.44922 16.453125 L 171.67188 16.453125 L 172.40234 11.621094 L 151.89844 11.621094 z M 178.58203 11.621094 L 177.83594 16.34375 L 183.13086 16.34375 L 183.13086 16.339844 L 184.53516 16.339844 C 185.92081 16.339844 187.21372 16.414654 188.41211 16.564453 C 189.6105 16.714252 190.7068 16.996256 191.69922 17.408203 C 192.69164 17.820152 193.48674 18.429208 194.08594 19.234375 C 194.68513 20.039546 194.98438 21.078269 194.98438 22.351562 C 194.98438 22.763513 194.94795 23.231565 194.87305 23.755859 C 194.64836 25.366201 194.1333 26.68693 193.32812 27.716797 C 192.52295 28.746668 191.54847 29.533152 190.40625 30.076172 C 189.26403 30.619195 188.0373 30.993247 186.72656 31.199219 C 185.41581 31.405194 183.97523 31.507813 182.40234 31.507812 L 180.7168 31.507812 L 182.29883 21.564453 L 177.01172 21.564453 L 171.89648 53.978516 L 177.17773 53.978516 L 179.98633 36.226562 L 183.01953 36.226562 C 185.11671 36.226562 187.08292 35.99156 188.91797 35.523438 C 190.753 35.055316 192.43722 34.326405 193.97266 33.333984 C 195.5081 32.341568 196.78182 31.048647 197.79297 29.457031 C 198.80411 27.865415 199.47936 26.001824 199.81641 23.867188 C 199.96621 22.893492 200.04102 21.976581 200.04102 21.115234 C 200.04102 17.932005 198.85072 15.553359 196.47266 13.980469 C 194.0946 12.407577 190.15356 11.621094 184.64844 11.621094 L 178.58203 11.621094 z M 147.73242 38.017578 L 145.21289 53.978516 L 150.49414 53.978516 L 153.03906 38.017578 L 147.73242 38.017578 z M 201.6582 43.525391 L 195.20898 53.978516 L 200.88281 53.978516 L 207.29688 43.525391 L 201.6582 43.525391 z "
     id="path26" />
</svg>
