<?xml version="1.0" encoding="UTF-8" standalone="no"?>
<!DOCTYPE svg PUBLIC "-//W3C//DTD SVG 1.1//EN" "http://www.w3.org/Graphics/SVG/1.1/DTD/svg11.dtd">
<svg width="100%" height="100%" viewBox="0 0 2263 1050" version="1.1" xmlns="http://www.w3.org/2000/svg" xmlns:xlink="http://www.w3.org/1999/xlink" xml:space="preserve" xmlns:serif="http://www.serif.com/" style="fill-rule:evenodd;clip-rule:evenodd;stroke-linejoin:round;stroke-miterlimit:1.41421;">
    <g transform="matrix(4.16667,0,0,4.16667,0,0)">
        <path d="M487.176,79.43C518.266,79.43 542.977,104.926 542.977,135.205C542.977,166.01 517.998,192.306 487.176,192.306L388.258,192.306L388.258,153.262L482.926,153.262C493.287,153.262 501.791,145.826 501.791,135.469C501.791,125.111 493.287,117.67 482.926,117.67L433.693,117.67C403.139,117.67 378.958,91.646 378.958,61.37C378.958,31.355 403.139,6.393 433.693,6.393L522.841,6.393L522.841,44.37L436.622,44.37C426.787,44.37 419.082,52.072 419.082,61.897C419.082,71.727 426.787,79.43 436.622,79.43L487.176,79.43Z" style="fill:rgb(35,31,32);fill-rule:nonzero;"/>
        <path d="M282.113,36.348C282.309,36.264 286.884,33.833 294.622,33.876C307.999,33.946 318.838,41.512 318.838,50.931C318.838,61.313 307.533,69.969 291.382,77.576C278.863,69.573 271.633,60.977 270.646,53.175C270.506,52.44 270.411,51.694 270.411,50.931C270.411,44.742 275.109,39.34 282.113,36.348ZM334.436,111.923L334.151,117.69C333.255,136.104 327.832,142.996 326.047,145.263C315.108,159.141 303.943,164.538 286.228,164.547C260.604,164.56 253.584,153.233 253.091,146.406C251.978,131.001 280.688,119.261 298.379,111.785C366.405,83.041 363.464,49.219 353.361,30.283C344.018,12.768 320.807,0.137 293.368,0.137C291.373,0.137 289.403,0.215 287.455,0.341C283.381,0.7 278.397,1.356 273.071,2.536C250.668,7.968 229.253,24.811 229.253,49.801C229.253,65.231 242.002,84.051 254.6,94.925C227.628,110.1 213.285,126.112 213.285,148.396C213.285,166.273 229.328,199.573 287.826,199.573C305.103,199.573 320.659,195.182 334.144,186.513L334.144,192.466L371.916,192.466L371.916,111.923L334.436,111.923Z" style="fill:rgb(35,31,32);fill-rule:nonzero;"/>
        <path d="M164.527,192.306L154.25,87.657L153.238,87.552L120.498,192.306L85.029,192.306L52.301,87.258L51.291,87.362L41.23,192.306L0,192.306L20.187,5.923L68.179,5.923L102.901,123.706L105.149,115.68L137.345,5.923L185.288,5.923L205.76,192.306L164.527,192.306Z" style="fill:rgb(35,31,32);fill-rule:nonzero;"/>
        <path d="M10.988,235.235C9.285,234.625 8.01,234.067 7.202,233.574C6.429,233.102 5.881,232.59 5.572,232.053C5.262,231.518 5.106,230.803 5.106,229.928C5.106,228.775 5.516,227.9 6.357,227.256C7.231,226.589 8.482,226.252 10.077,226.252C12.173,226.252 14.366,226.727 16.594,227.663L17.079,227.867L18.42,224.113L17.995,223.927C15.614,222.887 12.975,222.361 10.151,222.361C7.396,222.361 5.139,223.037 3.443,224.374C1.71,225.736 0.833,227.593 0.833,229.892C0.833,232.053 1.435,233.836 2.623,235.192C3.788,236.524 5.726,237.681 8.384,238.629C10.202,239.279 11.569,239.864 12.449,240.366C13.281,240.843 13.877,241.361 14.218,241.904C14.555,242.439 14.725,243.149 14.725,244.012C14.725,245.323 14.254,246.311 13.287,247.035C12.284,247.784 10.743,248.164 8.707,248.164C7.418,248.164 6.106,248.029 4.803,247.758C3.487,247.484 2.261,247.109 1.161,246.643L0.47,246.349L0.47,250.537L0.752,250.673C2.589,251.554 5.226,252 8.59,252C11.74,252 14.278,251.273 16.135,249.839C18.035,248.371 18.999,246.309 18.999,243.709C18.999,241.683 18.4,240.005 17.219,238.722C16.055,237.456 14.016,236.315 10.988,235.235Z" style="fill:rgb(35,31,32);fill-rule:nonzero;"/>
        <path d="M37.615,248.164C34.679,248.164 32.514,247.268 30.994,245.42C29.47,243.575 28.697,240.792 28.697,237.152C28.697,233.567 29.47,230.811 30.994,228.96C32.496,227.139 34.736,226.216 37.652,226.216C40.596,226.216 42.748,227.106 44.231,228.936C45.721,230.775 46.476,233.539 46.476,237.152C46.476,240.804 45.718,243.59 44.222,245.434C42.754,247.246 40.532,248.164 37.615,248.164ZM37.652,222.322C33.41,222.322 30.08,223.637 27.755,226.233C25.444,228.813 24.272,232.474 24.272,237.115C24.272,241.791 25.44,245.477 27.743,248.069C30.059,250.677 33.381,252 37.615,252C41.757,252 45.047,250.656 47.393,248.003C49.72,245.366 50.9,241.717 50.9,237.152C50.9,232.574 49.723,228.922 47.402,226.302C45.065,223.661 41.784,222.322 37.652,222.322Z" style="fill:rgb(35,31,32);fill-rule:nonzero;"/>
        <path d="M56.982,251.618L61.214,251.618L61.214,239.705L72.765,239.705L72.765,235.834L61.214,235.834L61.214,226.636L73.509,226.636L73.509,222.762L56.982,222.762L56.982,251.618Z" style="fill:rgb(35,31,32);fill-rule:nonzero;"/>
        <path d="M80.275,226.636L89.097,226.636L89.097,251.618L93.335,251.618L93.335,226.636L102.159,226.636L102.159,222.762L80.275,222.762L80.275,226.636Z" style="fill:rgb(35,31,32);fill-rule:nonzero;"/>
        <path d="M135.534,240.307C135.165,241.725 134.858,243.036 134.615,244.237C134.307,242.796 133.959,241.447 133.576,240.207L128.228,222.762L126.426,222.762L126.409,222.415L126.352,222.762L124.056,222.762L118.957,240.057C118.553,241.394 118.206,242.759 117.918,244.138C117.681,242.946 117.394,241.678 117.058,240.345L112.561,222.762L108.097,222.762L115.773,251.618L119.73,251.618L125.286,232.723C125.634,231.584 125.93,230.489 126.172,229.447C126.174,229.453 126.176,229.46 126.178,229.467C126.516,230.758 126.811,231.788 127.076,232.607L132.807,251.618L136.759,251.618L144.478,222.762L140.012,222.762L135.534,240.307Z" style="fill:rgb(35,31,32);fill-rule:nonzero;"/>
        <path d="M162.973,238.847L155.396,238.847L158.42,230.878C158.71,230.067 158.964,229.287 159.183,228.543C159.453,229.417 159.723,230.2 159.985,230.885L162.973,238.847ZM160.902,222.644L157.5,222.644L146.093,251.618L150.441,251.618L153.874,242.757L164.361,242.757L167.831,251.618L172.251,251.618L161.027,222.96L160.902,222.644Z" style="fill:rgb(35,31,32);fill-rule:nonzero;"/>
        <path d="M183.214,226.596L186.927,226.596C189.209,226.596 190.869,226.973 191.861,227.718C192.821,228.435 193.287,229.607 193.287,231.301C193.287,232.983 192.822,234.196 191.863,235.011C190.896,235.836 189.312,236.254 187.156,236.254L183.214,236.254L183.214,226.596ZM197.64,231.131C197.64,228.353 196.753,226.236 195.004,224.834C193.285,223.46 190.632,222.762 187.118,222.762L178.977,222.762L178.977,251.618L183.214,251.618L183.214,240.032L188.243,240.032L194.989,251.618L199.987,251.618L192.273,238.856C195.835,237.437 197.64,234.839 197.64,231.131Z" style="fill:rgb(35,31,32);fill-rule:nonzero;"/>
        <path d="M207.432,251.618L223.957,251.618L223.957,247.727L211.665,247.727L211.665,238.47L223.216,238.47L223.216,234.616L211.665,234.616L211.665,226.636L223.957,226.636L223.957,222.762L207.432,222.762L207.432,251.618Z" style="fill:rgb(35,31,32);fill-rule:nonzero;"/>
        <path d="M244.753,251.618L261.282,251.618L261.282,247.727L248.989,247.727L248.989,238.47L260.539,238.47L260.539,234.616L248.989,234.616L248.989,226.636L261.282,226.636L261.282,222.762L244.753,222.762L244.753,251.618Z" style="fill:rgb(35,31,32);fill-rule:nonzero;"/>
        <path d="M289.396,239.233C289.37,240.054 289.401,241.373 289.493,243.265C289.524,243.931 289.551,244.499 289.575,244.971L275.232,222.987L275.084,222.762L270.662,222.762L270.662,251.618L274.648,251.618L274.648,235.284C274.648,233.454 274.582,231.463 274.453,229.346L288.812,251.392L288.958,251.618L293.42,251.618L293.42,222.762L289.396,222.762L289.396,239.233Z" style="fill:rgb(35,31,32);fill-rule:nonzero;"/>
        <path d="M315.329,239.915L321.562,239.915L321.562,247.599C319.884,247.974 318.148,248.164 316.397,248.164C312.999,248.164 310.399,247.238 308.67,245.406C306.931,243.567 306.051,240.803 306.051,237.191C306.051,233.758 306.966,231.044 308.774,229.126C310.574,227.22 313.126,226.252 316.358,226.252C318.604,226.252 320.982,226.776 323.427,227.813L323.879,228.004L325.535,224.239L325.073,224.041C322.457,222.926 319.596,222.361 316.566,222.361C313.568,222.361 310.907,222.96 308.658,224.144C306.394,225.333 304.635,227.082 303.429,229.341C302.232,231.582 301.626,234.223 301.626,237.191C301.626,241.823 302.856,245.486 305.284,248.078C307.722,250.68 311.159,252 315.499,252C317.521,252 319.331,251.875 320.877,251.632C322.408,251.392 323.946,251.027 325.451,250.548L325.796,250.437L325.796,236.028L315.329,236.028L315.329,239.915Z" style="fill:rgb(35,31,32);fill-rule:nonzero;"/>
        <rect x="336.268" y="222.762" width="4.234" height="28.856" style="fill:rgb(35,31,32);fill-rule:nonzero;"/>
        <path d="M369.851,239.234C369.825,240.054 369.856,241.373 369.947,243.266C369.979,243.932 370.007,244.501 370.03,244.973L355.69,222.987L355.542,222.762L351.116,222.762L351.116,251.618L355.104,251.618L355.104,235.284C355.104,233.466 355.037,231.474 354.909,229.345L369.262,251.392L369.408,251.618L373.875,251.618L373.875,222.762L369.851,222.762L369.851,239.234Z" style="fill:rgb(35,31,32);fill-rule:nonzero;"/>
        <path d="M383.973,251.618L400.497,251.618L400.497,247.727L388.204,247.727L388.204,238.47L399.755,238.47L399.755,234.616L388.204,234.616L388.204,226.636L400.497,226.636L400.497,222.762L383.973,222.762L383.973,251.618Z" style="fill:rgb(35,31,32);fill-rule:nonzero;"/>
        <path d="M410.411,251.618L426.938,251.618L426.938,247.727L414.646,247.727L414.646,238.47L426.196,238.47L426.196,234.616L414.646,234.616L414.646,226.636L426.938,226.636L426.938,222.762L410.411,222.762L410.411,251.618Z" style="fill:rgb(35,31,32);fill-rule:nonzero;"/>
        <path d="M440.552,226.596L444.266,226.596C446.547,226.596 448.206,226.973 449.199,227.719C450.162,228.436 450.631,229.608 450.631,231.301C450.631,232.981 450.164,234.194 449.205,235.011C448.237,235.836 446.651,236.254 444.495,236.254L440.552,236.254L440.552,226.596ZM454.981,231.131C454.981,228.353 454.095,226.236 452.344,224.834C450.627,223.46 447.975,222.762 444.458,222.762L436.317,222.762L436.317,251.618L440.552,251.618L440.552,240.032L445.581,240.032L452.328,251.618L457.325,251.618L449.617,238.856C453.177,237.436 454.981,234.838 454.981,231.131Z" style="fill:rgb(35,31,32);fill-rule:nonzero;"/>
        <rect x="465.33" y="222.762" width="4.234" height="28.856" style="fill:rgb(35,31,32);fill-rule:nonzero;"/>
        <path d="M498.383,239.233C498.354,240.049 498.386,241.368 498.476,243.267C498.507,243.933 498.534,244.501 498.559,244.972L484.22,222.987L484.072,222.762L479.646,222.762L479.646,251.618L483.632,251.618L483.632,235.284C483.632,233.461 483.567,231.47 483.438,229.349L497.794,251.392L497.94,251.618L502.406,251.618L502.406,222.762L498.383,222.762L498.383,239.233Z" style="fill:rgb(35,31,32);fill-rule:nonzero;"/>
        <path d="M524.313,236.028L524.313,239.915L530.547,239.915L530.547,247.599C528.868,247.974 527.134,248.164 525.385,248.164C521.985,248.164 519.386,247.238 517.656,245.407C515.918,243.565 515.034,240.8 515.034,237.191C515.034,233.757 515.952,231.044 517.762,229.126C519.56,227.22 522.111,226.252 525.346,226.252C527.589,226.252 529.968,226.776 532.412,227.813L532.863,228.004L534.521,224.239L534.058,224.041C531.444,222.926 528.583,222.361 525.555,222.361C522.555,222.361 519.893,222.96 517.646,224.144C515.38,225.332 513.62,227.081 512.413,229.341C511.219,231.581 510.612,234.223 510.612,237.191C510.612,241.825 511.844,245.488 514.271,248.078C516.709,250.68 520.146,252 524.488,252C526.508,252 528.315,251.875 529.862,251.632C531.393,251.392 532.932,251.028 534.435,250.548L534.78,250.437L534.78,236.028L524.313,236.028Z" style="fill:rgb(35,31,32);fill-rule:nonzero;"/>
    </g>
</svg>
