<svg xmlns="http://www.w3.org/2000/svg" xmlns:xlink="http://www.w3.org/1999/xlink" width="195.8984375" height="17.875"><path d="M6.47 12.98C6.51 13.37 6.60 13.71 6.75 14L8.22 14C8.04 13.68 7.92 13.35 7.86 13.00C7.80 12.66 7.77 11.83 7.77 10.52L7.77 8.65C7.77 8.02 7.75 7.59 7.70 7.35C7.62 6.97 7.47 6.65 7.27 6.39C7.06 6.14 6.73 5.93 6.29 5.77C5.85 5.60 5.27 5.52 4.56 5.52C3.85 5.52 3.22 5.61 2.68 5.81C2.14 6.00 1.72 6.28 1.44 6.64C1.15 7.01 0.95 7.48 0.82 8.07L2.20 8.26C2.35 7.67 2.58 7.26 2.89 7.03C3.21 6.80 3.70 6.68 4.36 6.68C5.07 6.68 5.60 6.84 5.96 7.16C6.23 7.39 6.36 7.79 6.36 8.37C6.36 8.42 6.36 8.54 6.35 8.73C5.82 8.92 4.98 9.08 3.84 9.22C3.29 9.29 2.87 9.36 2.59 9.43C2.22 9.53 1.88 9.69 1.58 9.89C1.28 10.09 1.04 10.36 0.86 10.70C0.67 11.04 0.58 11.41 0.58 11.81C0.58 12.51 0.82 13.07 1.31 13.52C1.80 13.96 2.50 14.19 3.41 14.19C3.97 14.19 4.48 14.10 4.96 13.91C5.45 13.73 5.95 13.42 6.47 12.98ZM6.35 9.84L6.35 10.35C6.35 10.97 6.28 11.44 6.13 11.76C5.93 12.17 5.62 12.49 5.20 12.73C4.77 12.97 4.29 13.09 3.75 13.09C3.20 13.09 2.79 12.96 2.50 12.71C2.22 12.46 2.08 12.15 2.08 11.77C2.08 11.53 2.14 11.31 2.27 11.11C2.40 10.90 2.59 10.75 2.83 10.65C3.07 10.54 3.48 10.45 4.05 10.37C5.08 10.22 5.84 10.04 6.35 9.84ZM9.95 14L11.36 14L11.36 9.47C11.36 8.41 11.58 7.68 12.01 7.30C12.45 6.92 12.96 6.73 13.56 6.73C13.94 6.73 14.26 6.82 14.54 6.99C14.82 7.16 15.02 7.38 15.13 7.67C15.23 7.95 15.29 8.38 15.29 8.95L15.29 14L16.70 14L16.70 8.90C16.70 8.25 16.67 7.79 16.62 7.53C16.53 7.13 16.39 6.78 16.18 6.49C15.97 6.20 15.66 5.96 15.24 5.79C14.82 5.61 14.36 5.52 13.86 5.52C12.71 5.52 11.83 5.97 11.22 6.88L11.22 5.70L9.95 5.70ZM24.23 14L25.54 14L25.54 2.55L24.14 2.55L24.14 6.66C23.90 6.32 23.58 6.04 23.19 5.83C22.80 5.62 22.35 5.52 21.85 5.52C21.17 5.52 20.55 5.70 20 6.05C19.45 6.41 19.03 6.93 18.76 7.61C18.48 8.28 18.34 9.03 18.34 9.86C18.34 10.71 18.50 11.46 18.80 12.11C19.11 12.77 19.54 13.28 20.09 13.64C20.64 14.01 21.25 14.19 21.91 14.19C22.93 14.19 23.71 13.78 24.23 12.95ZM19.79 9.86C19.79 8.76 20.00 7.96 20.42 7.45C20.84 6.93 21.36 6.68 21.98 6.68C22.63 6.68 23.16 6.95 23.60 7.48C24.04 8.01 24.26 8.84 24.26 9.98C24.26 11.01 24.04 11.77 23.61 12.28C23.18 12.78 22.66 13.03 22.05 13.03C21.44 13.03 20.91 12.77 20.46 12.24C20.01 11.72 19.79 10.92 19.79 9.86ZM27.73 14L29.14 14L29.14 9.66C29.14 9.06 29.22 8.52 29.38 8.02C29.48 7.69 29.65 7.43 29.90 7.25C30.14 7.06 30.42 6.97 30.73 6.97C31.07 6.97 31.41 7.07 31.76 7.27L32.24 5.97C31.75 5.67 31.27 5.52 30.80 5.52C30.47 5.52 30.17 5.61 29.89 5.80C29.62 5.98 29.32 6.37 29 6.96L29 5.70L27.73 5.70ZM38.76 11.33C38.54 11.92 38.26 12.35 37.89 12.63C37.53 12.90 37.09 13.03 36.57 13.03C35.88 13.03 35.30 12.79 34.84 12.30C34.37 11.82 34.11 11.12 34.06 10.21L40.25 10.21C40.26 10.04 40.26 9.92 40.26 9.84C40.26 8.47 39.91 7.40 39.20 6.65C38.50 5.89 37.59 5.52 36.48 5.52C35.34 5.52 34.41 5.90 33.69 6.67C32.97 7.44 32.61 8.53 32.61 9.92C32.61 11.27 32.96 12.32 33.68 13.07C34.39 13.81 35.35 14.19 36.56 14.19C37.53 14.19 38.32 13.95 38.94 13.48C39.56 13.02 39.98 12.36 40.21 11.51ZM34.14 9.05C34.19 8.33 34.43 7.75 34.87 7.32C35.31 6.89 35.85 6.67 36.50 6.67C37.21 6.67 37.79 6.94 38.24 7.48C38.53 7.83 38.71 8.36 38.77 9.05ZM47.39 12.98C47.43 13.37 47.53 13.71 47.67 14L49.14 14C48.96 13.68 48.85 13.35 48.79 13.00C48.73 12.66 48.70 11.83 48.70 10.52L48.70 8.65C48.70 8.02 48.67 7.59 48.63 7.35C48.54 6.97 48.40 6.65 48.19 6.39C47.98 6.14 47.65 5.93 47.21 5.77C46.77 5.60 46.19 5.52 45.48 5.52C44.77 5.52 44.14 5.61 43.60 5.81C43.06 6.00 42.65 6.28 42.36 6.64C42.07 7.01 41.87 7.48 41.74 8.07L43.12 8.26C43.27 7.67 43.50 7.26 43.82 7.03C44.13 6.80 44.62 6.68 45.28 6.68C45.99 6.68 46.52 6.84 46.88 7.16C47.15 7.39 47.28 7.79 47.28 8.37C47.28 8.42 47.28 8.54 47.27 8.73C46.74 8.92 45.90 9.08 44.77 9.22C44.21 9.29 43.79 9.36 43.52 9.43C43.14 9.53 42.80 9.69 42.50 9.89C42.20 10.09 41.96 10.36 41.78 10.70C41.59 11.04 41.50 11.41 41.50 11.81C41.50 12.51 41.74 13.07 42.23 13.52C42.72 13.96 43.42 14.19 44.34 14.19C44.89 14.19 45.40 14.10 45.89 13.91C46.37 13.73 46.87 13.42 47.39 12.98ZM47.27 9.84L47.27 10.35C47.27 10.97 47.20 11.44 47.05 11.76C46.85 12.17 46.54 12.49 46.12 12.73C45.70 12.97 45.21 13.09 44.67 13.09C44.13 13.09 43.71 12.96 43.43 12.71C43.14 12.46 43 12.15 43 11.77C43 11.53 43.07 11.31 43.20 11.11C43.33 10.90 43.51 10.75 43.75 10.65C43.99 10.54 44.40 10.45 44.98 10.37C46.00 10.22 46.76 10.04 47.27 9.84ZM50.31 11.52C50.47 12.40 50.83 13.07 51.39 13.52C51.96 13.96 52.78 14.19 53.86 14.19C54.51 14.19 55.09 14.07 55.61 13.85C56.13 13.62 56.52 13.30 56.79 12.89C57.07 12.47 57.20 12.03 57.20 11.56C57.20 11.08 57.09 10.68 56.87 10.36C56.64 10.04 56.33 9.79 55.94 9.62C55.55 9.45 54.85 9.23 53.86 8.97C53.17 8.78 52.76 8.66 52.62 8.61C52.37 8.51 52.19 8.39 52.08 8.23C51.96 8.09 51.91 7.92 51.91 7.74C51.91 7.46 52.04 7.21 52.32 6.99C52.60 6.78 53.06 6.67 53.70 6.67C54.25 6.67 54.67 6.79 54.97 7.03C55.27 7.27 55.45 7.60 55.52 8.03L56.89 7.84C56.80 7.31 56.64 6.88 56.41 6.56C56.17 6.24 55.81 5.98 55.32 5.80C54.82 5.61 54.25 5.52 53.60 5.52C53.17 5.52 52.76 5.57 52.39 5.68C52.01 5.80 51.71 5.93 51.49 6.09C51.20 6.30 50.97 6.56 50.80 6.88C50.63 7.19 50.55 7.54 50.55 7.91C50.55 8.31 50.65 8.68 50.86 9.02C51.06 9.36 51.36 9.62 51.76 9.81C52.16 10.00 52.88 10.22 53.91 10.48C54.67 10.68 55.15 10.84 55.34 10.96C55.62 11.14 55.76 11.39 55.76 11.71C55.76 12.07 55.60 12.37 55.29 12.64C54.98 12.90 54.50 13.03 53.85 13.03C53.21 13.03 52.71 12.88 52.36 12.59C52.00 12.29 51.78 11.86 51.70 11.30ZM59.27 14L60.88 14L60.88 12.40L59.27 12.40ZM63.06 14.69C63.04 15.58 63.34 16.25 63.95 16.70C64.55 17.14 65.35 17.37 66.34 17.37C67.18 17.37 67.88 17.21 68.45 16.90C69.02 16.59 69.44 16.16 69.70 15.62C69.96 15.08 70.09 14.17 70.09 12.88L70.09 5.70L68.80 5.70L68.80 6.70C68.16 5.91 67.35 5.52 66.38 5.52C65.64 5.52 65.00 5.70 64.46 6.06C63.91 6.43 63.50 6.94 63.21 7.61C62.92 8.28 62.78 9.01 62.78 9.80C62.78 10.96 63.09 11.94 63.72 12.77C64.34 13.59 65.23 14 66.37 14C67.28 14 68.05 13.64 68.66 12.91C68.67 13.83 68.64 14.43 68.56 14.72C68.44 15.19 68.20 15.55 67.84 15.81C67.49 16.07 66.99 16.20 66.34 16.20C65.73 16.20 65.26 16.07 64.91 15.81C64.65 15.62 64.49 15.31 64.43 14.89ZM64.23 9.70C64.23 8.70 64.45 7.95 64.88 7.44C65.32 6.93 65.85 6.68 66.48 6.68C67.11 6.68 67.65 6.94 68.11 7.45C68.56 7.97 68.78 8.73 68.78 9.75C68.78 10.81 68.56 11.59 68.13 12.09C67.69 12.59 67.15 12.84 66.50 12.84C65.85 12.84 65.31 12.59 64.88 12.09C64.44 11.59 64.23 10.79 64.23 9.70ZM71.66 11.52C71.81 12.40 72.17 13.07 72.74 13.52C73.30 13.96 74.13 14.19 75.20 14.19C75.85 14.19 76.44 14.07 76.95 13.85C77.47 13.62 77.86 13.30 78.14 12.89C78.41 12.47 78.55 12.03 78.55 11.56C78.55 11.08 78.43 10.68 78.21 10.36C77.99 10.04 77.68 9.79 77.29 9.62C76.89 9.45 76.20 9.23 75.20 8.97C74.52 8.78 74.10 8.66 73.96 8.61C73.72 8.51 73.54 8.39 73.42 8.23C73.31 8.09 73.25 7.92 73.25 7.74C73.25 7.46 73.39 7.21 73.66 6.99C73.94 6.78 74.40 6.67 75.05 6.67C75.59 6.67 76.02 6.79 76.32 7.03C76.62 7.27 76.80 7.60 76.86 8.03L78.23 7.84C78.15 7.31 77.98 6.88 77.75 6.56C77.52 6.24 77.15 5.98 76.66 5.80C76.17 5.61 75.60 5.52 74.95 5.52C74.51 5.52 74.11 5.57 73.73 5.68C73.35 5.80 73.05 5.93 72.84 6.09C72.54 6.30 72.31 6.56 72.14 6.88C71.98 7.19 71.89 7.54 71.89 7.91C71.89 8.31 71.99 8.68 72.20 9.02C72.40 9.36 72.71 9.62 73.11 9.81C73.50 10.00 74.22 10.22 75.25 10.48C76.02 10.68 76.49 10.84 76.69 10.96C76.96 11.14 77.10 11.39 77.10 11.71C77.10 12.07 76.95 12.37 76.63 12.64C76.32 12.90 75.84 13.03 75.20 13.03C74.55 13.03 74.06 12.88 73.70 12.59C73.34 12.29 73.13 11.86 73.05 11.30ZM80.22 17.18L81.63 17.18L81.63 13.14C81.86 13.44 82.17 13.69 82.54 13.89C82.92 14.09 83.34 14.19 83.80 14.19C84.45 14.19 85.06 14.01 85.64 13.64C86.22 13.28 86.66 12.76 86.96 12.08C87.27 11.40 87.42 10.64 87.42 9.79C87.42 9.00 87.28 8.27 87.01 7.61C86.73 6.94 86.32 6.43 85.78 6.06C85.24 5.70 84.61 5.52 83.91 5.52C83.36 5.52 82.90 5.62 82.52 5.83C82.14 6.04 81.80 6.36 81.50 6.78L81.50 5.70L80.22 5.70ZM81.49 9.90C81.49 8.83 81.72 8.02 82.18 7.46C82.64 6.90 83.17 6.62 83.77 6.62C84.38 6.62 84.90 6.88 85.33 7.41C85.77 7.93 85.98 8.72 85.98 9.78C85.98 10.89 85.76 11.71 85.32 12.24C84.87 12.77 84.34 13.03 83.71 13.03C83.10 13.03 82.57 12.78 82.14 12.27C81.71 11.76 81.49 10.97 81.49 9.90ZM88.59 9.85C88.59 11.25 88.95 12.33 89.67 13.07C90.38 13.82 91.32 14.19 92.48 14.19C93.21 14.19 93.88 14.02 94.49 13.68C95.10 13.34 95.57 12.87 95.89 12.25C96.21 11.64 96.37 10.80 96.37 9.73C96.37 8.42 96.01 7.38 95.28 6.64C94.56 5.89 93.63 5.52 92.48 5.52C91.46 5.52 90.59 5.82 89.88 6.44C89.02 7.18 88.59 8.32 88.59 9.85ZM90.04 9.85C90.04 8.79 90.27 7.99 90.73 7.47C91.20 6.94 91.78 6.68 92.48 6.68C93.18 6.68 93.76 6.94 94.22 7.47C94.69 8.00 94.92 8.78 94.92 9.80C94.92 10.89 94.69 11.70 94.23 12.23C93.76 12.77 93.18 13.03 92.48 13.03C91.78 13.03 91.20 12.77 90.73 12.24C90.27 11.71 90.04 10.91 90.04 9.85ZM98.02 14L99.42 14L99.42 9.47C99.42 8.41 99.64 7.68 100.07 7.30C100.51 6.92 101.03 6.73 101.63 6.73C102 6.73 102.33 6.82 102.61 6.99C102.88 7.16 103.08 7.38 103.19 7.67C103.30 7.95 103.35 8.38 103.35 8.95L103.35 14L104.76 14L104.76 8.90C104.76 8.25 104.73 7.79 104.68 7.53C104.60 7.13 104.45 6.78 104.24 6.49C104.03 6.20 103.72 5.96 103.30 5.79C102.88 5.61 102.42 5.52 101.92 5.52C100.77 5.52 99.89 5.97 99.28 6.88L99.28 5.70L98.02 5.70ZM112.59 11.33C112.38 11.92 112.09 12.35 111.73 12.63C111.36 12.90 110.92 13.03 110.41 13.03C109.71 13.03 109.14 12.79 108.67 12.30C108.21 11.82 107.95 11.12 107.90 10.21L114.09 10.21C114.09 10.04 114.09 9.92 114.09 9.84C114.09 8.47 113.74 7.40 113.04 6.65C112.34 5.89 111.43 5.52 110.32 5.52C109.17 5.52 108.24 5.90 107.52 6.67C106.80 7.44 106.45 8.53 106.45 9.92C106.45 11.27 106.80 12.32 107.51 13.07C108.22 13.81 109.18 14.19 110.40 14.19C111.36 14.19 112.15 13.95 112.77 13.48C113.39 13.02 113.82 12.36 114.05 11.51ZM107.98 9.05C108.02 8.33 108.27 7.75 108.71 7.32C109.15 6.89 109.69 6.67 110.34 6.67C111.05 6.67 111.63 6.94 112.08 7.48C112.37 7.83 112.55 8.36 112.61 9.05ZM115.80 14L117.20 14L117.20 9.66C117.20 9.06 117.28 8.52 117.44 8.02C117.54 7.69 117.72 7.43 117.96 7.25C118.21 7.06 118.48 6.97 118.79 6.97C119.13 6.97 119.48 7.07 119.82 7.27L120.30 5.97C119.82 5.67 119.33 5.52 118.86 5.52C118.53 5.52 118.23 5.61 117.96 5.80C117.68 5.98 117.39 6.37 117.06 6.96L117.06 5.70L115.80 5.70ZM129.16 12.73C129.19 13.04 129.24 13.27 129.30 13.40C129.41 13.60 129.57 13.76 129.79 13.87C130.01 13.98 130.30 14.03 130.66 14.03C131.79 14.03 132.83 13.51 133.77 12.45C134.84 11.28 135.37 9.94 135.37 8.43C135.37 7.37 135.11 6.39 134.61 5.49C134.02 4.45 133.20 3.66 132.18 3.13C131.15 2.60 129.99 2.34 128.70 2.34C127.03 2.34 125.61 2.71 124.44 3.46C123.27 4.21 122.37 5.29 121.73 6.70C121.21 7.85 120.95 9.07 120.95 10.34C120.95 11.48 121.17 12.54 121.61 13.52C121.96 14.30 122.48 14.99 123.16 15.58C123.85 16.18 124.68 16.63 125.66 16.92C126.64 17.22 127.70 17.37 128.86 17.37C130.11 17.37 131.19 17.20 132.08 16.87C132.97 16.54 133.74 16.09 134.38 15.52C135.03 14.96 135.48 14.40 135.75 13.85L134.34 13.85C133.88 14.51 133.19 15.07 132.27 15.52C131.34 15.98 130.20 16.21 128.84 16.21C127.56 16.21 126.40 15.99 125.35 15.55C124.30 15.11 123.50 14.43 122.94 13.51C122.39 12.59 122.11 11.49 122.11 10.21C122.11 8.99 122.39 7.85 122.94 6.79C123.50 5.72 124.28 4.90 125.29 4.33C126.29 3.76 127.41 3.48 128.63 3.48C129.69 3.48 130.67 3.70 131.55 4.16C132.43 4.61 133.10 5.21 133.54 5.97C133.99 6.72 134.21 7.54 134.21 8.41C134.21 9.15 134.04 9.87 133.69 10.57C133.35 11.27 132.88 11.83 132.28 12.25C131.83 12.57 131.47 12.73 131.20 12.73C131.04 12.73 130.92 12.68 130.81 12.57C130.70 12.47 130.65 12.35 130.65 12.21C130.65 12.13 130.73 11.73 130.88 11L132.01 5.76L130.61 5.76L130.34 6.97C130.05 6.48 129.69 6.12 129.28 5.89C128.87 5.65 128.44 5.53 127.98 5.53C127.39 5.53 126.78 5.74 126.15 6.16C125.52 6.57 124.99 7.20 124.57 8.03C124.14 8.86 123.93 9.69 123.93 10.52C123.93 11.19 124.07 11.80 124.34 12.37C124.61 12.93 124.97 13.35 125.41 13.62C125.84 13.89 126.29 14.02 126.76 14.02C127.18 14.02 127.60 13.90 128.02 13.67C128.44 13.43 128.82 13.12 129.16 12.73ZM125.38 10.61C125.38 10.16 125.46 9.67 125.63 9.13C125.79 8.60 126.01 8.14 126.29 7.77C126.57 7.39 126.85 7.12 127.14 6.95C127.44 6.78 127.75 6.70 128.09 6.70C128.59 6.70 129.02 6.89 129.37 7.28C129.72 7.67 129.90 8.22 129.90 8.93C129.90 9.46 129.80 9.99 129.62 10.52C129.43 11.05 129.19 11.48 128.89 11.83C128.60 12.17 128.29 12.43 127.97 12.61C127.65 12.78 127.34 12.87 127.05 12.87C126.61 12.87 126.22 12.67 125.88 12.27C125.54 11.88 125.38 11.32 125.38 10.61ZM137.72 14L139.12 14L139.12 6.80L140.73 6.80L140.73 5.70L139.12 5.70L139.12 4.94C139.12 4.44 139.21 4.10 139.38 3.91C139.56 3.73 139.86 3.64 140.29 3.64C140.55 3.64 140.83 3.67 141.12 3.72L141.33 2.49C140.85 2.40 140.41 2.35 140.02 2.35C139.40 2.35 138.92 2.46 138.58 2.69C138.24 2.92 138.00 3.21 137.87 3.58C137.77 3.85 137.72 4.26 137.72 4.82L137.72 5.70L136.48 5.70L136.48 6.80L137.72 6.80ZM141.27 11.52C141.42 12.40 141.78 13.07 142.35 13.52C142.91 13.96 143.73 14.19 144.81 14.19C145.46 14.19 146.05 14.07 146.56 13.85C147.08 13.62 147.47 13.30 147.75 12.89C148.02 12.47 148.16 12.03 148.16 11.56C148.16 11.08 148.04 10.68 147.82 10.36C147.60 10.04 147.29 9.79 146.89 9.62C146.50 9.45 145.81 9.23 144.81 8.97C144.13 8.78 143.71 8.66 143.57 8.61C143.33 8.51 143.15 8.39 143.03 8.23C142.92 8.09 142.86 7.92 142.86 7.74C142.86 7.46 143.00 7.21 143.27 6.99C143.55 6.78 144.01 6.67 144.66 6.67C145.20 6.67 145.63 6.79 145.93 7.03C146.23 7.27 146.41 7.60 146.47 8.03L147.84 7.84C147.76 7.31 147.59 6.88 147.36 6.56C147.13 6.24 146.76 5.98 146.27 5.80C145.78 5.61 145.21 5.52 144.55 5.52C144.12 5.52 143.72 5.57 143.34 5.68C142.96 5.80 142.66 5.93 142.45 6.09C142.15 6.30 141.92 6.56 141.75 6.88C141.58 7.19 141.50 7.54 141.50 7.91C141.50 8.31 141.60 8.68 141.81 9.02C142.01 9.36 142.32 9.62 142.71 9.81C143.11 10.00 143.83 10.22 144.86 10.48C145.63 10.68 146.10 10.84 146.30 10.96C146.57 11.14 146.71 11.39 146.71 11.71C146.71 12.07 146.55 12.37 146.24 12.64C145.93 12.90 145.45 13.03 144.80 13.03C144.16 13.03 143.67 12.88 143.31 12.59C142.95 12.29 142.73 11.86 142.66 11.30ZM149.83 14L151.23 14L151.23 9.70C151.23 8.94 151.31 8.36 151.46 7.96C151.61 7.56 151.86 7.26 152.19 7.05C152.53 6.84 152.89 6.73 153.29 6.73C153.81 6.73 154.18 6.89 154.41 7.20C154.64 7.52 154.76 7.98 154.76 8.61L154.76 14L156.16 14L156.16 9.18C156.16 8.33 156.36 7.70 156.74 7.32C157.13 6.93 157.61 6.73 158.20 6.73C158.52 6.73 158.80 6.81 159.04 6.96C159.28 7.11 159.44 7.31 159.54 7.56C159.63 7.81 159.67 8.21 159.67 8.77L159.67 14L161.07 14L161.07 8.30C161.07 7.36 160.85 6.65 160.41 6.20C159.96 5.74 159.33 5.52 158.51 5.52C157.46 5.52 156.60 6 155.95 6.97C155.78 6.51 155.51 6.15 155.11 5.90C154.72 5.64 154.22 5.52 153.60 5.52C153.05 5.52 152.56 5.64 152.13 5.89C151.69 6.13 151.35 6.46 151.09 6.87L151.09 5.70L149.83 5.70ZM163.16 4.16L164.57 4.16L164.57 2.55L163.16 2.55ZM163.16 14L164.57 14L164.57 5.70L163.16 5.70ZM168.01 14L168.01 12.96C168.57 13.78 169.33 14.19 170.31 14.19C171.30 14.19 172.14 13.80 172.84 13.02C173.55 12.25 173.90 11.15 173.90 9.73C173.90 9.13 173.82 8.57 173.65 8.04C173.48 7.51 173.25 7.06 172.96 6.69C172.66 6.32 172.29 6.03 171.83 5.82C171.38 5.62 170.89 5.52 170.38 5.52C169.46 5.52 168.70 5.89 168.11 6.63L168.11 2.55L166.70 2.55L166.70 14ZM167.99 9.79C167.99 8.78 168.22 8.01 168.66 7.47C169.11 6.94 169.64 6.67 170.26 6.67C170.87 6.67 171.39 6.93 171.82 7.45C172.25 7.96 172.46 8.76 172.46 9.84C172.46 10.90 172.24 11.70 171.79 12.23C171.34 12.76 170.81 13.03 170.20 13.03C169.44 13.03 168.84 12.67 168.40 11.95C168.13 11.50 167.99 10.78 167.99 9.79ZM176.01 14L177.61 14L177.61 12.40L176.01 12.40ZM185.47 10.96C185.37 11.66 185.14 12.18 184.77 12.52C184.40 12.86 183.93 13.03 183.38 13.03C182.70 13.03 182.14 12.78 181.71 12.27C181.28 11.77 181.07 10.96 181.07 9.84C181.07 8.74 181.29 7.94 181.73 7.43C182.18 6.93 182.75 6.67 183.46 6.67C183.93 6.67 184.33 6.81 184.66 7.09C184.99 7.38 185.22 7.79 185.35 8.35L186.72 8.14C186.56 7.30 186.19 6.65 185.62 6.20C185.04 5.74 184.31 5.52 183.41 5.52C182.69 5.52 182.03 5.68 181.43 6.02C180.82 6.36 180.37 6.86 180.07 7.53C179.77 8.20 179.63 8.99 179.63 9.88C179.63 11.27 179.97 12.33 180.66 13.07C181.35 13.82 182.26 14.19 183.40 14.19C184.30 14.19 185.07 13.92 185.69 13.38C186.31 12.84 186.70 12.09 186.85 11.14ZM188.05 14L189.46 14L189.46 9.46C189.46 8.81 189.54 8.30 189.70 7.93C189.85 7.56 190.11 7.27 190.48 7.05C190.85 6.83 191.24 6.73 191.66 6.73C192.21 6.73 192.64 6.89 192.95 7.21C193.25 7.53 193.41 8.04 193.41 8.74L193.41 14L194.81 14L194.81 8.74C194.81 7.93 194.71 7.31 194.52 6.88C194.32 6.46 194 6.12 193.55 5.88C193.09 5.64 192.56 5.52 191.95 5.52C190.95 5.52 190.12 5.90 189.46 6.66L189.46 2.55L188.05 2.55Z"/></svg>
