<svg xmlns="http://www.w3.org/2000/svg" xmlns:xlink="http://www.w3.org/1999/xlink" width="178.1171875" height="17.875"><path d="M1.39 14L2.79 14L2.79 6.80L4.41 6.80L4.41 5.70L2.79 5.70L2.79 4.94C2.79 4.44 2.88 4.10 3.05 3.91C3.23 3.73 3.53 3.64 3.96 3.64C4.22 3.64 4.50 3.67 4.79 3.72L5 2.49C4.52 2.40 4.08 2.35 3.69 2.35C3.07 2.35 2.60 2.46 2.25 2.69C1.91 2.92 1.67 3.21 1.54 3.58C1.44 3.85 1.39 4.26 1.39 4.82L1.39 5.70L0.15 5.70L0.15 6.80L1.39 6.80ZM10.91 12.98C10.96 13.37 11.05 13.71 11.20 14L12.66 14C12.49 13.68 12.37 13.35 12.31 13.00C12.25 12.66 12.22 11.83 12.22 10.52L12.22 8.65C12.22 8.02 12.20 7.59 12.15 7.35C12.07 6.97 11.92 6.65 11.71 6.39C11.50 6.14 11.18 5.93 10.73 5.77C10.29 5.60 9.72 5.52 9.01 5.52C8.29 5.52 7.67 5.61 7.13 5.81C6.58 6.00 6.17 6.28 5.88 6.64C5.60 7.01 5.39 7.48 5.27 8.07L6.64 8.26C6.79 7.67 7.02 7.26 7.34 7.03C7.65 6.80 8.14 6.68 8.80 6.68C9.51 6.68 10.05 6.84 10.41 7.16C10.67 7.39 10.80 7.79 10.80 8.37C10.80 8.42 10.80 8.54 10.80 8.73C10.26 8.92 9.42 9.08 8.29 9.22C7.73 9.29 7.32 9.36 7.04 9.43C6.66 9.53 6.33 9.69 6.03 9.89C5.73 10.09 5.49 10.36 5.30 10.70C5.12 11.04 5.02 11.41 5.02 11.81C5.02 12.51 5.27 13.07 5.76 13.52C6.25 13.96 6.95 14.19 7.86 14.19C8.41 14.19 8.93 14.10 9.41 13.91C9.89 13.73 10.39 13.42 10.91 12.98ZM10.80 9.84L10.80 10.35C10.80 10.97 10.72 11.44 10.57 11.76C10.37 12.17 10.06 12.49 9.64 12.73C9.22 12.97 8.74 13.09 8.20 13.09C7.65 13.09 7.23 12.96 6.95 12.71C6.67 12.46 6.52 12.15 6.52 11.77C6.52 11.53 6.59 11.31 6.72 11.11C6.85 10.90 7.03 10.75 7.27 10.65C7.51 10.54 7.92 10.45 8.50 10.37C9.52 10.22 10.29 10.04 10.80 9.84ZM15.70 14L15.70 12.96C16.25 13.78 17.02 14.19 18 14.19C18.98 14.19 19.83 13.80 20.53 13.02C21.23 12.25 21.59 11.15 21.59 9.73C21.59 9.13 21.50 8.57 21.34 8.04C21.17 7.51 20.94 7.06 20.64 6.69C20.35 6.32 19.98 6.03 19.52 5.82C19.06 5.62 18.58 5.52 18.07 5.52C17.15 5.52 16.39 5.89 15.80 6.63L15.80 2.55L14.39 2.55L14.39 14ZM15.68 9.79C15.68 8.78 15.90 8.01 16.35 7.47C16.80 6.94 17.33 6.67 17.95 6.67C18.55 6.67 19.07 6.93 19.50 7.45C19.93 7.96 20.15 8.76 20.15 9.84C20.15 10.90 19.92 11.70 19.48 12.23C19.03 12.76 18.50 13.03 17.88 13.03C17.13 13.03 16.53 12.67 16.09 11.95C15.82 11.50 15.68 10.78 15.68 9.79ZM23.30 4.16L24.71 4.16L24.71 2.55L23.30 2.55ZM23.30 14L24.71 14L24.71 5.70L23.30 5.70ZM26.33 9.85C26.33 11.25 26.69 12.33 27.40 13.07C28.12 13.82 29.06 14.19 30.22 14.19C30.94 14.19 31.61 14.02 32.22 13.68C32.83 13.34 33.30 12.87 33.62 12.25C33.94 11.64 34.10 10.80 34.10 9.73C34.10 8.42 33.74 7.38 33.02 6.64C32.29 5.89 31.36 5.52 30.22 5.52C29.19 5.52 28.32 5.82 27.61 6.44C26.76 7.18 26.33 8.32 26.33 9.85ZM27.77 9.85C27.77 8.79 28.01 7.99 28.47 7.47C28.93 6.94 29.52 6.68 30.22 6.68C30.91 6.68 31.49 6.94 31.96 7.47C32.42 8.00 32.66 8.78 32.66 9.80C32.66 10.89 32.42 11.70 31.96 12.23C31.50 12.77 30.92 13.03 30.22 13.03C29.52 13.03 28.93 12.77 28.47 12.24C28.01 11.71 27.77 10.91 27.77 9.85ZM36.15 14L37.75 14L37.75 12.40L36.15 12.40ZM41.49 14L41.49 12.96C42.05 13.78 42.82 14.19 43.80 14.19C44.78 14.19 45.63 13.80 46.33 13.02C47.03 12.25 47.38 11.15 47.38 9.73C47.38 9.13 47.30 8.57 47.13 8.04C46.97 7.51 46.74 7.06 46.44 6.69C46.15 6.32 45.77 6.03 45.32 5.82C44.86 5.62 44.38 5.52 43.87 5.52C42.95 5.52 42.19 5.89 41.59 6.63L41.59 2.55L40.19 2.55L40.19 14ZM41.48 9.79C41.48 8.78 41.70 8.01 42.15 7.47C42.60 6.94 43.13 6.67 43.74 6.67C44.35 6.67 44.87 6.93 45.30 7.45C45.73 7.96 45.95 8.76 45.95 9.84C45.95 10.90 45.72 11.70 45.27 12.23C44.83 12.76 44.29 13.03 43.68 13.03C42.92 13.03 42.33 12.67 41.88 11.95C41.61 11.50 41.48 10.78 41.48 9.79ZM54.77 11.33C54.56 11.92 54.27 12.35 53.91 12.63C53.54 12.90 53.10 13.03 52.59 13.03C51.89 13.03 51.32 12.79 50.85 12.30C50.39 11.82 50.13 11.12 50.08 10.21L56.27 10.21C56.27 10.04 56.27 9.92 56.27 9.84C56.27 8.47 55.92 7.40 55.22 6.65C54.52 5.89 53.61 5.52 52.50 5.52C51.35 5.52 50.42 5.90 49.70 6.67C48.98 7.44 48.63 8.53 48.63 9.92C48.63 11.27 48.98 12.32 49.69 13.07C50.40 13.81 51.36 14.19 52.58 14.19C53.54 14.19 54.33 13.95 54.95 13.48C55.57 13.02 56.00 12.36 56.23 11.51ZM50.16 9.05C50.20 8.33 50.45 7.75 50.89 7.32C51.33 6.89 51.87 6.67 52.52 6.67C53.23 6.67 53.81 6.94 54.26 7.48C54.55 7.83 54.73 8.36 54.79 9.05ZM57.98 14L59.38 14L59.38 9.66C59.38 9.06 59.46 8.52 59.62 8.02C59.72 7.69 59.90 7.43 60.14 7.25C60.39 7.06 60.66 6.97 60.97 6.97C61.31 6.97 61.66 7.07 62 7.27L62.48 5.97C61.99 5.67 61.51 5.52 61.04 5.52C60.71 5.52 60.41 5.61 60.14 5.80C59.86 5.98 59.57 6.37 59.24 6.96L59.24 5.70L57.98 5.70ZM66.39 12.74C66.14 12.78 65.93 12.80 65.77 12.80C65.57 12.80 65.40 12.76 65.29 12.70C65.18 12.63 65.10 12.54 65.05 12.42C65.00 12.31 64.98 12.05 64.98 11.65L64.98 6.80L66.39 6.80L66.39 5.70L64.98 5.70L64.98 2.80L63.58 3.65L63.58 5.70L62.55 5.70L62.55 6.80L63.58 6.80L63.58 11.57C63.58 12.41 63.64 12.97 63.75 13.23C63.86 13.49 64.06 13.71 64.34 13.87C64.63 14.03 65.02 14.11 65.53 14.11C65.84 14.11 66.20 14.07 66.59 13.98ZM73.18 12.98C73.22 13.37 73.32 13.71 73.46 14L74.93 14C74.75 13.68 74.63 13.35 74.57 13.00C74.51 12.66 74.48 11.83 74.48 10.52L74.48 8.65C74.48 8.02 74.46 7.59 74.41 7.35C74.33 6.97 74.18 6.65 73.98 6.39C73.77 6.14 73.44 5.93 73 5.77C72.56 5.60 71.98 5.52 71.27 5.52C70.56 5.52 69.93 5.61 69.39 5.81C68.85 6.00 68.43 6.28 68.15 6.64C67.86 7.01 67.66 7.48 67.53 8.07L68.91 8.26C69.06 7.67 69.29 7.26 69.61 7.03C69.92 6.80 70.41 6.68 71.07 6.68C71.78 6.68 72.31 6.84 72.67 7.16C72.94 7.39 73.07 7.79 73.07 8.37C73.07 8.42 73.07 8.54 73.06 8.73C72.53 8.92 71.69 9.08 70.55 9.22C70.00 9.29 69.58 9.36 69.30 9.43C68.93 9.53 68.59 9.69 68.29 9.89C67.99 10.09 67.75 10.36 67.57 10.70C67.38 11.04 67.29 11.41 67.29 11.81C67.29 12.51 67.53 13.07 68.02 13.52C68.51 13.96 69.21 14.19 70.13 14.19C70.68 14.19 71.19 14.10 71.68 13.91C72.16 13.73 72.66 13.42 73.18 12.98ZM73.06 9.84L73.06 10.35C73.06 10.97 72.99 11.44 72.84 11.76C72.64 12.17 72.33 12.49 71.91 12.73C71.48 12.97 71.00 13.09 70.46 13.09C69.91 13.09 69.50 12.96 69.21 12.71C68.93 12.46 68.79 12.15 68.79 11.77C68.79 11.53 68.85 11.31 68.98 11.11C69.11 10.90 69.30 10.75 69.54 10.65C69.78 10.54 70.19 10.45 70.77 10.37C71.79 10.22 72.55 10.04 73.06 9.84ZM76.41 14.69C76.39 15.58 76.68 16.25 77.29 16.70C77.90 17.14 78.70 17.37 79.69 17.37C80.52 17.37 81.22 17.21 81.79 16.90C82.36 16.59 82.78 16.16 83.04 15.62C83.31 15.08 83.44 14.17 83.44 12.88L83.44 5.70L82.14 5.70L82.14 6.70C81.51 5.91 80.70 5.52 79.72 5.52C78.98 5.52 78.35 5.70 77.80 6.06C77.26 6.43 76.84 6.94 76.55 7.61C76.27 8.28 76.13 9.01 76.13 9.80C76.13 10.96 76.44 11.94 77.06 12.77C77.69 13.59 78.57 14 79.71 14C80.63 14 81.39 13.64 82.01 12.91C82.01 13.83 81.98 14.43 81.91 14.72C81.78 15.19 81.54 15.55 81.19 15.81C80.83 16.07 80.33 16.20 79.68 16.20C79.08 16.20 78.60 16.07 78.25 15.81C77.99 15.62 77.83 15.31 77.77 14.89ZM77.57 9.70C77.57 8.70 77.79 7.95 78.23 7.44C78.66 6.93 79.20 6.68 79.82 6.68C80.46 6.68 81.00 6.94 81.45 7.45C81.90 7.97 82.13 8.73 82.13 9.75C82.13 10.81 81.91 11.59 81.47 12.09C81.03 12.59 80.49 12.84 79.84 12.84C79.19 12.84 78.65 12.59 78.22 12.09C77.79 11.59 77.57 10.79 77.57 9.70ZM85.56 14L86.97 14L86.97 9.47C86.97 8.41 87.19 7.68 87.62 7.30C88.06 6.92 88.57 6.73 89.17 6.73C89.55 6.73 89.87 6.82 90.15 6.99C90.43 7.16 90.63 7.38 90.73 7.67C90.84 7.95 90.90 8.38 90.90 8.95L90.90 14L92.30 14L92.30 8.90C92.30 8.25 92.28 7.79 92.23 7.53C92.14 7.13 92.00 6.78 91.79 6.49C91.58 6.20 91.27 5.96 90.85 5.79C90.43 5.61 89.97 5.52 89.47 5.52C88.32 5.52 87.44 5.97 86.83 6.88L86.83 5.70L85.56 5.70ZM99.88 12.98C99.92 13.37 100.01 13.71 100.16 14L101.63 14C101.45 13.68 101.33 13.35 101.27 13.00C101.21 12.66 101.18 11.83 101.18 10.52L101.18 8.65C101.18 8.02 101.16 7.59 101.11 7.35C101.03 6.97 100.88 6.65 100.67 6.39C100.46 6.14 100.14 5.93 99.70 5.77C99.25 5.60 98.68 5.52 97.97 5.52C97.26 5.52 96.63 5.61 96.09 5.81C95.54 6.00 95.13 6.28 94.84 6.64C94.56 7.01 94.35 7.48 94.23 8.07L95.60 8.26C95.75 7.67 95.99 7.26 96.30 7.03C96.62 6.80 97.10 6.68 97.77 6.68C98.47 6.68 99.01 6.84 99.37 7.16C99.63 7.39 99.77 7.79 99.77 8.37C99.77 8.42 99.76 8.54 99.76 8.73C99.22 8.92 98.39 9.08 97.25 9.22C96.69 9.29 96.28 9.36 96 9.43C95.63 9.53 95.29 9.69 94.99 9.89C94.69 10.09 94.45 10.36 94.26 10.70C94.08 11.04 93.98 11.41 93.98 11.81C93.98 12.51 94.23 13.07 94.72 13.52C95.21 13.96 95.91 14.19 96.82 14.19C97.37 14.19 97.89 14.10 98.37 13.91C98.85 13.73 99.35 13.42 99.88 12.98ZM99.76 9.84L99.76 10.35C99.76 10.97 99.68 11.44 99.53 11.76C99.33 12.17 99.02 12.49 98.60 12.73C98.18 12.97 97.70 13.09 97.16 13.09C96.61 13.09 96.19 12.96 95.91 12.71C95.63 12.46 95.48 12.15 95.48 11.77C95.48 11.53 95.55 11.31 95.68 11.11C95.81 10.90 95.99 10.75 96.23 10.65C96.47 10.54 96.88 10.45 97.46 10.37C98.48 10.22 99.25 10.04 99.76 9.84ZM111.38 12.73C111.41 13.04 111.46 13.27 111.52 13.40C111.63 13.60 111.79 13.76 112.01 13.87C112.23 13.98 112.52 14.03 112.88 14.03C114.01 14.03 115.04 13.51 115.99 12.45C117.05 11.28 117.59 9.94 117.59 8.43C117.59 7.37 117.33 6.39 116.83 5.49C116.23 4.45 115.42 3.66 114.39 3.13C113.37 2.60 112.21 2.34 110.91 2.34C109.25 2.34 107.83 2.71 106.66 3.46C105.49 4.21 104.59 5.29 103.95 6.70C103.43 7.85 103.17 9.07 103.17 10.34C103.17 11.48 103.39 12.54 103.83 13.52C104.18 14.30 104.70 14.99 105.38 15.58C106.07 16.18 106.90 16.63 107.88 16.92C108.86 17.22 109.92 17.37 111.08 17.37C112.33 17.37 113.41 17.20 114.30 16.87C115.19 16.54 115.96 16.09 116.60 15.52C117.25 14.96 117.70 14.40 117.97 13.85L116.55 13.85C116.10 14.51 115.41 15.07 114.48 15.52C113.56 15.98 112.42 16.21 111.05 16.21C109.78 16.21 108.62 15.99 107.57 15.55C106.52 15.11 105.71 14.43 105.16 13.51C104.61 12.59 104.33 11.49 104.33 10.21C104.33 8.99 104.61 7.85 105.16 6.79C105.71 5.72 106.50 4.90 107.50 4.33C108.51 3.76 109.63 3.48 110.84 3.48C111.91 3.48 112.89 3.70 113.77 4.16C114.65 4.61 115.32 5.21 115.76 5.97C116.21 6.72 116.43 7.54 116.43 8.41C116.43 9.15 116.26 9.87 115.91 10.57C115.56 11.27 115.09 11.83 114.50 12.25C114.05 12.57 113.69 12.73 113.41 12.73C113.26 12.73 113.13 12.68 113.03 12.57C112.92 12.47 112.87 12.35 112.87 12.21C112.87 12.13 112.95 11.73 113.10 11L114.23 5.76L112.83 5.76L112.56 6.97C112.27 6.48 111.91 6.12 111.50 5.89C111.09 5.65 110.66 5.53 110.20 5.53C109.61 5.53 109.00 5.74 108.37 6.16C107.74 6.57 107.21 7.20 106.79 8.03C106.36 8.86 106.15 9.69 106.15 10.52C106.15 11.19 106.29 11.80 106.56 12.37C106.83 12.93 107.19 13.35 107.63 13.62C108.06 13.89 108.51 14.02 108.98 14.02C109.40 14.02 109.82 13.90 110.24 13.67C110.66 13.43 111.04 13.12 111.38 12.73ZM107.59 10.61C107.59 10.16 107.68 9.67 107.84 9.13C108.01 8.60 108.23 8.14 108.51 7.77C108.78 7.39 109.07 7.12 109.36 6.95C109.66 6.78 109.97 6.70 110.30 6.70C110.81 6.70 111.24 6.89 111.59 7.28C111.94 7.67 112.12 8.22 112.12 8.93C112.12 9.46 112.02 9.99 111.84 10.52C111.65 11.05 111.41 11.48 111.11 11.83C110.82 12.17 110.51 12.43 110.19 12.61C109.86 12.78 109.56 12.87 109.27 12.87C108.83 12.87 108.44 12.67 108.10 12.27C107.76 11.88 107.59 11.32 107.59 10.61ZM119.94 14L121.34 14L121.34 6.80L122.95 6.80L122.95 5.70L121.34 5.70L121.34 4.94C121.34 4.44 121.42 4.10 121.60 3.91C121.78 3.73 122.08 3.64 122.51 3.64C122.77 3.64 123.04 3.67 123.34 3.72L123.55 2.49C123.07 2.40 122.63 2.35 122.23 2.35C121.62 2.35 121.14 2.46 120.80 2.69C120.46 2.92 120.22 3.21 120.09 3.58C119.99 3.85 119.94 4.26 119.94 4.82L119.94 5.70L118.70 5.70L118.70 6.80L119.94 6.80ZM123.48 11.52C123.64 12.40 124.00 13.07 124.57 13.52C125.13 13.96 125.95 14.19 127.03 14.19C127.68 14.19 128.27 14.07 128.78 13.85C129.30 13.62 129.69 13.30 129.96 12.89C130.24 12.47 130.38 12.03 130.38 11.56C130.38 11.08 130.26 10.68 130.04 10.36C129.82 10.04 129.51 9.79 129.11 9.62C128.72 9.45 128.03 9.23 127.03 8.97C126.34 8.78 125.93 8.66 125.79 8.61C125.54 8.51 125.36 8.39 125.25 8.23C125.14 8.09 125.08 7.92 125.08 7.74C125.08 7.46 125.22 7.21 125.49 6.99C125.77 6.78 126.23 6.67 126.88 6.67C127.42 6.67 127.85 6.79 128.14 7.03C128.44 7.27 128.63 7.60 128.69 8.03L130.06 7.84C129.97 7.31 129.81 6.88 129.58 6.56C129.34 6.24 128.98 5.98 128.49 5.80C128.00 5.61 127.42 5.52 126.77 5.52C126.34 5.52 125.94 5.57 125.56 5.68C125.18 5.80 124.88 5.93 124.66 6.09C124.37 6.30 124.14 6.56 123.97 6.88C123.80 7.19 123.72 7.54 123.72 7.91C123.72 8.31 123.82 8.68 124.03 9.02C124.23 9.36 124.54 9.62 124.93 9.81C125.33 10.00 126.05 10.22 127.08 10.48C127.84 10.68 128.32 10.84 128.52 10.96C128.79 11.14 128.93 11.39 128.93 11.71C128.93 12.07 128.77 12.37 128.46 12.64C128.15 12.90 127.67 13.03 127.02 13.03C126.38 13.03 125.88 12.88 125.53 12.59C125.17 12.29 124.95 11.86 124.88 11.30ZM132.05 14L133.45 14L133.45 9.70C133.45 8.94 133.53 8.36 133.68 7.96C133.83 7.56 134.07 7.26 134.41 7.05C134.75 6.84 135.11 6.73 135.51 6.73C136.03 6.73 136.40 6.89 136.63 7.20C136.86 7.52 136.98 7.98 136.98 8.61L136.98 14L138.38 14L138.38 9.18C138.38 8.33 138.58 7.70 138.96 7.32C139.35 6.93 139.83 6.73 140.41 6.73C140.74 6.73 141.02 6.81 141.26 6.96C141.50 7.11 141.66 7.31 141.75 7.56C141.85 7.81 141.89 8.21 141.89 8.77L141.89 14L143.29 14L143.29 8.30C143.29 7.36 143.07 6.65 142.63 6.20C142.18 5.74 141.55 5.52 140.73 5.52C139.67 5.52 138.82 6 138.16 6.97C138.00 6.51 137.73 6.15 137.33 5.90C136.94 5.64 136.43 5.52 135.82 5.52C135.27 5.52 134.78 5.64 134.34 5.89C133.91 6.13 133.57 6.46 133.30 6.87L133.30 5.70L132.05 5.70ZM145.38 4.16L146.79 4.16L146.79 2.55L145.38 2.55ZM145.38 14L146.79 14L146.79 5.70L145.38 5.70ZM150.23 14L150.23 12.96C150.78 13.78 151.55 14.19 152.53 14.19C153.52 14.19 154.36 13.80 155.06 13.02C155.77 12.25 156.12 11.15 156.12 9.73C156.12 9.13 156.03 8.57 155.87 8.04C155.70 7.51 155.47 7.06 155.18 6.69C154.88 6.32 154.51 6.03 154.05 5.82C153.60 5.62 153.11 5.52 152.60 5.52C151.68 5.52 150.92 5.89 150.33 6.63L150.33 2.55L148.92 2.55L148.92 14ZM150.21 9.79C150.21 8.78 150.43 8.01 150.88 7.47C151.33 6.94 151.86 6.67 152.48 6.67C153.09 6.67 153.61 6.93 154.04 7.45C154.46 7.96 154.68 8.76 154.68 9.84C154.68 10.90 154.46 11.70 154.01 12.23C153.56 12.76 153.03 13.03 152.41 13.03C151.66 13.03 151.06 12.67 150.62 11.95C150.35 11.50 150.21 10.78 150.21 9.79ZM158.23 14L159.83 14L159.83 12.40L158.23 12.40ZM167.69 10.96C167.59 11.66 167.35 12.18 166.98 12.52C166.61 12.86 166.15 13.03 165.60 13.03C164.91 13.03 164.36 12.78 163.93 12.27C163.50 11.77 163.29 10.96 163.29 9.84C163.29 8.74 163.51 7.94 163.95 7.43C164.40 6.93 164.97 6.67 165.68 6.67C166.15 6.67 166.55 6.81 166.88 7.09C167.21 7.38 167.44 7.79 167.57 8.35L168.94 8.14C168.78 7.30 168.41 6.65 167.84 6.20C167.26 5.74 166.53 5.52 165.63 5.52C164.91 5.52 164.25 5.68 163.64 6.02C163.04 6.36 162.59 6.86 162.29 7.53C161.99 8.20 161.84 8.99 161.84 9.88C161.84 11.27 162.19 12.33 162.88 13.07C163.57 13.82 164.48 14.19 165.62 14.19C166.52 14.19 167.29 13.92 167.91 13.38C168.53 12.84 168.92 12.09 169.07 11.14ZM170.27 14L171.68 14L171.68 9.46C171.68 8.81 171.76 8.30 171.91 7.93C172.07 7.56 172.33 7.27 172.70 7.05C173.07 6.83 173.46 6.73 173.88 6.73C174.43 6.73 174.86 6.89 175.17 7.21C175.47 7.53 175.63 8.04 175.63 8.74L175.63 14L177.03 14L177.03 8.74C177.03 7.93 176.93 7.31 176.74 6.88C176.54 6.46 176.22 6.12 175.77 5.88C175.31 5.64 174.78 5.52 174.16 5.52C173.16 5.52 172.34 5.90 171.68 6.66L171.68 2.55L170.27 2.55Z"/></svg>
