<svg xmlns="http://www.w3.org/2000/svg" xmlns:xlink="http://www.w3.org/1999/xlink" width="166.53125" height="17.875"><path d="M1.05 17.18L2.46 17.18L2.46 13.14C2.70 13.44 3.01 13.69 3.38 13.89C3.75 14.09 4.17 14.19 4.64 14.19C5.28 14.19 5.89 14.01 6.47 13.64C7.05 13.28 7.50 12.76 7.80 12.08C8.11 11.40 8.26 10.64 8.26 9.79C8.26 9.00 8.12 8.27 7.84 7.61C7.57 6.94 7.16 6.43 6.62 6.06C6.08 5.70 5.45 5.52 4.74 5.52C4.20 5.52 3.74 5.62 3.36 5.83C2.98 6.04 2.64 6.36 2.34 6.78L2.34 5.70L1.05 5.70ZM2.33 9.90C2.33 8.83 2.56 8.02 3.02 7.46C3.48 6.90 4.01 6.62 4.61 6.62C5.21 6.62 5.73 6.88 6.17 7.41C6.60 7.93 6.82 8.72 6.82 9.78C6.82 10.89 6.60 11.71 6.15 12.24C5.71 12.77 5.17 13.03 4.55 13.03C3.93 13.03 3.41 12.78 2.98 12.27C2.54 11.76 2.33 10.97 2.33 9.90ZM15.37 12.98C15.41 13.37 15.50 13.71 15.65 14L17.12 14C16.94 13.68 16.82 13.35 16.76 13.00C16.70 12.66 16.67 11.83 16.67 10.52L16.67 8.65C16.67 8.02 16.65 7.59 16.60 7.35C16.52 6.97 16.37 6.65 16.16 6.39C15.96 6.14 15.63 5.93 15.19 5.77C14.74 5.60 14.17 5.52 13.46 5.52C12.75 5.52 12.12 5.61 11.58 5.81C11.04 6.00 10.62 6.28 10.34 6.64C10.05 7.01 9.84 7.48 9.72 8.07L11.09 8.26C11.24 7.67 11.48 7.26 11.79 7.03C12.11 6.80 12.60 6.68 13.26 6.68C13.97 6.68 14.50 6.84 14.86 7.16C15.13 7.39 15.26 7.79 15.26 8.37C15.26 8.42 15.26 8.54 15.25 8.73C14.71 8.92 13.88 9.08 12.74 9.22C12.18 9.29 11.77 9.36 11.49 9.43C11.12 9.53 10.78 9.69 10.48 9.89C10.18 10.09 9.94 10.36 9.75 10.70C9.57 11.04 9.48 11.41 9.48 11.81C9.48 12.51 9.72 13.07 10.21 13.52C10.70 13.96 11.40 14.19 12.31 14.19C12.86 14.19 13.38 14.10 13.86 13.91C14.35 13.73 14.85 13.42 15.37 12.98ZM15.25 9.84L15.25 10.35C15.25 10.97 15.17 11.44 15.02 11.76C14.83 12.17 14.52 12.49 14.09 12.73C13.67 12.97 13.19 13.09 12.65 13.09C12.10 13.09 11.69 12.96 11.40 12.71C11.12 12.46 10.98 12.15 10.98 11.77C10.98 11.53 11.04 11.31 11.17 11.11C11.30 10.90 11.49 10.75 11.73 10.65C11.97 10.54 12.38 10.45 12.95 10.37C13.97 10.22 14.74 10.04 15.25 9.84ZM21.92 12.74C21.67 12.78 21.46 12.80 21.30 12.80C21.10 12.80 20.94 12.76 20.82 12.70C20.71 12.63 20.63 12.54 20.58 12.42C20.53 12.31 20.51 12.05 20.51 11.65L20.51 6.80L21.92 6.80L21.92 5.70L20.51 5.70L20.51 2.80L19.11 3.65L19.11 5.70L18.08 5.70L18.08 6.80L19.11 6.80L19.11 11.57C19.11 12.41 19.17 12.97 19.28 13.23C19.40 13.49 19.59 13.71 19.88 13.87C20.16 14.03 20.55 14.11 21.06 14.11C21.38 14.11 21.73 14.07 22.13 13.98ZM23.28 14L24.69 14L24.69 9.66C24.69 9.06 24.77 8.52 24.92 8.02C25.03 7.69 25.20 7.43 25.45 7.25C25.69 7.06 25.97 6.97 26.27 6.97C26.62 6.97 26.96 7.07 27.30 7.27L27.79 5.97C27.30 5.67 26.82 5.52 26.34 5.52C26.02 5.52 25.71 5.61 25.44 5.80C25.17 5.98 24.87 6.37 24.55 6.96L24.55 5.70L23.28 5.70ZM28.63 4.16L30.04 4.16L30.04 2.55L28.63 2.55ZM28.63 14L30.04 14L30.04 5.70L28.63 5.70ZM37.59 10.96C37.49 11.66 37.26 12.18 36.89 12.52C36.52 12.86 36.06 13.03 35.51 13.03C34.82 13.03 34.26 12.78 33.84 12.27C33.41 11.77 33.20 10.96 33.20 9.84C33.20 8.74 33.42 7.94 33.86 7.43C34.30 6.93 34.88 6.67 35.59 6.67C36.05 6.67 36.45 6.81 36.79 7.09C37.12 7.38 37.35 7.79 37.48 8.35L38.84 8.14C38.68 7.30 38.32 6.65 37.74 6.20C37.17 5.74 36.43 5.52 35.53 5.52C34.82 5.52 34.16 5.68 33.55 6.02C32.94 6.36 32.49 6.86 32.20 7.53C31.90 8.20 31.75 8.99 31.75 9.88C31.75 11.27 32.10 12.33 32.79 13.07C33.48 13.82 34.39 14.19 35.52 14.19C36.43 14.19 37.19 13.92 37.82 13.38C38.44 12.84 38.83 12.09 38.98 11.14ZM40.19 14L41.59 14L41.59 10.71L42.59 9.76L45.33 14L47.06 14L43.57 8.78L46.74 5.70L44.92 5.70L41.59 9.08L41.59 2.55L40.19 2.55ZM48.58 14L50.18 14L50.18 12.40L48.58 12.40ZM52.63 14L54.03 14L54.03 9.46C54.03 8.81 54.11 8.30 54.27 7.93C54.42 7.56 54.68 7.27 55.05 7.05C55.42 6.83 55.81 6.73 56.23 6.73C56.78 6.73 57.21 6.89 57.52 7.21C57.82 7.53 57.98 8.04 57.98 8.74L57.98 14L59.38 14L59.38 8.74C59.38 7.93 59.29 7.31 59.09 6.88C58.89 6.46 58.57 6.12 58.12 5.88C57.66 5.64 57.13 5.52 56.52 5.52C55.52 5.52 54.69 5.90 54.03 6.66L54.03 2.55L52.63 2.55ZM61 9.85C61 11.25 61.36 12.33 62.07 13.07C62.79 13.82 63.73 14.19 64.89 14.19C65.61 14.19 66.28 14.02 66.89 13.68C67.51 13.34 67.97 12.87 68.29 12.25C68.61 11.64 68.77 10.80 68.77 9.73C68.77 8.42 68.41 7.38 67.69 6.64C66.96 5.89 66.03 5.52 64.89 5.52C63.86 5.52 62.99 5.82 62.28 6.44C61.43 7.18 61 8.32 61 9.85ZM62.45 9.85C62.45 8.79 62.68 7.99 63.14 7.47C63.60 6.94 64.19 6.68 64.89 6.68C65.58 6.68 66.16 6.94 66.63 7.47C67.10 8.00 67.33 8.78 67.33 9.80C67.33 10.89 67.10 11.70 66.63 12.23C66.17 12.77 65.59 13.03 64.89 13.03C64.19 13.03 63.60 12.77 63.14 12.24C62.68 11.71 62.45 10.91 62.45 9.85ZM75.80 14L77.11 14L77.11 2.55L75.71 2.55L75.71 6.66C75.47 6.32 75.15 6.04 74.76 5.83C74.37 5.62 73.92 5.52 73.42 5.52C72.74 5.52 72.12 5.70 71.57 6.05C71.02 6.41 70.60 6.93 70.33 7.61C70.05 8.28 69.91 9.03 69.91 9.86C69.91 10.71 70.07 11.46 70.37 12.11C70.68 12.77 71.11 13.28 71.66 13.64C72.21 14.01 72.82 14.19 73.48 14.19C74.51 14.19 75.28 13.78 75.80 12.95ZM71.36 9.86C71.36 8.76 71.57 7.96 71.99 7.45C72.41 6.93 72.93 6.68 73.55 6.68C74.20 6.68 74.73 6.95 75.17 7.48C75.61 8.01 75.83 8.84 75.83 9.98C75.83 11.01 75.61 11.77 75.18 12.28C74.75 12.78 74.23 13.03 73.62 13.03C73.01 13.03 72.48 12.77 72.03 12.24C71.58 11.72 71.36 10.92 71.36 9.86ZM85 11.33C84.79 11.92 84.50 12.35 84.13 12.63C83.77 12.90 83.33 13.03 82.81 13.03C82.12 13.03 81.54 12.79 81.08 12.30C80.61 11.82 80.36 11.12 80.30 10.21L86.49 10.21C86.50 10.04 86.50 9.92 86.50 9.84C86.50 8.47 86.15 7.40 85.45 6.65C84.74 5.89 83.84 5.52 82.73 5.52C81.58 5.52 80.65 5.90 79.93 6.67C79.21 7.44 78.85 8.53 78.85 9.92C78.85 11.27 79.21 12.32 79.92 13.07C80.63 13.81 81.59 14.19 82.80 14.19C83.77 14.19 84.56 13.95 85.18 13.48C85.80 13.02 86.22 12.36 86.45 11.51ZM80.38 9.05C80.43 8.33 80.67 7.75 81.11 7.32C81.55 6.89 82.10 6.67 82.74 6.67C83.46 6.67 84.04 6.94 84.48 7.48C84.78 7.83 84.95 8.36 85.02 9.05ZM88.19 14L89.59 14L89.59 2.55L88.19 2.55ZM99.79 12.73C99.82 13.04 99.87 13.27 99.94 13.40C100.04 13.60 100.20 13.76 100.43 13.87C100.65 13.98 100.94 14.03 101.30 14.03C102.42 14.03 103.46 13.51 104.41 12.45C105.47 11.28 106 9.94 106 8.43C106 7.37 105.75 6.39 105.24 5.49C104.65 4.45 103.84 3.66 102.81 3.13C101.78 2.60 100.62 2.34 99.33 2.34C97.66 2.34 96.24 2.71 95.07 3.46C93.90 4.21 93.00 5.29 92.37 6.70C91.85 7.85 91.59 9.07 91.59 10.34C91.59 11.48 91.80 12.54 92.24 13.52C92.59 14.30 93.11 14.99 93.80 15.58C94.48 16.18 95.32 16.63 96.29 16.92C97.27 17.22 98.34 17.37 99.49 17.37C100.75 17.37 101.82 17.20 102.71 16.87C103.60 16.54 104.37 16.09 105.02 15.52C105.66 14.96 106.12 14.40 106.38 13.85L104.97 13.85C104.51 14.51 103.82 15.07 102.90 15.52C101.98 15.98 100.83 16.21 99.47 16.21C98.19 16.21 97.03 15.99 95.98 15.55C94.93 15.11 94.13 14.43 93.57 13.51C93.02 12.59 92.74 11.49 92.74 10.21C92.74 8.99 93.02 7.85 93.57 6.79C94.13 5.72 94.91 4.90 95.92 4.33C96.93 3.76 98.04 3.48 99.26 3.48C100.33 3.48 101.30 3.70 102.18 4.16C103.07 4.61 103.73 5.21 104.18 5.97C104.62 6.72 104.84 7.54 104.84 8.41C104.84 9.15 104.67 9.87 104.32 10.57C103.98 11.27 103.51 11.83 102.91 12.25C102.47 12.57 102.10 12.73 101.83 12.73C101.68 12.73 101.55 12.68 101.44 12.57C101.33 12.47 101.28 12.35 101.28 12.21C101.28 12.13 101.36 11.73 101.52 11L102.64 5.76L101.24 5.76L100.98 6.97C100.68 6.48 100.33 6.12 99.91 5.89C99.50 5.65 99.07 5.53 98.62 5.53C98.02 5.53 97.41 5.74 96.78 6.16C96.15 6.57 95.62 7.20 95.20 8.03C94.77 8.86 94.56 9.69 94.56 10.52C94.56 11.19 94.70 11.80 94.97 12.37C95.25 12.93 95.60 13.35 96.04 13.62C96.48 13.89 96.93 14.02 97.39 14.02C97.81 14.02 98.23 13.90 98.65 13.67C99.07 13.43 99.45 13.12 99.79 12.73ZM96.01 10.61C96.01 10.16 96.09 9.67 96.26 9.13C96.42 8.60 96.65 8.14 96.92 7.77C97.20 7.39 97.48 7.12 97.78 6.95C98.07 6.78 98.39 6.70 98.72 6.70C99.22 6.70 99.65 6.89 100.00 7.28C100.36 7.67 100.53 8.22 100.53 8.93C100.53 9.46 100.44 9.99 100.25 10.52C100.06 11.05 99.82 11.48 99.53 11.83C99.23 12.17 98.92 12.43 98.60 12.61C98.28 12.78 97.97 12.87 97.68 12.87C97.24 12.87 96.85 12.67 96.52 12.27C96.18 11.88 96.01 11.32 96.01 10.61ZM108.35 14L109.75 14L109.75 6.80L111.37 6.80L111.37 5.70L109.75 5.70L109.75 4.94C109.75 4.44 109.84 4.10 110.02 3.91C110.19 3.73 110.49 3.64 110.92 3.64C111.18 3.64 111.46 3.67 111.75 3.72L111.96 2.49C111.48 2.40 111.04 2.35 110.65 2.35C110.03 2.35 109.56 2.46 109.21 2.69C108.87 2.92 108.64 3.21 108.50 3.58C108.40 3.85 108.35 4.26 108.35 4.82L108.35 5.70L107.11 5.70L107.11 6.80L108.35 6.80ZM111.90 11.52C112.05 12.40 112.42 13.07 112.98 13.52C113.55 13.96 114.37 14.19 115.45 14.19C116.10 14.19 116.68 14.07 117.20 13.85C117.71 13.62 118.11 13.30 118.38 12.89C118.65 12.47 118.79 12.03 118.79 11.56C118.79 11.08 118.68 10.68 118.45 10.36C118.23 10.04 117.92 9.79 117.53 9.62C117.13 9.45 116.44 9.23 115.45 8.97C114.76 8.78 114.34 8.66 114.20 8.61C113.96 8.51 113.78 8.39 113.66 8.23C113.55 8.09 113.49 7.92 113.49 7.74C113.49 7.46 113.63 7.21 113.91 6.99C114.18 6.78 114.64 6.67 115.29 6.67C115.84 6.67 116.26 6.79 116.56 7.03C116.86 7.27 117.04 7.60 117.10 8.03L118.48 7.84C118.39 7.31 118.23 6.88 117.99 6.56C117.76 6.24 117.39 5.98 116.90 5.80C116.41 5.61 115.84 5.52 115.19 5.52C114.76 5.52 114.35 5.57 113.97 5.68C113.60 5.80 113.30 5.93 113.08 6.09C112.79 6.30 112.56 6.56 112.39 6.88C112.22 7.19 112.13 7.54 112.13 7.91C112.13 8.31 112.24 8.68 112.44 9.02C112.65 9.36 112.95 9.62 113.35 9.81C113.75 10.00 114.46 10.22 115.49 10.48C116.26 10.68 116.74 10.84 116.93 10.96C117.21 11.14 117.34 11.39 117.34 11.71C117.34 12.07 117.19 12.37 116.88 12.64C116.56 12.90 116.08 13.03 115.44 13.03C114.80 13.03 114.30 12.88 113.94 12.59C113.58 12.29 113.37 11.86 113.29 11.30ZM120.46 14L121.87 14L121.87 9.70C121.87 8.94 121.94 8.36 122.09 7.96C122.24 7.56 122.49 7.26 122.82 7.05C123.16 6.84 123.53 6.73 123.92 6.73C124.44 6.73 124.82 6.89 125.05 7.20C125.28 7.52 125.39 7.98 125.39 8.61L125.39 14L126.80 14L126.80 9.18C126.80 8.33 126.99 7.70 127.38 7.32C127.76 6.93 128.24 6.73 128.83 6.73C129.15 6.73 129.43 6.81 129.67 6.96C129.91 7.11 130.08 7.31 130.17 7.56C130.26 7.81 130.30 8.21 130.30 8.77L130.30 14L131.70 14L131.70 8.30C131.70 7.36 131.48 6.65 131.04 6.20C130.60 5.74 129.96 5.52 129.14 5.52C128.09 5.52 127.23 6 126.58 6.97C126.42 6.51 126.14 6.15 125.75 5.90C125.35 5.64 124.85 5.52 124.23 5.52C123.68 5.52 123.19 5.64 122.76 5.89C122.33 6.13 121.98 6.46 121.72 6.87L121.72 5.70L120.46 5.70ZM133.80 4.16L135.20 4.16L135.20 2.55L133.80 2.55ZM133.80 14L135.20 14L135.20 5.70L133.80 5.70ZM138.64 14L138.64 12.96C139.20 13.78 139.97 14.19 140.95 14.19C141.93 14.19 142.77 13.80 143.48 13.02C144.18 12.25 144.53 11.15 144.53 9.73C144.53 9.13 144.45 8.57 144.28 8.04C144.11 7.51 143.88 7.06 143.59 6.69C143.30 6.32 142.92 6.03 142.46 5.82C142.01 5.62 141.53 5.52 141.02 5.52C140.09 5.52 139.34 5.89 138.74 6.63L138.74 2.55L137.34 2.55L137.34 14ZM138.63 9.79C138.63 8.78 138.85 8.01 139.30 7.47C139.74 6.94 140.28 6.67 140.89 6.67C141.50 6.67 142.02 6.93 142.45 7.45C142.88 7.96 143.09 8.76 143.09 9.84C143.09 10.90 142.87 11.70 142.42 12.23C141.97 12.76 141.44 13.03 140.83 13.03C140.07 13.03 139.47 12.67 139.03 11.95C138.76 11.50 138.63 10.78 138.63 9.79ZM146.64 14L148.24 14L148.24 12.40L146.64 12.40ZM156.10 10.96C156.00 11.66 155.77 12.18 155.40 12.52C155.03 12.86 154.57 13.03 154.02 13.03C153.33 13.03 152.77 12.78 152.34 12.27C151.92 11.77 151.70 10.96 151.70 9.84C151.70 8.74 151.92 7.94 152.37 7.43C152.81 6.93 153.39 6.67 154.09 6.67C154.56 6.67 154.96 6.81 155.29 7.09C155.62 7.38 155.85 7.79 155.98 8.35L157.35 8.14C157.19 7.30 156.82 6.65 156.25 6.20C155.68 5.74 154.94 5.52 154.04 5.52C153.33 5.52 152.67 5.68 152.06 6.02C151.45 6.36 151 6.86 150.70 7.53C150.41 8.20 150.26 8.99 150.26 9.88C150.26 11.27 150.60 12.33 151.29 13.07C151.98 13.82 152.90 14.19 154.03 14.19C154.94 14.19 155.70 13.92 156.32 13.38C156.95 12.84 157.33 12.09 157.48 11.14ZM158.69 14L160.09 14L160.09 9.46C160.09 8.81 160.17 8.30 160.33 7.93C160.48 7.56 160.75 7.27 161.11 7.05C161.48 6.83 161.87 6.73 162.29 6.73C162.85 6.73 163.28 6.89 163.58 7.21C163.89 7.53 164.04 8.04 164.04 8.74L164.04 14L165.45 14L165.45 8.74C165.45 7.93 165.35 7.31 165.15 6.88C164.96 6.46 164.63 6.12 164.18 5.88C163.73 5.64 163.19 5.52 162.58 5.52C161.58 5.52 160.75 5.90 160.09 6.66L160.09 2.55L158.69 2.55Z"/></svg>
