<svg xmlns="http://www.w3.org/2000/svg" xmlns:xlink="http://www.w3.org/1999/xlink" width="130.9609375" height="17.875"><path d="M6.49 14L7.75 14L7.75 5.70L6.34 5.70L6.34 10.15C6.34 10.86 6.27 11.40 6.11 11.77C5.96 12.14 5.70 12.44 5.33 12.65C4.96 12.87 4.56 12.98 4.14 12.98C3.72 12.98 3.36 12.87 3.08 12.66C2.79 12.45 2.60 12.16 2.52 11.79C2.46 11.53 2.43 11.04 2.43 10.30L2.43 5.70L1.02 5.70L1.02 10.84C1.02 11.44 1.05 11.88 1.11 12.16C1.19 12.57 1.34 12.92 1.54 13.20C1.75 13.48 2.06 13.72 2.49 13.91C2.91 14.09 3.37 14.19 3.86 14.19C4.97 14.19 5.85 13.72 6.49 12.78ZM9.95 14L11.36 14L11.36 9.47C11.36 8.41 11.58 7.68 12.01 7.30C12.45 6.92 12.96 6.73 13.56 6.73C13.94 6.73 14.26 6.82 14.54 6.99C14.82 7.16 15.02 7.38 15.13 7.67C15.23 7.95 15.29 8.38 15.29 8.95L15.29 14L16.70 14L16.70 8.90C16.70 8.25 16.67 7.79 16.62 7.53C16.53 7.13 16.39 6.78 16.18 6.49C15.97 6.20 15.66 5.96 15.24 5.79C14.82 5.61 14.36 5.52 13.86 5.52C12.71 5.52 11.83 5.97 11.22 6.88L11.22 5.70L9.95 5.70ZM18.86 4.16L20.27 4.16L20.27 2.55L18.86 2.55ZM18.86 14L20.27 14L20.27 5.70L18.86 5.70ZM22.41 14L23.81 14L23.81 9.46C23.81 8.81 23.89 8.30 24.05 7.93C24.20 7.56 24.46 7.27 24.83 7.05C25.20 6.83 25.59 6.73 26.01 6.73C26.57 6.73 27.00 6.89 27.30 7.21C27.61 7.53 27.76 8.04 27.76 8.74L27.76 14L29.16 14L29.16 8.74C29.16 7.93 29.07 7.31 28.87 6.88C28.68 6.46 28.35 6.12 27.90 5.88C27.45 5.64 26.91 5.52 26.30 5.52C25.30 5.52 24.47 5.90 23.81 6.66L23.81 2.55L22.41 2.55ZM36.72 12.98C36.76 13.37 36.85 13.71 37 14L38.47 14C38.29 13.68 38.17 13.35 38.11 13.00C38.05 12.66 38.02 11.83 38.02 10.52L38.02 8.65C38.02 8.02 38 7.59 37.95 7.35C37.87 6.97 37.72 6.65 37.52 6.39C37.31 6.14 36.98 5.93 36.54 5.77C36.10 5.60 35.52 5.52 34.81 5.52C34.10 5.52 33.47 5.61 32.93 5.81C32.39 6.00 31.97 6.28 31.69 6.64C31.40 7.01 31.20 7.48 31.07 8.07L32.45 8.26C32.60 7.67 32.83 7.26 33.14 7.03C33.46 6.80 33.95 6.68 34.61 6.68C35.32 6.68 35.85 6.84 36.21 7.16C36.48 7.39 36.61 7.79 36.61 8.37C36.61 8.42 36.61 8.54 36.60 8.73C36.07 8.92 35.23 9.08 34.09 9.22C33.54 9.29 33.12 9.36 32.84 9.43C32.47 9.53 32.13 9.69 31.83 9.89C31.53 10.09 31.29 10.36 31.11 10.70C30.92 11.04 30.83 11.41 30.83 11.81C30.83 12.51 31.07 13.07 31.56 13.52C32.05 13.96 32.75 14.19 33.66 14.19C34.22 14.19 34.73 14.10 35.21 13.91C35.70 13.73 36.20 13.42 36.72 12.98ZM36.60 9.84L36.60 10.35C36.60 10.97 36.53 11.44 36.38 11.76C36.18 12.17 35.87 12.49 35.45 12.73C35.02 12.97 34.54 13.09 34 13.09C33.45 13.09 33.04 12.96 32.75 12.71C32.47 12.46 32.33 12.15 32.33 11.77C32.33 11.53 32.39 11.31 32.52 11.11C32.65 10.90 32.84 10.75 33.08 10.65C33.32 10.54 33.73 10.45 34.30 10.37C35.33 10.22 36.09 10.04 36.60 9.84ZM45.62 10.96C45.52 11.66 45.28 12.18 44.91 12.52C44.54 12.86 44.08 13.03 43.53 13.03C42.84 13.03 42.29 12.78 41.86 12.27C41.43 11.77 41.22 10.96 41.22 9.84C41.22 8.74 41.44 7.94 41.88 7.43C42.33 6.93 42.90 6.67 43.61 6.67C44.08 6.67 44.48 6.81 44.81 7.09C45.14 7.38 45.37 7.79 45.50 8.35L46.87 8.14C46.71 7.30 46.34 6.65 45.77 6.20C45.19 5.74 44.46 5.52 43.55 5.52C42.84 5.52 42.18 5.68 41.57 6.02C40.97 6.36 40.52 6.86 40.22 7.53C39.92 8.20 39.77 8.99 39.77 9.88C39.77 11.27 40.12 12.33 40.81 13.07C41.50 13.82 42.41 14.19 43.55 14.19C44.45 14.19 45.22 13.92 45.84 13.38C46.46 12.84 46.85 12.09 47 11.14ZM48.21 14L49.62 14L49.62 10.71L50.61 9.76L53.35 14L55.09 14L51.59 8.78L54.77 5.70L52.95 5.70L49.62 9.08L49.62 2.55L48.21 2.55ZM64.22 12.73C64.25 13.04 64.30 13.27 64.37 13.40C64.47 13.60 64.63 13.76 64.86 13.87C65.08 13.98 65.37 14.03 65.73 14.03C66.85 14.03 67.89 13.51 68.84 12.45C69.90 11.28 70.43 9.94 70.43 8.43C70.43 7.37 70.18 6.39 69.67 5.49C69.08 4.45 68.27 3.66 67.24 3.13C66.21 2.60 65.05 2.34 63.76 2.34C62.09 2.34 60.67 2.71 59.50 3.46C58.33 4.21 57.43 5.29 56.80 6.70C56.28 7.85 56.02 9.07 56.02 10.34C56.02 11.48 56.23 12.54 56.67 13.52C57.02 14.30 57.54 14.99 58.23 15.58C58.91 16.18 59.75 16.63 60.72 16.92C61.70 17.22 62.77 17.37 63.92 17.37C65.18 17.37 66.25 17.20 67.14 16.87C68.03 16.54 68.80 16.09 69.45 15.52C70.09 14.96 70.55 14.40 70.81 13.85L69.40 13.85C68.94 14.51 68.25 15.07 67.33 15.52C66.41 15.98 65.26 16.21 63.90 16.21C62.62 16.21 61.46 15.99 60.41 15.55C59.36 15.11 58.56 14.43 58.00 13.51C57.45 12.59 57.17 11.49 57.17 10.21C57.17 8.99 57.45 7.85 58.00 6.79C58.56 5.72 59.34 4.90 60.35 4.33C61.36 3.76 62.47 3.48 63.69 3.48C64.76 3.48 65.73 3.70 66.61 4.16C67.50 4.61 68.16 5.21 68.61 5.97C69.05 6.72 69.27 7.54 69.27 8.41C69.27 9.15 69.10 9.87 68.75 10.57C68.41 11.27 67.94 11.83 67.34 12.25C66.90 12.57 66.53 12.73 66.26 12.73C66.11 12.73 65.98 12.68 65.87 12.57C65.76 12.47 65.71 12.35 65.71 12.21C65.71 12.13 65.79 11.73 65.95 11L67.07 5.76L65.67 5.76L65.41 6.97C65.11 6.48 64.76 6.12 64.34 5.89C63.93 5.65 63.50 5.53 63.05 5.53C62.45 5.53 61.84 5.74 61.21 6.16C60.58 6.57 60.05 7.20 59.63 8.03C59.20 8.86 58.99 9.69 58.99 10.52C58.99 11.19 59.13 11.80 59.40 12.37C59.68 12.93 60.03 13.35 60.47 13.62C60.91 13.89 61.36 14.02 61.82 14.02C62.24 14.02 62.66 13.90 63.08 13.67C63.50 13.43 63.88 13.12 64.22 12.73ZM60.44 10.61C60.44 10.16 60.52 9.67 60.69 9.13C60.85 8.60 61.08 8.14 61.35 7.77C61.63 7.39 61.91 7.12 62.21 6.95C62.50 6.78 62.82 6.70 63.15 6.70C63.65 6.70 64.08 6.89 64.43 7.28C64.79 7.67 64.96 8.22 64.96 8.93C64.96 9.46 64.87 9.99 64.68 10.52C64.49 11.05 64.25 11.48 63.96 11.83C63.66 12.17 63.35 12.43 63.03 12.61C62.71 12.78 62.40 12.87 62.11 12.87C61.67 12.87 61.28 12.67 60.95 12.27C60.61 11.88 60.44 11.32 60.44 10.61ZM72.78 14L74.18 14L74.18 6.80L75.80 6.80L75.80 5.70L74.18 5.70L74.18 4.94C74.18 4.44 74.27 4.10 74.45 3.91C74.62 3.73 74.92 3.64 75.35 3.64C75.61 3.64 75.89 3.67 76.18 3.72L76.39 2.49C75.91 2.40 75.47 2.35 75.08 2.35C74.46 2.35 73.99 2.46 73.64 2.69C73.30 2.92 73.07 3.21 72.93 3.58C72.83 3.85 72.78 4.26 72.78 4.82L72.78 5.70L71.54 5.70L71.54 6.80L72.78 6.80ZM76.33 11.52C76.48 12.40 76.85 13.07 77.41 13.52C77.98 13.96 78.80 14.19 79.88 14.19C80.53 14.19 81.11 14.07 81.63 13.85C82.14 13.62 82.54 13.30 82.81 12.89C83.08 12.47 83.22 12.03 83.22 11.56C83.22 11.08 83.11 10.68 82.88 10.36C82.66 10.04 82.35 9.79 81.96 9.62C81.56 9.45 80.87 9.23 79.88 8.97C79.19 8.78 78.77 8.66 78.63 8.61C78.39 8.51 78.21 8.39 78.09 8.23C77.98 8.09 77.92 7.92 77.92 7.74C77.92 7.46 78.06 7.21 78.34 6.99C78.61 6.78 79.07 6.67 79.72 6.67C80.27 6.67 80.69 6.79 80.99 7.03C81.29 7.27 81.47 7.60 81.53 8.03L82.91 7.84C82.82 7.31 82.66 6.88 82.42 6.56C82.19 6.24 81.82 5.98 81.33 5.80C80.84 5.61 80.27 5.52 79.62 5.52C79.18 5.52 78.78 5.57 78.40 5.68C78.02 5.80 77.73 5.93 77.51 6.09C77.22 6.30 76.99 6.56 76.82 6.88C76.65 7.19 76.56 7.54 76.56 7.91C76.56 8.31 76.67 8.68 76.87 9.02C77.08 9.36 77.38 9.62 77.78 9.81C78.18 10.00 78.89 10.22 79.92 10.48C80.69 10.68 81.17 10.84 81.36 10.96C81.64 11.14 81.77 11.39 81.77 11.71C81.77 12.07 81.62 12.37 81.30 12.64C80.99 12.90 80.51 13.03 79.87 13.03C79.23 13.03 78.73 12.88 78.37 12.59C78.01 12.29 77.80 11.86 77.72 11.30ZM84.89 14L86.30 14L86.30 9.70C86.30 8.94 86.37 8.36 86.52 7.96C86.67 7.56 86.92 7.26 87.25 7.05C87.59 6.84 87.96 6.73 88.35 6.73C88.87 6.73 89.25 6.89 89.48 7.20C89.71 7.52 89.82 7.98 89.82 8.61L89.82 14L91.23 14L91.23 9.18C91.23 8.33 91.42 7.70 91.80 7.32C92.19 6.93 92.67 6.73 93.26 6.73C93.58 6.73 93.86 6.81 94.10 6.96C94.34 7.11 94.51 7.31 94.60 7.56C94.69 7.81 94.73 8.21 94.73 8.77L94.73 14L96.13 14L96.13 8.30C96.13 7.36 95.91 6.65 95.47 6.20C95.03 5.74 94.39 5.52 93.57 5.52C92.52 5.52 91.66 6 91.01 6.97C90.85 6.51 90.57 6.15 90.18 5.90C89.78 5.64 89.28 5.52 88.66 5.52C88.11 5.52 87.62 5.64 87.19 5.89C86.76 6.13 86.41 6.46 86.15 6.87L86.15 5.70L84.89 5.70ZM98.23 4.16L99.63 4.16L99.63 2.55L98.23 2.55ZM98.23 14L99.63 14L99.63 5.70L98.23 5.70ZM103.07 14L103.07 12.96C103.63 13.78 104.40 14.19 105.38 14.19C106.36 14.19 107.20 13.80 107.91 13.02C108.61 12.25 108.96 11.15 108.96 9.73C108.96 9.13 108.88 8.57 108.71 8.04C108.54 7.51 108.31 7.06 108.02 6.69C107.73 6.32 107.35 6.03 106.89 5.82C106.44 5.62 105.96 5.52 105.45 5.52C104.52 5.52 103.77 5.89 103.17 6.63L103.17 2.55L101.77 2.55L101.77 14ZM103.05 9.79C103.05 8.78 103.28 8.01 103.73 7.47C104.17 6.94 104.71 6.67 105.32 6.67C105.93 6.67 106.45 6.93 106.88 7.45C107.31 7.96 107.52 8.76 107.52 9.84C107.52 10.90 107.30 11.70 106.85 12.23C106.40 12.76 105.87 13.03 105.26 13.03C104.50 13.03 103.90 12.67 103.46 11.95C103.19 11.50 103.05 10.78 103.05 9.79ZM111.07 14L112.67 14L112.67 12.40L111.07 12.40ZM120.53 10.96C120.43 11.66 120.20 12.18 119.83 12.52C119.46 12.86 119.00 13.03 118.45 13.03C117.76 13.03 117.20 12.78 116.77 12.27C116.35 11.77 116.13 10.96 116.13 9.84C116.13 8.74 116.35 7.94 116.80 7.43C117.24 6.93 117.82 6.67 118.52 6.67C118.99 6.67 119.39 6.81 119.72 7.09C120.05 7.38 120.28 7.79 120.41 8.35L121.78 8.14C121.62 7.30 121.25 6.65 120.68 6.20C120.11 5.74 119.37 5.52 118.47 5.52C117.76 5.52 117.10 5.68 116.49 6.02C115.88 6.36 115.43 6.86 115.13 7.53C114.84 8.20 114.69 8.99 114.69 9.88C114.69 11.27 115.03 12.33 115.72 13.07C116.41 13.82 117.33 14.19 118.46 14.19C119.37 14.19 120.13 13.92 120.75 13.38C121.38 12.84 121.76 12.09 121.91 11.14ZM123.12 14L124.52 14L124.52 9.46C124.52 8.81 124.60 8.30 124.76 7.93C124.91 7.56 125.18 7.27 125.54 7.05C125.91 6.83 126.30 6.73 126.72 6.73C127.28 6.73 127.71 6.89 128.01 7.21C128.32 7.53 128.47 8.04 128.47 8.74L128.47 14L129.88 14L129.88 8.74C129.88 7.93 129.78 7.31 129.58 6.88C129.39 6.46 129.06 6.12 128.61 5.88C128.16 5.64 127.62 5.52 127.01 5.52C126.01 5.52 125.18 5.90 124.52 6.66L124.52 2.55L123.12 2.55Z"/></svg>
