<svg xmlns="http://www.w3.org/2000/svg" xmlns:xlink="http://www.w3.org/1999/xlink" width="212.8046875" height="17.875"><path d="M0.99 17.20C1.33 17.31 1.63 17.37 1.90 17.37C2.35 17.37 2.73 17.26 3.05 17.04C3.38 16.83 3.66 16.49 3.91 16.02C4.10 15.68 4.36 15.05 4.70 14.14L7.86 5.70L6.45 5.70L4.68 10.54C4.46 11.15 4.26 11.78 4.10 12.43C3.92 11.76 3.72 11.12 3.50 10.51L1.77 5.70L0.26 5.70L3.41 14.02C3.35 14.17 3.31 14.28 3.28 14.36C3.08 14.92 2.94 15.27 2.85 15.41C2.73 15.59 2.58 15.74 2.39 15.84C2.20 15.95 1.95 16 1.64 16C1.41 16 1.14 15.96 0.84 15.88ZM14.47 12.98C14.51 13.37 14.60 13.71 14.75 14L16.22 14C16.04 13.68 15.92 13.35 15.86 13.00C15.80 12.66 15.77 11.83 15.77 10.52L15.77 8.65C15.77 8.02 15.75 7.59 15.70 7.35C15.62 6.97 15.47 6.65 15.27 6.39C15.06 6.14 14.73 5.93 14.29 5.77C13.85 5.60 13.27 5.52 12.56 5.52C11.85 5.52 11.22 5.61 10.68 5.81C10.14 6.00 9.72 6.28 9.44 6.64C9.15 7.01 8.95 7.48 8.82 8.07L10.20 8.26C10.35 7.67 10.58 7.26 10.89 7.03C11.21 6.80 11.70 6.68 12.36 6.68C13.07 6.68 13.60 6.84 13.96 7.16C14.23 7.39 14.36 7.79 14.36 8.37C14.36 8.42 14.36 8.54 14.35 8.73C13.82 8.92 12.98 9.08 11.84 9.22C11.29 9.29 10.87 9.36 10.59 9.43C10.22 9.53 9.88 9.69 9.58 9.89C9.28 10.09 9.04 10.36 8.86 10.70C8.67 11.04 8.58 11.41 8.58 11.81C8.58 12.51 8.82 13.07 9.31 13.52C9.80 13.96 10.50 14.19 11.41 14.19C11.97 14.19 12.48 14.10 12.96 13.91C13.45 13.73 13.95 13.42 14.47 12.98ZM14.35 9.84L14.35 10.35C14.35 10.97 14.28 11.44 14.13 11.76C13.93 12.17 13.62 12.49 13.20 12.73C12.77 12.97 12.29 13.09 11.75 13.09C11.20 13.09 10.79 12.96 10.50 12.71C10.22 12.46 10.08 12.15 10.08 11.77C10.08 11.53 10.14 11.31 10.27 11.11C10.40 10.90 10.59 10.75 10.83 10.65C11.07 10.54 11.48 10.45 12.05 10.37C13.08 10.22 13.84 10.04 14.35 9.84ZM17.95 14L19.36 14L19.36 9.47C19.36 8.41 19.58 7.68 20.01 7.30C20.45 6.92 20.96 6.73 21.56 6.73C21.94 6.73 22.26 6.82 22.54 6.99C22.82 7.16 23.02 7.38 23.13 7.67C23.23 7.95 23.29 8.38 23.29 8.95L23.29 14L24.70 14L24.70 8.90C24.70 8.25 24.67 7.79 24.62 7.53C24.53 7.13 24.39 6.78 24.18 6.49C23.97 6.20 23.66 5.96 23.24 5.79C22.82 5.61 22.36 5.52 21.86 5.52C20.71 5.52 19.83 5.97 19.22 6.88L19.22 5.70L17.95 5.70ZM26.85 14L28.26 14L28.26 9.47C28.26 8.41 28.48 7.68 28.91 7.30C29.35 6.92 29.86 6.73 30.46 6.73C30.84 6.73 31.16 6.82 31.44 6.99C31.72 7.16 31.91 7.38 32.02 7.67C32.13 7.95 32.19 8.38 32.19 8.95L32.19 14L33.59 14L33.59 8.90C33.59 8.25 33.57 7.79 33.52 7.53C33.43 7.13 33.29 6.78 33.08 6.49C32.87 6.20 32.56 5.96 32.14 5.79C31.72 5.61 31.26 5.52 30.76 5.52C29.61 5.52 28.73 5.97 28.12 6.88L28.12 5.70L26.85 5.70ZM35.76 4.16L37.16 4.16L37.16 2.55L35.76 2.55ZM35.76 14L37.16 14L37.16 5.70L35.76 5.70ZM39.31 14L40.72 14L40.72 10.71L41.71 9.76L44.45 14L46.19 14L42.70 8.78L45.87 5.70L44.05 5.70L40.72 9.08L40.72 2.55L39.31 2.55ZM47.70 14L49.30 14L49.30 12.40L47.70 12.40ZM57.13 14L58.44 14L58.44 2.55L57.04 2.55L57.04 6.66C56.79 6.32 56.48 6.04 56.09 5.83C55.70 5.62 55.25 5.52 54.75 5.52C54.07 5.52 53.45 5.70 52.90 6.05C52.35 6.41 51.93 6.93 51.66 7.61C51.38 8.28 51.24 9.03 51.24 9.86C51.24 10.71 51.39 11.46 51.70 12.11C52.00 12.77 52.43 13.28 52.99 13.64C53.54 14.01 54.15 14.19 54.81 14.19C55.83 14.19 56.61 13.78 57.13 12.95ZM52.69 9.86C52.69 8.76 52.90 7.96 53.32 7.45C53.74 6.93 54.26 6.68 54.88 6.68C55.52 6.68 56.06 6.95 56.50 7.48C56.94 8.01 57.16 8.84 57.16 9.98C57.16 11.01 56.94 11.77 56.51 12.28C56.08 12.78 55.56 13.03 54.95 13.03C54.34 13.03 53.81 12.77 53.36 12.24C52.91 11.72 52.69 10.92 52.69 9.86ZM66.06 12.98C66.10 13.37 66.20 13.71 66.34 14L67.81 14C67.64 13.68 67.52 13.35 67.46 13.00C67.40 12.66 67.37 11.83 67.37 10.52L67.37 8.65C67.37 8.02 67.34 7.59 67.30 7.35C67.21 6.97 67.07 6.65 66.86 6.39C66.65 6.14 66.33 5.93 65.88 5.77C65.44 5.60 64.86 5.52 64.16 5.52C63.44 5.52 62.82 5.61 62.27 5.81C61.73 6.00 61.32 6.28 61.03 6.64C60.74 7.01 60.54 7.48 60.41 8.07L61.79 8.26C61.94 7.67 62.17 7.26 62.49 7.03C62.80 6.80 63.29 6.68 63.95 6.68C64.66 6.68 65.20 6.84 65.55 7.16C65.82 7.39 65.95 7.79 65.95 8.37C65.95 8.42 65.95 8.54 65.95 8.73C65.41 8.92 64.57 9.08 63.44 9.22C62.88 9.29 62.46 9.36 62.19 9.43C61.81 9.53 61.48 9.69 61.18 9.89C60.88 10.09 60.63 10.36 60.45 10.70C60.26 11.04 60.17 11.41 60.17 11.81C60.17 12.51 60.42 13.07 60.91 13.52C61.40 13.96 62.10 14.19 63.01 14.19C63.56 14.19 64.08 14.10 64.56 13.91C65.04 13.73 65.54 13.42 66.06 12.98ZM65.95 9.84L65.95 10.35C65.95 10.97 65.87 11.44 65.72 11.76C65.52 12.17 65.21 12.49 64.79 12.73C64.37 12.97 63.89 13.09 63.34 13.09C62.80 13.09 62.38 12.96 62.10 12.71C61.81 12.46 61.67 12.15 61.67 11.77C61.67 11.53 61.74 11.31 61.87 11.11C62.00 10.90 62.18 10.75 62.42 10.65C62.66 10.54 63.07 10.45 63.65 10.37C64.67 10.22 65.43 10.04 65.95 9.84ZM75.23 11.33C75.01 11.92 74.72 12.35 74.36 12.63C73.99 12.90 73.55 13.03 73.04 13.03C72.35 13.03 71.77 12.79 71.30 12.30C70.84 11.82 70.58 11.12 70.53 10.21L76.72 10.21C76.72 10.04 76.73 9.92 76.73 9.84C76.73 8.47 76.38 7.40 75.67 6.65C74.97 5.89 74.06 5.52 72.95 5.52C71.81 5.52 70.88 5.90 70.16 6.67C69.44 7.44 69.08 8.53 69.08 9.92C69.08 11.27 69.43 12.32 70.14 13.07C70.86 13.81 71.82 14.19 73.03 14.19C73.99 14.19 74.79 13.95 75.41 13.48C76.03 13.02 76.45 12.36 76.68 11.51ZM70.61 9.05C70.66 8.33 70.90 7.75 71.34 7.32C71.78 6.89 72.32 6.67 72.97 6.67C73.68 6.67 74.26 6.94 74.71 7.48C75.00 7.83 75.18 8.36 75.24 9.05ZM78.41 14L79.82 14L79.82 2.55L78.41 2.55ZM81.97 14L83.38 14L83.38 2.55L81.97 2.55ZM91.23 11.33C91.02 11.92 90.73 12.35 90.37 12.63C90.00 12.90 89.56 13.03 89.05 13.03C88.35 13.03 87.78 12.79 87.31 12.30C86.85 11.82 86.59 11.12 86.54 10.21L92.73 10.21C92.73 10.04 92.73 9.92 92.73 9.84C92.73 8.47 92.38 7.40 91.68 6.65C90.98 5.89 90.07 5.52 88.96 5.52C87.82 5.52 86.88 5.90 86.16 6.67C85.45 7.44 85.09 8.53 85.09 9.92C85.09 11.27 85.44 12.32 86.15 13.07C86.86 13.81 87.83 14.19 89.04 14.19C90.00 14.19 90.79 13.95 91.41 13.48C92.03 13.02 92.46 12.36 92.69 11.51ZM86.62 9.05C86.66 8.33 86.91 7.75 87.35 7.32C87.79 6.89 88.33 6.67 88.98 6.67C89.69 6.67 90.27 6.94 90.72 7.48C91.01 7.83 91.19 8.36 91.25 9.05ZM94.45 14L95.86 14L95.86 9.47C95.86 8.41 96.08 7.68 96.51 7.30C96.95 6.92 97.46 6.73 98.06 6.73C98.44 6.73 98.76 6.82 99.04 6.99C99.32 7.16 99.52 7.38 99.63 7.67C99.73 7.95 99.79 8.38 99.79 8.95L99.79 14L101.20 14L101.20 8.90C101.20 8.25 101.17 7.79 101.12 7.53C101.03 7.13 100.89 6.78 100.68 6.49C100.47 6.20 100.16 5.96 99.74 5.79C99.32 5.61 98.86 5.52 98.36 5.52C97.21 5.52 96.33 5.97 95.72 6.88L95.72 5.70L94.45 5.70ZM104.65 14L104.65 12.96C105.21 13.78 105.97 14.19 106.95 14.19C107.94 14.19 108.78 13.80 109.48 13.02C110.19 12.25 110.54 11.15 110.54 9.73C110.54 9.13 110.46 8.57 110.29 8.04C110.12 7.51 109.89 7.06 109.60 6.69C109.30 6.32 108.93 6.03 108.47 5.82C108.02 5.62 107.53 5.52 107.02 5.52C106.10 5.52 105.34 5.89 104.75 6.63L104.75 2.55L103.34 2.55L103.34 14ZM104.63 9.79C104.63 8.78 104.86 8.01 105.30 7.47C105.75 6.94 106.28 6.67 106.90 6.67C107.51 6.67 108.03 6.93 108.46 7.45C108.89 7.96 109.10 8.76 109.10 9.84C109.10 10.90 108.88 11.70 108.43 12.23C107.98 12.76 107.45 13.03 106.84 13.03C106.08 13.03 105.48 12.67 105.04 11.95C104.77 11.50 104.63 10.78 104.63 9.79ZM117.66 12.98C117.71 13.37 117.80 13.71 117.95 14L119.41 14C119.24 13.68 119.12 13.35 119.06 13.00C119.00 12.66 118.97 11.83 118.97 10.52L118.97 8.65C118.97 8.02 118.95 7.59 118.90 7.35C118.82 6.97 118.67 6.65 118.46 6.39C118.25 6.14 117.93 5.93 117.48 5.77C117.04 5.60 116.47 5.52 115.76 5.52C115.04 5.52 114.42 5.61 113.88 5.81C113.33 6.00 112.92 6.28 112.63 6.64C112.35 7.01 112.14 7.48 112.02 8.07L113.39 8.26C113.54 7.67 113.77 7.26 114.09 7.03C114.40 6.80 114.89 6.68 115.55 6.68C116.26 6.68 116.80 6.84 117.16 7.16C117.42 7.39 117.55 7.79 117.55 8.37C117.55 8.42 117.55 8.54 117.55 8.73C117.01 8.92 116.17 9.08 115.04 9.22C114.48 9.29 114.07 9.36 113.79 9.43C113.41 9.53 113.08 9.69 112.78 9.89C112.48 10.09 112.24 10.36 112.05 10.70C111.87 11.04 111.77 11.41 111.77 11.81C111.77 12.51 112.02 13.07 112.51 13.52C113.00 13.96 113.70 14.19 114.61 14.19C115.16 14.19 115.68 14.10 116.16 13.91C116.64 13.73 117.14 13.42 117.66 12.98ZM117.55 9.84L117.55 10.35C117.55 10.97 117.47 11.44 117.32 11.76C117.12 12.17 116.81 12.49 116.39 12.73C115.97 12.97 115.49 13.09 114.95 13.09C114.40 13.09 113.98 12.96 113.70 12.71C113.42 12.46 113.27 12.15 113.27 11.77C113.27 11.53 113.34 11.31 113.47 11.11C113.60 10.90 113.78 10.75 114.02 10.65C114.26 10.54 114.67 10.45 115.25 10.37C116.27 10.22 117.04 10.04 117.55 9.84ZM126.56 10.96C126.46 11.66 126.23 12.18 125.86 12.52C125.49 12.86 125.03 13.03 124.48 13.03C123.79 13.03 123.23 12.78 122.80 12.27C122.38 11.77 122.16 10.96 122.16 9.84C122.16 8.74 122.39 7.94 122.83 7.43C123.27 6.93 123.85 6.67 124.55 6.67C125.02 6.67 125.42 6.81 125.75 7.09C126.08 7.38 126.32 7.79 126.45 8.35L127.81 8.14C127.65 7.30 127.28 6.65 126.71 6.20C126.14 5.74 125.40 5.52 124.50 5.52C123.79 5.52 123.13 5.68 122.52 6.02C121.91 6.36 121.46 6.86 121.16 7.53C120.87 8.20 120.72 8.99 120.72 9.88C120.72 11.27 121.06 12.33 121.75 13.07C122.44 13.82 123.36 14.19 124.49 14.19C125.40 14.19 126.16 13.92 126.79 13.38C127.41 12.84 127.79 12.09 127.95 11.14ZM129.15 14L130.55 14L130.55 9.46C130.55 8.81 130.63 8.30 130.79 7.93C130.95 7.56 131.21 7.27 131.57 7.05C131.94 6.83 132.33 6.73 132.75 6.73C133.31 6.73 133.74 6.89 134.04 7.21C134.35 7.53 134.50 8.04 134.50 8.74L134.50 14L135.91 14L135.91 8.74C135.91 7.93 135.81 7.31 135.61 6.88C135.42 6.46 135.09 6.12 134.64 5.88C134.19 5.64 133.65 5.52 133.04 5.52C132.04 5.52 131.21 5.90 130.55 6.66L130.55 2.55L129.15 2.55ZM146.06 12.73C146.09 13.04 146.14 13.27 146.21 13.40C146.32 13.60 146.48 13.76 146.70 13.87C146.92 13.98 147.21 14.03 147.57 14.03C148.70 14.03 149.73 13.51 150.68 12.45C151.74 11.28 152.27 9.94 152.27 8.43C152.27 7.37 152.02 6.39 151.52 5.49C150.92 4.45 150.11 3.66 149.08 3.13C148.05 2.60 146.89 2.34 145.60 2.34C143.93 2.34 142.52 2.71 141.35 3.46C140.18 4.21 139.28 5.29 138.64 6.70C138.12 7.85 137.86 9.07 137.86 10.34C137.86 11.48 138.08 12.54 138.52 13.52C138.86 14.30 139.38 14.99 140.07 15.58C140.76 16.18 141.59 16.63 142.57 16.92C143.54 17.22 144.61 17.37 145.77 17.37C147.02 17.37 148.09 17.20 148.98 16.87C149.88 16.54 150.64 16.09 151.29 15.52C151.93 14.96 152.39 14.40 152.66 13.85L151.24 13.85C150.78 14.51 150.09 15.07 149.17 15.52C148.25 15.98 147.11 16.21 145.74 16.21C144.47 16.21 143.30 15.99 142.25 15.55C141.20 15.11 140.40 14.43 139.85 13.51C139.29 12.59 139.02 11.49 139.02 10.21C139.02 8.99 139.29 7.85 139.85 6.79C140.40 5.72 141.18 4.90 142.19 4.33C143.20 3.76 144.31 3.48 145.53 3.48C146.60 3.48 147.57 3.70 148.46 4.16C149.34 4.61 150.00 5.21 150.45 5.97C150.89 6.72 151.12 7.54 151.12 8.41C151.12 9.15 150.94 9.87 150.60 10.57C150.25 11.27 149.78 11.83 149.19 12.25C148.74 12.57 148.38 12.73 148.10 12.73C147.95 12.73 147.82 12.68 147.71 12.57C147.61 12.47 147.55 12.35 147.55 12.21C147.55 12.13 147.63 11.73 147.79 11L148.91 5.76L147.52 5.76L147.25 6.97C146.95 6.48 146.60 6.12 146.19 5.89C145.78 5.65 145.34 5.53 144.89 5.53C144.30 5.53 143.68 5.74 143.05 6.16C142.42 6.57 141.90 7.20 141.47 8.03C141.05 8.86 140.84 9.69 140.84 10.52C140.84 11.19 140.97 11.80 141.25 12.37C141.52 12.93 141.88 13.35 142.31 13.62C142.75 13.89 143.20 14.02 143.66 14.02C144.09 14.02 144.51 13.90 144.93 13.67C145.35 13.43 145.72 13.12 146.06 12.73ZM142.28 10.61C142.28 10.16 142.36 9.67 142.53 9.13C142.70 8.60 142.92 8.14 143.20 7.77C143.47 7.39 143.76 7.12 144.05 6.95C144.35 6.78 144.66 6.70 144.99 6.70C145.50 6.70 145.93 6.89 146.28 7.28C146.63 7.67 146.80 8.22 146.80 8.93C146.80 9.46 146.71 9.99 146.52 10.52C146.34 11.05 146.10 11.48 145.80 11.83C145.51 12.17 145.20 12.43 144.88 12.61C144.55 12.78 144.24 12.87 143.95 12.87C143.52 12.87 143.13 12.67 142.79 12.27C142.45 11.88 142.28 11.32 142.28 10.61ZM154.63 14L156.02 14L156.02 6.80L157.64 6.80L157.64 5.70L156.02 5.70L156.02 4.94C156.02 4.44 156.11 4.10 156.29 3.91C156.47 3.73 156.77 3.64 157.20 3.64C157.46 3.64 157.73 3.67 158.02 3.72L158.23 2.49C157.76 2.40 157.32 2.35 156.92 2.35C156.31 2.35 155.83 2.46 155.49 2.69C155.15 2.92 154.91 3.21 154.77 3.58C154.67 3.85 154.63 4.26 154.63 4.82L154.63 5.70L153.38 5.70L153.38 6.80L154.63 6.80ZM158.17 11.52C158.33 12.40 158.69 13.07 159.25 13.52C159.82 13.96 160.64 14.19 161.72 14.19C162.37 14.19 162.95 14.07 163.47 13.85C163.98 13.62 164.38 13.30 164.65 12.89C164.93 12.47 165.06 12.03 165.06 11.56C165.06 11.08 164.95 10.68 164.73 10.36C164.50 10.04 164.19 9.79 163.80 9.62C163.41 9.45 162.71 9.23 161.72 8.97C161.03 8.78 160.62 8.66 160.48 8.61C160.23 8.51 160.05 8.39 159.94 8.23C159.82 8.09 159.77 7.92 159.77 7.74C159.77 7.46 159.90 7.21 160.18 6.99C160.46 6.78 160.92 6.67 161.56 6.67C162.11 6.67 162.53 6.79 162.83 7.03C163.13 7.27 163.31 7.60 163.38 8.03L164.75 7.84C164.66 7.31 164.50 6.88 164.27 6.56C164.03 6.24 163.67 5.98 163.18 5.80C162.68 5.61 162.11 5.52 161.46 5.52C161.03 5.52 160.62 5.57 160.25 5.68C159.87 5.80 159.57 5.93 159.35 6.09C159.06 6.30 158.83 6.56 158.66 6.88C158.49 7.19 158.41 7.54 158.41 7.91C158.41 8.31 158.51 8.68 158.71 9.02C158.92 9.36 159.22 9.62 159.62 9.81C160.02 10.00 160.73 10.22 161.77 10.48C162.53 10.68 163.01 10.84 163.20 10.96C163.48 11.14 163.62 11.39 163.62 11.71C163.62 12.07 163.46 12.37 163.15 12.64C162.84 12.90 162.36 13.03 161.71 13.03C161.07 13.03 160.57 12.88 160.21 12.59C159.86 12.29 159.64 11.86 159.56 11.30ZM166.73 14L168.14 14L168.14 9.70C168.14 8.94 168.22 8.36 168.37 7.96C168.52 7.56 168.76 7.26 169.10 7.05C169.43 6.84 169.80 6.73 170.20 6.73C170.72 6.73 171.09 6.89 171.32 7.20C171.55 7.52 171.66 7.98 171.66 8.61L171.66 14L173.07 14L173.07 9.18C173.07 8.33 173.26 7.70 173.65 7.32C174.03 6.93 174.52 6.73 175.10 6.73C175.42 6.73 175.71 6.81 175.95 6.96C176.18 7.11 176.35 7.31 176.44 7.56C176.53 7.81 176.58 8.21 176.58 8.77L176.58 14L177.98 14L177.98 8.30C177.98 7.36 177.76 6.65 177.31 6.20C176.87 5.74 176.24 5.52 175.41 5.52C174.36 5.52 173.51 6 172.85 6.97C172.69 6.51 172.41 6.15 172.02 5.90C171.63 5.64 171.12 5.52 170.51 5.52C169.96 5.52 169.46 5.64 169.03 5.89C168.60 6.13 168.25 6.46 167.99 6.87L167.99 5.70L166.73 5.70ZM180.07 4.16L181.48 4.16L181.48 2.55L180.07 2.55ZM180.07 14L181.48 14L181.48 5.70L180.07 5.70ZM184.91 14L184.91 12.96C185.47 13.78 186.24 14.19 187.22 14.19C188.20 14.19 189.05 13.80 189.75 13.02C190.45 12.25 190.80 11.15 190.80 9.73C190.80 9.13 190.72 8.57 190.55 8.04C190.39 7.51 190.16 7.06 189.86 6.69C189.57 6.32 189.19 6.03 188.74 5.82C188.28 5.62 187.80 5.52 187.29 5.52C186.37 5.52 185.61 5.89 185.02 6.63L185.02 2.55L183.61 2.55L183.61 14ZM184.90 9.79C184.90 8.78 185.12 8.01 185.57 7.47C186.02 6.94 186.55 6.67 187.16 6.67C187.77 6.67 188.29 6.93 188.72 7.45C189.15 7.96 189.37 8.76 189.37 9.84C189.37 10.90 189.14 11.70 188.70 12.23C188.25 12.76 187.72 13.03 187.10 13.03C186.35 13.03 185.75 12.67 185.30 11.95C185.03 11.50 184.90 10.78 184.90 9.79ZM192.91 14L194.52 14L194.52 12.40L192.91 12.40ZM202.38 10.96C202.28 11.66 202.04 12.18 201.67 12.52C201.30 12.86 200.84 13.03 200.29 13.03C199.60 13.03 199.04 12.78 198.62 12.27C198.19 11.77 197.98 10.96 197.98 9.84C197.98 8.74 198.20 7.94 198.64 7.43C199.08 6.93 199.66 6.67 200.37 6.67C200.84 6.67 201.24 6.81 201.57 7.09C201.90 7.38 202.13 7.79 202.26 8.35L203.63 8.14C203.46 7.30 203.10 6.65 202.52 6.20C201.95 5.74 201.21 5.52 200.31 5.52C199.60 5.52 198.94 5.68 198.33 6.02C197.73 6.36 197.27 6.86 196.98 7.53C196.68 8.20 196.53 8.99 196.53 9.88C196.53 11.27 196.88 12.33 197.57 13.07C198.26 13.82 199.17 14.19 200.30 14.19C201.21 14.19 201.98 13.92 202.60 13.38C203.22 12.84 203.61 12.09 203.76 11.14ZM204.96 14L206.37 14L206.37 9.46C206.37 8.81 206.45 8.30 206.60 7.93C206.76 7.56 207.02 7.27 207.39 7.05C207.75 6.83 208.15 6.73 208.56 6.73C209.12 6.73 209.55 6.89 209.86 7.21C210.16 7.53 210.31 8.04 210.31 8.74L210.31 14L211.72 14L211.72 8.74C211.72 7.93 211.62 7.31 211.43 6.88C211.23 6.46 210.91 6.12 210.45 5.88C210 5.64 209.47 5.52 208.85 5.52C207.85 5.52 207.02 5.90 206.37 6.66L206.37 2.55L204.96 2.55Z"/></svg>
