<?xml version="1.0" encoding="UTF-8" standalone="no"?>
<!DOCTYPE svg PUBLIC "-//W3C//DTD SVG 1.1//EN" "http://www.w3.org/Graphics/SVG/1.1/DTD/svg11.dtd">
<svg width="100%" height="100%" viewBox="0 0 1334 209" version="1.1" xmlns="http://www.w3.org/2000/svg" xmlns:xlink="http://www.w3.org/1999/xlink" xml:space="preserve" xmlns:serif="http://www.serif.com/" style="fill-rule:evenodd;clip-rule:evenodd;stroke-miterlimit:1.41421;">
    <g transform="matrix(4.16667,0,0,4.16667,-521.479,1751.62)">
        <path d="M328.109,-388.421C328.109,-379.127 320.484,-371.76 311.276,-371.76C302.067,-371.76 294.443,-379.127 294.443,-388.421C294.443,-397.673 302.067,-405.169 311.276,-405.169C320.484,-405.169 328.109,-397.673 328.109,-388.421ZM297.263,-388.47C297.263,-380.752 303.529,-374.305 311.293,-374.305C319.056,-374.305 325.321,-380.752 325.321,-388.47C325.321,-396.234 319.146,-402.635 311.293,-402.635C303.437,-402.635 297.263,-396.234 297.263,-388.47Z" style="fill:rgb(35,31,32);fill-rule:nonzero;"/>
        <path d="M349.051,-377.894L358.913,-404.612L362.091,-404.612L348.985,-370.389L336.271,-404.612L339.385,-404.612L349.051,-377.894Z" style="fill:rgb(35,31,32);fill-rule:nonzero;"/>
        <path d="M374.763,-385.38C374.763,-382.982 374.825,-380.241 376.324,-378.185C377.738,-376.214 380.02,-374.668 383.425,-374.658C387.14,-374.646 389.006,-376.171 390.504,-377.971C392.218,-380.027 392.238,-382.854 392.238,-385.38L392.238,-404.612L394.948,-404.612L394.948,-384.396C394.948,-380.883 394.691,-378.1 392.121,-375.445C389.894,-373.045 386.681,-371.76 383.425,-371.76C380.384,-371.76 377.259,-372.917 375.075,-375.059C372.248,-377.757 371.905,-380.712 371.905,-384.396L371.905,-404.612L374.763,-404.612L374.763,-385.38Z" style="fill:rgb(35,31,32);fill-rule:nonzero;"/>
        <path d="M413.046,-406.002L425.824,-377.611L426.086,-377.024L438.812,-406.01L439.849,-406.005L444.016,-372.213L440.919,-372.213L438.093,-397.47L437.533,-396.245L426.32,-371.303L425.687,-371.302L413.921,-397.47L413.708,-395.902L410.794,-372.199L407.817,-372.187L412.216,-406.01L413.046,-406.002Z" style="fill:rgb(35,31,32);fill-rule:nonzero;"/>
        <path d="M240.617,-409.336C240.617,-409.336 240.562,-395.248 240.617,-387.919C240.725,-373.508 247.453,-373.719 251.118,-373.719L251.118,-372.197L227.334,-372.197L227.334,-373.719C233.804,-373.638 238.636,-377.555 238.679,-387.079C238.737,-400.293 238.679,-410.746 238.679,-410.746C238.679,-410.746 234.547,-414.532 233.229,-415.311C231.907,-416.091 230.289,-416.958 227.585,-416.958L227.585,-418.555L254.432,-418.555L281.824,-393.085C281.824,-393.085 281.824,-390.443 281.824,-403.658C281.824,-416.631 274.655,-417.15 271.011,-417.15L271.011,-418.555L294.558,-418.555L294.558,-417.062C290.894,-417.062 283.626,-416.271 283.626,-402.817C283.626,-395.489 283.626,-371.221 283.626,-371.221L281.824,-371.221L240.617,-409.336Z" style="fill:rgb(35,31,32);fill-rule:nonzero;"/>
        <path d="M283.925,-417.155L277.799,-417.155C279.481,-416.374 282.304,-413.731 282.364,-411.749C282.424,-413.31 282.604,-416.374 283.925,-417.155Z" style="fill:rgb(5,180,141);fill-rule:nonzero;"/>
        <path d="M283.925,-417.155L277.799,-417.155C279.481,-416.374 282.304,-413.731 282.364,-411.749C282.424,-413.31 282.604,-416.374 283.925,-417.155Z" style="fill:none;stroke:rgb(5,180,141);stroke-width:0.25px;"/>
        <path d="M240.94,-373.582L234.032,-373.582C235.361,-374.198 238.783,-377.71 238.837,-379.529C238.898,-377.967 239.095,-374.724 240.94,-373.582Z" style="fill:rgb(5,180,141);fill-rule:nonzero;"/>
        <path d="M240.94,-373.582L234.032,-373.582C235.361,-374.198 238.783,-377.71 238.837,-379.529C238.898,-377.967 239.095,-374.724 240.94,-373.582Z" style="fill:none;stroke:rgb(5,180,141);stroke-width:0.25px;"/>
        <path d="M234.041,-416.928L247.392,-416.928L281.824,-384.917L281.824,-373.503C281.824,-373.503 239.356,-412.804 238.335,-413.645C237.313,-414.486 234.522,-416.928 234.041,-416.928Z" style="fill:rgb(5,180,141);fill-rule:nonzero;"/>
        <path d="M234.041,-416.928L247.392,-416.928L281.824,-384.917L281.824,-373.503C281.824,-373.503 239.356,-412.804 238.335,-413.645C237.313,-414.486 234.522,-416.928 234.041,-416.928Z" style="fill:none;stroke:rgb(5,180,141);stroke-width:0.25px;"/>
        <path d="M141.171,-385.052C139.393,-379.515 141.806,-373.692 149.304,-373.692L150.71,-373.662L150.71,-372.198L125.158,-372.198L125.155,-373.512C131.104,-373.512 134.37,-378.414 138.472,-385.052L157.918,-419.772L159.84,-419.772C159.84,-419.772 179.423,-384.452 181.105,-381.448C182.786,-378.446 184.6,-373.512 192.649,-373.512L192.649,-372.198L156.117,-372.198L156.117,-373.662L158.559,-373.692C165.118,-373.638 164.726,-376.641 163.324,-379.466C162.921,-380.279 161.62,-382.254 160.044,-385.055L141.171,-385.052ZM159.151,-386.796C155.341,-393.568 150.349,-402.533 150.349,-402.533C150.349,-402.533 142.114,-387.464 141.76,-386.8L159.151,-386.796Z" style="fill:rgb(35,31,32);fill-rule:nonzero;"/>
        <path d="M131.107,-373.658L138.645,-373.658C138.285,-374.079 136.753,-376.031 137.084,-379.304C136.183,-377.893 132.369,-374.079 131.107,-373.658Z" style="fill:rgb(5,180,141);fill-rule:nonzero;"/>
        <path d="M131.107,-373.658L138.645,-373.658C138.285,-374.079 136.753,-376.031 137.084,-379.304C136.183,-377.893 132.369,-374.079 131.107,-373.658Z" style="fill:none;stroke:rgb(5,180,141);stroke-width:0.25px;"/>
        <path d="M163.444,-382.951L151.491,-404.274L156.596,-413.646L178.918,-373.658L164.442,-373.658C166.424,-374.74 166.946,-377.425 163.444,-382.951Z" style="fill:rgb(5,180,141);fill-rule:nonzero;"/>
        <path d="M163.444,-382.951L151.491,-404.274L156.596,-413.646L178.918,-373.658L164.442,-373.658C166.424,-374.74 166.946,-377.425 163.444,-382.951Z" style="fill:none;stroke:rgb(5,180,141);stroke-width:0.25px;"/>
        <path d="M198.031,-404.612L203.965,-404.612C208.805,-404.612 212.745,-403.969 216.557,-400.714C220.241,-397.545 221.912,-393.219 221.912,-388.421C221.912,-383.71 220.198,-379.555 216.643,-376.386C212.789,-372.959 208.933,-372.317 203.878,-372.187L198.031,-372.187L198.031,-404.612ZM203.846,-374.914C208.023,-374.914 211.519,-375.503 214.652,-378.455C217.467,-381.088 218.919,-384.674 218.919,-388.488C218.919,-392.393 217.421,-396.161 214.471,-398.75C211.338,-401.518 207.887,-402.063 203.846,-402.063L201.078,-402.063L201.078,-374.914L203.846,-374.914Z" style="fill:rgb(35,31,32);fill-rule:nonzero;"/>
    </g>
</svg>
