<?xml version="1.0" encoding="UTF-8" standalone="no"?>
<svg
   xmlns:dc="http://purl.org/dc/elements/1.1/"
   xmlns:cc="http://creativecommons.org/ns#"
   xmlns:rdf="http://www.w3.org/1999/02/22-rdf-syntax-ns#"
   xmlns:svg="http://www.w3.org/2000/svg"
   xmlns="http://www.w3.org/2000/svg"
   xmlns:sodipodi="http://sodipodi.sourceforge.net/DTD/sodipodi-0.dtd"
   xmlns:inkscape="http://www.inkscape.org/namespaces/inkscape"
   aria-hidden="true"
   data-prefix="fas"
   data-icon="info-circle"
   class="svg-inline--fa fa-info-circle fa-w-16"
   role="img"
   viewBox="0 0 512 512"
   version="1.1"
   id="svg1119"
   sodipodi:docname="info-circle-solid.svg"
   inkscape:version="0.92.3 (2405546, 2018-03-11)">
  <metadata
     id="metadata1125">
    <rdf:RDF>
      <cc:Work
         rdf:about="">
        <dc:format>image/svg+xml</dc:format>
        <dc:type
           rdf:resource="http://purl.org/dc/dcmitype/StillImage" />
      </cc:Work>
    </rdf:RDF>
  </metadata>
  <defs
     id="defs1123" />
  <sodipodi:namedview
     pagecolor="#ffffff"
     bordercolor="#666666"
     borderopacity="1"
     objecttolerance="10"
     gridtolerance="10"
     guidetolerance="10"
     inkscape:pageopacity="0"
     inkscape:pageshadow="2"
     inkscape:window-width="1920"
     inkscape:window-height="1016"
     id="namedview1121"
     showgrid="false"
     inkscape:zoom="0.4609375"
     inkscape:cx="256"
     inkscape:cy="256"
     inkscape:window-x="0"
     inkscape:window-y="27"
     inkscape:window-maximized="1"
     inkscape:current-layer="svg1119" />
  <path
     fill="currentColor"
     d="M256 8C119.043 8 8 119.083 8 256c0 136.997 111.043 248 248 248s248-111.003 248-248C504 119.083 392.957 8 256 8zm0 110c23.196 0 42 18.804 42 42s-18.804 42-42 42-42-18.804-42-42 18.804-42 42-42zm56 254c0 6.627-5.373 12-12 12h-88c-6.627 0-12-5.373-12-12v-24c0-6.627 5.373-12 12-12h12v-64h-12c-6.627 0-12-5.373-12-12v-24c0-6.627 5.373-12 12-12h64c6.627 0 12 5.373 12 12v100h12c6.627 0 12 5.373 12 12v24z"
     id="path1117" />
  <path
     style="fill:#555555;fill-opacity:1;stroke-width:2.16949153"
     d="M 224.10847,501.02856 C 117.57474,486.65277 30.95624,403.25016 12.441697,297.22034 c -3.6448916,-20.87372 -3.6448916,-61.56696 0,-82.44068 C 31.421744,106.08398 119.26694,23.561185 229.65387,10.728021 346.75365,-2.8855517 459.78542,72.821506 492.88327,187.03531 c 40.18045,138.65431 -45.78862,280.86422 -188.01482,311.01386 -19.63264,4.1618 -60.75501,5.67888 -80.75998,2.97939 z m 85.26102,-119.63195 c 1.62484,-1.62484 2.60339,-9.67958 2.60339,-21.42928 0,-21.34472 -1.22919,-23.40092 -15.10135,-25.26158 l -8.76306,-1.17537 v -51.62717 c 0,-44.04114 -0.50093,-52.12813 -3.4092,-55.03638 -2.83344,-2.83344 -9.67439,-3.4092 -40.50714,-3.4092 -45.7493,0 -45.03281,-0.38504 -45.03281,24.20065 0,20.04042 3.58204,25.69765 16.27119,25.69765 h 7.59322 v 30.08723 30.08722 l -9.14422,1.2265 c -5.05434,0.67792 -10.39119,2.93183 -11.9322,5.0393 -4.19921,5.74275 -3.73172,36.44168 0.62121,40.79462 2.90359,2.90358 10.88315,3.4092 53.8034,3.4092 36.30281,0 51.12215,-0.72797 52.99757,-2.60339 z M 275.09153,198.40263 c 20.17891,-10.34366 29.16293,-35.93612 19.76398,-56.30094 -17.37173,-37.63943 -71.55958,-31.14655 -80.73121,9.67336 -7.50968,33.42314 30.30595,62.34445 60.96723,46.62758 z"
     id="path1670"
     inkscape:connector-curvature="0" />
</svg>
