<?xml version="1.0" encoding="UTF-8"?>
<svg width="844px" height="193px" viewBox="0 0 844 193" version="1.1" xmlns="http://www.w3.org/2000/svg" xmlns:xlink="http://www.w3.org/1999/xlink">
    <!-- Generator: Sketch 52.6 (67491) - http://www.bohemiancoding.com/sketch -->
    <title>Combined Shape</title>
    <desc>Created with Sketch.</desc>
    <g id="Page-1" stroke="none" stroke-width="1" fill="none" fill-rule="evenodd">
        <path d="M449.619328,516.025286 L463.619328,516.025286 L463.619328,98.0957066 L464.868898,97.5898934 C467.117056,96.679862 468.619328,94.4922237 468.619328,92.0252862 L468.619328,56.0252862 C468.619328,53.5583487 467.117056,51.3707103 464.868898,50.4606789 L463.619328,49.9548658 L463.619328,-51.3570229 L465.58114,-51.3944881 C482.260529,-51.7130181 498.939924,-52.2128266 515.619328,-52.8939138 L515.619328,-79.9747138 L502.619328,-79.9747138 L502.619328,-292.969637 C475.56168,-312.992834 448.572073,-322.974714 421.619328,-322.974714 C394.659929,-322.974714 367.33529,-312.987893 339.619328,-292.955432 L339.619328,-79.9747138 L327.619328,-79.9747138 L327.619328,-52.8939138 C340.302198,-52.3760211 352.985063,-51.9629429 365.667924,-51.6546789 L367.619328,-51.6072489 L367.619328,49.9548658 L366.369758,50.4606789 C364.121599,51.3707103 362.619328,53.5583487 362.619328,56.0252862 L362.619328,92.0252862 C362.619328,94.4922237 364.121599,96.679862 366.369758,97.5898934 L367.619328,98.0957066 L367.619328,473.025286 L381.619328,473.025286 L381.619328,98.0957066 L382.868898,97.5898934 C385.117056,96.679862 386.619328,94.4922237 386.619328,92.0252862 L386.619328,56.0252862 C386.619328,53.5583487 385.117056,51.3707103 382.868898,50.4606789 L381.619328,49.9548658 L381.619328,-51.32134 L383.652309,-51.2878099 C396.307983,-51.0790792 408.963656,-50.9747138 421.619328,-50.9747138 C430.278471,-50.9747138 438.937615,-51.0235718 447.59676,-51.1212879 L449.619328,-51.144112 L449.619328,49.9548658 L448.369758,50.4606789 C446.121599,51.3707103 444.619328,53.5583487 444.619328,56.0252862 L444.619328,92.0252862 C444.619328,94.4922237 446.121599,96.679862 448.369758,97.5898934 L449.619328,98.0957066 L449.619328,516.025286 Z" id="Combined-Shape" fill="#fff" stroke="#000000" stroke-width="4" transform="translate(421.619328, 96.525286) rotate(89.928586) translate(-421.619328, -96.525286) "></path>
    </g>
</svg>