<?xml version="1.0" standalone="no"?><!-- Generator: Gravit.io --><svg xmlns="http://www.w3.org/2000/svg" xmlns:xlink="http://www.w3.org/1999/xlink" style="isolation:isolate" viewBox="0 0 283.465 113.386" width="283.465" height="113.386"><path d=" M 234.702184 98.214487 L 242.079239 98.214487 L 243.273211 102.244159 L 245.426655 102.244159 L 240.416202 85.485835 L 230.075493 102.244159 L 232.228937 102.244159 L 234.702184 98.214487 Z  M 239.712604 89.877993 L 241.546213 96.380878 L 235.832195 96.380878 L 239.712604 89.877993 Z  M 251.78031 94.547269 L 253.464656 93.715751 L 253.464656 93.715751 Q 253.208814 92.884232 252.569177 92.425838 L 252.569177 92.425838 L 252.569177 92.425838 Q 251.92954 91.967444 251.012752 91.967444 L 251.012752 91.967444 L 251.012752 91.967444 Q 249.797438 91.967444 248.806018 92.809633 L 248.806018 92.809633 L 248.806018 92.809633 Q 247.814599 93.65179 247.622717 94.867104 L 247.622717 94.867104 L 247.622717 94.867104 Q 247.580066 95.101636 247.580066 95.314827 L 247.580066 95.314827 L 247.580066 95.314827 Q 247.580066 96.039767 247.963829 96.476851 L 247.963829 96.476851 L 247.963829 96.476851 Q 248.347624 96.913904 249.136492 97.382969 L 249.136492 97.382969 L 250.863489 98.385059 L 250.863489 98.385059 Q 251.140673 98.598283 251.268594 98.790164 L 251.268594 98.790164 L 251.268594 98.790164 Q 251.396515 98.982045 251.396515 99.259229 L 251.396515 99.259229 L 251.396515 99.259229 Q 251.396515 99.280538 251.396515 99.365841 L 251.396515 99.365841 L 251.396515 99.365841 Q 251.396515 99.429801 251.396515 99.472452 L 251.396515 99.472452 L 251.396515 99.472452 Q 251.289936 100.090748 250.78889 100.485181 L 250.78889 100.485181 L 250.78889 100.485181 Q 250.287845 100.879615 249.648208 100.879615 L 249.648208 100.879615 L 249.648208 100.879615 Q 249.008571 100.879615 248.646117 100.549142 L 248.646117 100.549142 L 248.646117 100.549142 Q 248.283664 100.218669 248.049131 99.600373 L 248.049131 99.600373 L 246.279483 100.346589 L 246.279483 100.346589 Q 246.514015 101.370022 247.388185 101.977646 L 247.388185 101.977646 L 247.388185 101.977646 Q 248.262354 102.585303 249.392366 102.585303 L 249.392366 102.585303 L 249.392366 102.585303 Q 250.074622 102.585303 250.735568 102.340132 L 250.735568 102.340132 L 250.735568 102.340132 Q 251.396515 102.094929 251.950882 101.647173 L 251.950882 101.647173 L 251.950882 101.647173 Q 252.505217 101.19945 252.86767 100.591793 L 252.86767 100.591793 L 252.86767 100.591793 Q 253.230124 99.984136 253.336735 99.280538 L 253.336735 99.280538 L 253.336735 99.280538 Q 253.379386 99.024697 253.379386 98.811473 L 253.379386 98.811473 L 253.379386 98.811473 Q 253.379386 97.958646 252.86767 97.414949 L 252.86767 97.414949 L 252.86767 97.414949 Q 252.355987 96.871285 251.481817 96.444871 L 251.481817 96.444871 L 251.481817 96.444871 Q 251.481817 96.444871 251.098022 96.252957 L 251.098022 96.252957 L 251.098022 96.252957 Q 250.245194 95.847853 249.840089 95.54936 L 249.840089 95.54936 L 249.840089 95.54936 Q 249.434985 95.250867 249.434985 94.803144 L 249.434985 94.803144 L 249.434985 94.803144 Q 249.434985 94.803144 249.434985 94.739183 L 249.434985 94.739183 L 249.434985 94.739183 Q 249.434985 94.696532 249.434985 94.653881 L 249.434985 94.653881 L 249.434985 94.653881 Q 249.498945 94.248776 249.861431 93.960954 L 249.861431 93.960954 L 249.861431 93.960954 Q 250.223884 93.673132 250.650298 93.673132 L 250.650298 93.673132 L 250.650298 93.673132 Q 251.055403 93.673132 251.364534 93.918303 L 251.364534 93.918303 L 251.364534 93.918303 Q 251.673698 94.163506 251.78031 94.547269 L 251.78031 94.547269 Z  M 256.939993 102.244159 L 258.240577 94.056895 L 260.116837 94.056895 L 260.393988 92.265937 L 258.51776 92.265937 L 259.136056 88.449488 L 257.217177 88.449488 L 256.598849 92.265937 L 255.55414 92.265937 L 255.276956 94.056895 L 256.321698 94.056895 L 255.021114 102.244159 L 256.939993 102.244159 Z  M 263.229688 93.886323 L 263.485562 92.265937 L 261.566651 92.265937 L 259.988916 102.244159 L 261.907795 102.244159 L 262.675353 97.34035 L 262.675353 97.34035 Q 262.803274 96.615411 262.984517 96.018425 L 262.984517 96.018425 L 262.984517 96.018425 Q 263.165727 95.421439 263.485562 94.920394 L 263.485562 94.920394 L 263.485562 94.920394 Q 263.805365 94.419348 264.317081 94.110217 L 264.317081 94.110217 L 264.317081 94.110217 Q 264.828764 93.801053 265.575013 93.801053 L 265.575013 93.801053 L 265.575013 93.801053 Q 266.278611 93.801053 266.683715 94.206158 L 266.683715 94.206158 L 267.835036 92.457818 L 267.835036 92.457818 Q 267.131439 91.967444 266.321229 91.967444 L 266.321229 91.967444 L 266.321229 91.967444 Q 265.383132 91.967444 264.594232 92.47916 L 264.594232 92.47916 L 264.594232 92.47916 Q 263.805365 92.990844 263.293648 93.886323 L 263.293648 93.886323 L 263.229688 93.886323 Z  M 273.399824 91.967444 L 273.399824 91.967444 L 273.399824 91.967444 Q 272.312464 91.967444 271.267722 92.361877 L 271.267722 92.361877 L 271.267722 92.361877 Q 270.22298 92.756311 269.380823 93.491889 L 269.380823 93.491889 L 269.380823 93.491889 Q 268.538634 94.227467 267.973628 95.197577 L 267.973628 95.197577 L 267.973628 95.197577 Q 267.408622 96.167688 267.23805 97.27639 L 267.23805 97.27639 L 267.23805 97.27639 Q 267.17409 97.724113 267.17409 98.150527 L 267.17409 98.150527 L 267.17409 98.150527 Q 267.17409 99.109999 267.504563 99.920176 L 267.504563 99.920176 L 267.504563 99.920176 Q 267.835036 100.730385 268.442693 101.327371 L 268.442693 101.327371 L 268.442693 101.327371 Q 269.05035 101.924357 269.892507 102.25483 L 269.892507 102.25483 L 269.892507 102.25483 Q 270.734696 102.585303 271.736787 102.585303 L 271.736787 102.585303 L 271.736787 102.585303 Q 272.824147 102.585303 273.858218 102.180199 L 273.858218 102.180199 L 273.858218 102.180199 Q 274.892289 101.775127 275.745149 101.050187 L 275.745149 101.050187 L 275.745149 101.050187 Q 276.597977 100.32528 277.162983 99.35517 L 277.162983 99.35517 L 277.162983 99.35517 Q 277.727989 98.385059 277.898561 97.27639 L 277.898561 97.27639 L 277.898561 97.27639 Q 277.962521 96.828634 277.962521 96.40222 L 277.962521 96.40222 L 277.962521 96.40222 Q 277.962521 95.442781 277.632048 94.632571 L 277.632048 94.632571 L 277.632048 94.632571 Q 277.301575 93.822362 276.693918 93.225376 L 276.693918 93.225376 L 276.693918 93.225376 Q 276.086261 92.62839 275.244104 92.297917 L 275.244104 92.297917 L 275.244104 92.297917 Q 274.401915 91.967444 273.399824 91.967444 Z  M 273.12264 93.801053 L 273.12264 93.801053 L 273.12264 93.801053 Q 274.380605 93.801053 275.201453 94.643242 L 275.201453 94.643242 L 275.201453 94.643242 Q 276.022301 95.485399 276.022301 96.722022 L 276.022301 96.722022 L 276.022301 96.722022 Q 276.022301 96.999206 275.979682 97.27639 L 275.979682 97.27639 L 275.979682 97.27639 Q 275.87307 97.958646 275.510617 98.598283 L 275.510617 98.598283 L 275.510617 98.598283 Q 275.148131 99.23792 274.593796 99.717623 L 274.593796 99.717623 L 274.593796 99.717623 Q 274.039461 100.197359 273.378515 100.474543 L 273.378515 100.474543 L 273.378515 100.474543 Q 272.717536 100.751694 272.013971 100.751694 L 272.013971 100.751694 L 272.013971 100.751694 Q 270.756006 100.751694 269.935158 99.909537 L 269.935158 99.909537 L 269.935158 99.909537 Q 269.11431 99.067348 269.11431 97.809415 L 269.11431 97.809415 L 269.11431 97.809415 Q 269.11431 97.532232 269.156929 97.27639 L 269.156929 97.27639 L 269.156929 97.27639 Q 269.263541 96.572792 269.625994 95.943826 L 269.625994 95.943826 L 269.625994 95.943826 Q 269.988448 95.314827 270.542815 94.824453 L 270.542815 94.824453 L 270.542815 94.824453 Q 271.09715 94.334078 271.758096 94.067566 L 271.758096 94.067566 L 271.758096 94.067566 Q 272.419043 93.801053 273.12264 93.801053 Z  M 216.494013 94.44069 L 216.70722 94.312769 L 219.585571 98.662243 L 219.585571 98.662243 Q 218.434234 99.664334 217.485449 100.229339 L 217.485449 100.229339 L 217.485449 100.229339 Q 216.536665 100.794345 215.5559 100.794345 L 215.5559 100.794345 L 215.5559 100.794345 Q 214.511158 100.794345 213.754271 100.026787 L 213.754271 100.026787 L 213.754271 100.026787 Q 212.997367 99.259229 212.997367 98.214487 L 212.997367 98.214487 L 212.997367 98.214487 Q 212.997367 98.171869 213.018693 98.022606 L 213.018693 98.022606 L 213.018693 98.022606 Q 213.040018 97.915994 213.040018 97.830725 L 213.040018 97.830725 L 213.040018 97.830725 Q 213.189265 96.913904 213.999458 96.188997 L 213.999458 96.188997 L 213.999458 96.188997 Q 214.809651 95.46409 216.152886 94.653881 L 216.152886 94.653881 L 216.152886 94.653881 Q 216.238172 94.58992 216.494013 94.44069 L 216.494013 94.44069 Z  M 217.815923 91.6263 L 217.538739 91.796872 L 217.112325 91.114616 L 217.06969 91.050623 L 217.06969 91.050623 Q 216.771197 90.560249 216.600625 90.197795 L 216.600625 90.197795 L 216.600625 90.197795 Q 216.430053 89.835342 216.430053 89.430237 L 216.430053 89.430237 L 216.430053 89.430237 Q 216.430053 89.366277 216.451379 89.259665 L 216.451379 89.259665 L 216.451379 89.259665 Q 216.472688 89.153053 216.472688 89.110435 L 216.472688 89.110435 L 216.472688 89.110435 Q 216.579299 88.364186 217.186956 87.88445 L 217.186956 87.88445 L 217.186956 87.88445 Q 217.794597 87.404747 218.51952 87.404747 L 218.51952 87.404747 L 218.51952 87.404747 Q 219.265753 87.404747 219.713492 87.777871 L 219.713492 87.777871 L 219.713492 87.777871 Q 220.161232 88.150963 220.161232 88.811942 L 220.161232 88.811942 L 220.161232 88.811942 Q 220.161232 88.875902 220.139922 88.982514 L 220.139922 88.982514 L 220.139922 88.982514 Q 220.118581 89.110435 220.118581 89.153053 L 220.118581 89.153053 L 220.118581 89.153053 Q 220.012001 89.835342 219.532265 90.315078 L 219.532265 90.315078 L 219.532265 90.315078 Q 219.052546 90.794781 218.178376 91.370458 L 218.178376 91.370458 L 218.178376 91.370458 Q 217.965169 91.519688 217.815923 91.6263 L 217.815923 91.6263 Z  M 220.545027 100.069438 L 221.95219 102.244159 L 224.425436 102.244159 L 222.122762 98.683552 L 224.446745 96.380878 L 223.359385 95.058985 L 221.142013 97.233739 L 218.434234 93.182725 L 218.434234 93.182725 Q 219.96935 92.180667 220.886139 91.285156 L 220.886139 91.285156 L 220.886139 91.285156 Q 221.802959 90.389677 221.994841 89.174395 L 221.994841 89.174395 L 221.994841 89.174395 Q 222.037492 88.875902 222.037492 88.620028 L 222.037492 88.620028 L 222.037492 88.620028 Q 222.037492 87.319444 221.120671 86.573228 L 221.120671 86.573228 L 221.120671 86.573228 Q 220.203883 85.826979 218.818013 85.826979 L 218.818013 85.826979 L 218.818013 85.826979 Q 217.197611 85.826979 216.003639 86.77578 L 216.003639 86.77578 L 216.003639 86.77578 Q 214.809651 87.724549 214.553809 89.344967 L 214.553809 89.344967 L 214.553809 89.344967 Q 214.511158 89.600809 214.511158 89.877993 L 214.511158 89.877993 L 214.511158 89.877993 Q 214.511158 90.66686 214.852302 91.402438 L 214.852302 91.402438 L 214.852302 91.402438 Q 215.19343 92.138016 215.769107 92.862923 L 215.769107 92.862923 L 214.639095 93.58783 L 214.639095 93.58783 Q 213.103979 94.58992 212.24048 95.52805 L 212.24048 95.52805 L 212.24048 95.52805 Q 211.376965 96.466181 211.163758 97.852034 L 211.163758 97.852034 L 211.163758 97.852034 Q 211.099798 98.235829 211.099798 98.619592 L 211.099798 98.619592 L 211.099798 98.619592 Q 211.099798 100.367931 212.29377 101.476601 L 212.29377 101.476601 L 212.29377 101.476601 Q 213.487758 102.585303 215.342676 102.585303 L 215.342676 102.585303 L 215.342676 102.585303 Q 216.685911 102.585303 218.039784 101.903047 L 218.039784 101.903047 L 218.039784 101.903047 Q 219.393674 101.220759 220.545027 100.069438 L 220.545027 100.069438 Z  M 151.230367 102.244159 L 152.296418 95.506741 L 153.447755 95.506741 L 153.447755 95.506741 Q 154.641727 95.506741 155.686468 95.240228 L 155.686468 95.240228 L 155.686468 95.240228 Q 156.731194 94.973716 157.605364 94.40871 L 157.605364 94.40871 L 157.605364 94.40871 Q 158.479517 93.843704 159.055194 92.937554 L 159.055194 92.937554 L 159.055194 92.937554 Q 159.630854 92.031404 159.822735 90.81609 L 159.822735 90.81609 L 159.822735 90.81609 Q 159.908021 90.261756 159.908021 89.771381 L 159.908021 89.771381 L 159.908021 89.771381 Q 159.908021 87.959081 158.554148 87.063602 L 158.554148 87.063602 L 158.554148 87.063602 Q 157.200259 86.168123 154.066066 86.168123 L 154.066066 86.168123 L 151.763392 86.168123 L 149.226202 102.244159 L 151.230367 102.244159 Z  M 152.573601 93.715751 L 153.490406 87.959081 L 154.023431 87.959081 L 154.023431 87.959081 Q 154.812299 87.959081 155.494571 88.044384 L 155.494571 88.044384 L 155.494571 88.044384 Q 156.176843 88.129653 156.741849 88.364186 L 156.741849 88.364186 L 156.741849 88.364186 Q 157.306854 88.598719 157.647998 89.057113 L 157.647998 89.057113 L 157.647998 89.057113 Q 157.989143 89.515539 157.989143 90.240446 L 157.989143 90.240446 L 157.989143 90.240446 Q 157.989143 90.474979 157.946491 90.773472 L 157.946491 90.773472 L 157.946491 90.773472 Q 157.818571 91.69026 157.36016 92.276608 L 157.36016 92.276608 L 157.36016 92.276608 Q 156.901766 92.862923 156.251474 93.172087 L 156.251474 93.172087 L 156.251474 93.172087 Q 155.601182 93.481218 154.85495 93.598501 L 154.85495 93.598501 L 154.85495 93.598501 Q 154.108701 93.715751 153.213222 93.715751 L 153.213222 93.715751 L 152.573601 93.715751 Z  M 164.428084 83.737528 L 162.509189 83.737528 L 159.566894 102.244159 L 161.485789 102.244159 L 162.210696 97.660153 L 162.210696 97.660153 Q 162.359942 96.764674 162.509189 96.135707 L 162.509189 96.135707 L 162.509189 96.135707 Q 162.658435 95.506741 162.978254 94.931064 L 162.978254 94.931064 L 162.978254 94.931064 Q 163.298072 94.355388 163.873733 94.014244 L 163.873733 94.014244 L 163.873733 94.014244 Q 164.449409 93.673132 165.323563 93.673132 L 165.323563 93.673132 L 165.323563 93.673132 Q 166.346979 93.673132 166.762738 94.088875 L 166.762738 94.088875 L 166.762738 94.088875 Q 167.178497 94.504651 167.178497 95.336169 L 167.178497 95.336169 L 167.178497 95.336169 Q 167.178497 95.805234 167.050577 96.530141 L 167.050577 96.530141 L 166.155081 102.244159 L 168.073976 102.244159 L 169.012107 96.295608 L 169.012107 96.295608 Q 169.140028 95.52805 169.140028 94.909755 L 169.140028 94.909755 L 169.140028 94.909755 Q 169.140028 93.523869 168.447101 92.745673 L 168.447101 92.745673 L 168.447101 92.745673 Q 167.754158 91.967444 166.155081 91.967444 L 166.155081 91.967444 L 166.155081 91.967444 Q 165.238277 91.967444 164.342798 92.393858 L 164.342798 92.393858 L 164.342798 92.393858 Q 163.447319 92.820272 162.892968 93.609172 L 162.892968 93.609172 L 162.850333 93.609172 L 164.428084 83.737528 Z  M 170.696469 92.265937 L 173.958583 100.538503 L 168.86286 107.95821 L 171.037597 107.95821 L 181.591512 92.265937 L 179.438085 92.265937 L 175.301801 98.598283 L 172.935167 92.265937 L 170.696469 92.265937 Z  M 186.260805 94.547269 L 187.945167 93.715751 L 187.945167 93.715751 Q 187.689309 92.884232 187.049689 92.425838 L 187.049689 92.425838 L 187.049689 92.425838 Q 186.410051 91.967444 185.493247 91.967444 L 185.493247 91.967444 L 185.493247 91.967444 Q 184.277949 91.967444 183.28653 92.809633 L 183.28653 92.809633 L 183.28653 92.809633 Q 182.295094 93.65179 182.103212 94.867104 L 182.103212 94.867104 L 182.103212 94.867104 Q 182.060561 95.101636 182.060561 95.314827 L 182.060561 95.314827 L 182.060561 95.314827 Q 182.060561 96.039767 182.44434 96.476851 L 182.44434 96.476851 L 182.44434 96.476851 Q 182.828119 96.913904 183.617003 97.382969 L 183.617003 97.382969 L 185.344 98.385059 L 185.344 98.385059 Q 185.621184 98.598283 185.749105 98.790164 L 185.749105 98.790164 L 185.749105 98.790164 Q 185.877026 98.982045 185.877026 99.259229 L 185.877026 99.259229 L 185.877026 99.259229 Q 185.877026 99.280538 185.877026 99.365841 L 185.877026 99.365841 L 185.877026 99.365841 Q 185.877026 99.429801 185.877026 99.472452 L 185.877026 99.472452 L 185.877026 99.472452 Q 185.77043 100.090748 185.269385 100.485181 L 185.269385 100.485181 L 185.269385 100.485181 Q 184.76834 100.879615 184.128703 100.879615 L 184.128703 100.879615 L 184.128703 100.879615 Q 183.489082 100.879615 183.126612 100.549142 L 183.126612 100.549142 L 183.126612 100.549142 Q 182.764159 100.218669 182.529626 99.600373 L 182.529626 99.600373 L 180.759978 100.346589 L 180.759978 100.346589 Q 180.99451 101.370022 181.86868 101.977646 L 181.86868 101.977646 L 181.86868 101.977646 Q 182.742833 102.585303 183.872861 102.585303 L 183.872861 102.585303 L 183.872861 102.585303 Q 184.555133 102.585303 185.216079 102.340132 L 185.216079 102.340132 L 185.216079 102.340132 Q 185.877026 102.094929 186.431377 101.647173 L 186.431377 101.647173 L 186.431377 101.647173 Q 186.985728 101.19945 187.348181 100.591793 L 187.348181 100.591793 L 187.348181 100.591793 Q 187.710635 99.984136 187.817247 99.280538 L 187.817247 99.280538 L 187.817247 99.280538 Q 187.859881 99.024697 187.859881 98.811473 L 187.859881 98.811473 L 187.859881 98.811473 Q 187.859881 97.958646 187.348181 97.414949 L 187.348181 97.414949 L 187.348181 97.414949 Q 186.836482 96.871285 185.962312 96.444871 L 185.962312 96.444871 L 185.962312 96.444871 Q 185.962312 96.444871 185.578533 96.252957 L 185.578533 96.252957 L 185.578533 96.252957 Q 184.725689 95.847853 184.3206 95.54936 L 184.3206 95.54936 L 184.3206 95.54936 Q 183.915496 95.250867 183.915496 94.803144 L 183.915496 94.803144 L 183.915496 94.803144 Q 183.915496 94.803144 183.915496 94.739183 L 183.915496 94.739183 L 183.915496 94.739183 Q 183.915496 94.696532 183.915496 94.653881 L 183.915496 94.653881 L 183.915496 94.653881 Q 183.979456 94.248776 184.34191 93.960954 L 184.34191 93.960954 L 184.34191 93.960954 Q 184.704379 93.673132 185.130793 93.673132 L 185.130793 93.673132 L 185.130793 93.673132 Q 185.535898 93.673132 185.845046 93.918303 L 185.845046 93.918303 L 185.845046 93.918303 Q 186.15421 94.163506 186.260805 94.547269 L 186.260805 94.547269 Z  M 191.569751 102.244159 L 193.147502 92.265937 L 191.228607 92.265937 L 189.650856 102.244159 L 191.569751 102.244159 Z  M 193.126176 86.360005 L 193.126176 86.360005 L 193.126176 86.360005 Q 192.571825 86.360005 192.124086 86.754439 L 192.124086 86.754439 L 192.124086 86.754439 Q 191.676346 87.148905 191.59106 87.70324 L 191.59106 87.70324 L 191.59106 87.70324 Q 191.59106 87.745891 191.59106 87.809851 L 191.59106 87.809851 L 191.59106 87.809851 Q 191.569751 87.873812 191.569751 87.895121 L 191.569751 87.895121 L 191.569751 87.895121 Q 191.569751 88.385495 191.889553 88.694659 L 191.889553 88.694659 L 191.889553 88.694659 Q 192.209372 89.003823 192.699762 89.003823 L 192.699762 89.003823 L 192.699762 89.003823 Q 193.254097 89.003823 193.701853 88.620028 L 193.701853 88.620028 L 193.701853 88.620028 Q 194.149592 88.236265 194.234878 87.70324 L 194.234878 87.70324 L 194.234878 87.70324 Q 194.234878 87.660588 194.234878 87.596628 L 194.234878 87.596628 L 194.234878 87.596628 Q 194.256188 87.511358 194.256188 87.490016 L 194.256188 87.490016 L 194.256188 87.490016 Q 194.256188 86.999642 193.936369 86.67984 L 193.936369 86.67984 L 193.936369 86.67984 Q 193.616567 86.360005 193.126176 86.360005 Z  M 197.667548 96.018425 L 199.629094 83.737528 L 197.710199 83.737528 L 194.767904 102.244159 L 196.686783 102.244159 L 197.305094 98.36375 L 198.072653 97.702804 L 200.908352 102.244159 L 203.402908 102.244159 L 199.629094 96.40222 L 204.554245 92.265937 L 202.017038 92.265937 L 197.667548 96.018425 Z  M 153.46908 65.793756 L 159.247075 65.793756 L 159.524242 63.960147 L 151.742083 63.960147 L 149.204876 80.036183 L 151.209057 80.036183 L 152.46699 72.147411 L 158.053103 72.147411 L 158.33027 70.313802 L 152.744157 70.313802 L 153.46908 65.793756 Z  M 163.6392 78.671639 L 163.6392 78.671639 L 163.6392 78.671639 Q 162.381268 78.671639 161.688325 77.84012 L 161.688325 77.84012 L 161.688325 77.84012 Q 160.995398 77.008602 160.995398 75.771978 L 160.995398 75.771978 L 160.995398 75.771978 Q 160.995398 75.409525 161.059359 75.047072 L 161.059359 75.047072 L 161.059359 75.047072 Q 161.16597 74.343474 161.485789 73.693198 L 161.485789 73.693198 L 161.485789 73.693198 Q 161.805591 73.04289 162.295982 72.541845 L 162.295982 72.541845 L 162.295982 72.541845 Q 162.786372 72.0408 163.425993 71.752978 L 163.425993 71.752978 L 163.425993 71.752978 Q 164.06563 71.465156 164.790537 71.465156 L 164.790537 71.465156 L 164.790537 71.465156 Q 166.091121 71.465156 166.805373 72.264694 L 166.805373 72.264694 L 166.805373 72.264694 Q 167.519625 73.064232 167.519625 74.322165 L 167.519625 74.322165 L 167.519625 74.322165 Q 167.519625 74.684618 167.455665 75.047072 L 167.455665 75.047072 L 167.455665 75.047072 Q 167.221132 76.582188 166.187062 77.626929 L 166.187062 77.626929 L 166.187062 77.626929 Q 165.152991 78.671639 163.6392 78.671639 Z  M 168.479081 80.036183 L 170.056832 70.05796 L 168.137937 70.05796 L 167.882095 71.720997 L 167.839444 71.720997 L 167.839444 71.720997 Q 167.370379 70.804209 166.570841 70.281822 L 166.570841 70.281822 L 166.570841 70.281822 Q 165.771302 69.759467 164.683942 69.759467 L 164.683942 69.759467 L 164.683942 69.759467 Q 163.6392 69.759467 162.690415 70.185881 L 162.690415 70.185881 L 162.690415 70.185881 Q 161.741631 70.612295 161.006053 71.337235 L 161.006053 71.337235 L 161.006053 71.337235 Q 160.270491 72.062142 159.790755 73.01091 L 159.790755 73.01091 L 159.790755 73.01091 Q 159.311035 73.959711 159.161789 74.983111 L 159.161789 74.983111 L 159.161789 74.983111 Q 159.076503 75.516137 159.076503 76.049162 L 159.076503 76.049162 L 159.076503 76.049162 Q 159.076503 77.925422 160.110574 79.151375 L 160.110574 79.151375 L 160.110574 79.151375 Q 161.144645 80.377327 163.084865 80.377327 L 163.084865 80.377327 L 163.084865 80.377327 Q 164.108265 80.377327 165.067721 79.865643 L 165.067721 79.865643 L 165.067721 79.865643 Q 166.02716 79.353927 166.773393 78.479757 L 166.773393 78.479757 L 166.816044 78.479757 L 166.560186 80.036183 L 168.479081 80.036183 Z  M 179.438085 72.89366 L 179.821864 70.420414 L 179.821864 70.420414 Q 179.331473 70.100612 178.659872 69.930039 L 178.659872 69.930039 L 178.659872 69.930039 Q 177.988255 69.759467 177.284657 69.759467 L 177.284657 69.759467 L 177.284657 69.759467 Q 176.154645 69.759467 175.088594 70.164572 L 175.088594 70.164572 L 175.088594 70.164572 Q 174.022543 70.569677 173.169699 71.294584 L 173.169699 71.294584 L 173.169699 71.294584 Q 172.316855 72.01949 171.741195 73.000272 L 171.741195 73.000272 L 171.741195 73.000272 Q 171.165518 73.98102 170.973637 75.132374 L 170.973637 75.132374 L 170.973637 75.132374 Q 170.909676 75.580097 170.909676 75.963892 L 170.909676 75.963892 L 170.909676 75.963892 Q 170.909676 76.923332 171.250804 77.733541 L 171.250804 77.733541 L 171.250804 77.733541 Q 171.591948 78.543718 172.21026 79.130065 L 172.21026 79.130065 L 172.21026 79.130065 Q 172.828571 79.71638 173.670745 80.046854 L 173.670745 80.046854 L 173.670745 80.046854 Q 174.512934 80.377327 175.515008 80.377327 L 175.515008 80.377327 L 175.515008 80.377327 Q 177.028799 80.377327 178.350708 79.71638 L 178.350708 79.71638 L 178.755813 77.264476 L 178.755813 77.264476 Q 177.348617 78.586369 175.813501 78.586369 L 175.813501 78.586369 L 175.813501 78.586369 Q 174.470283 78.586369 173.670745 77.786831 L 173.670745 77.786831 L 173.670745 77.786831 Q 172.871206 76.987292 172.871206 75.708018 L 172.871206 75.708018 L 172.871206 75.708018 Q 172.871206 75.366906 172.913857 75.047072 L 172.913857 75.047072 L 172.913857 75.047072 Q 173.020453 74.364816 173.372252 73.73585 L 173.372252 73.73585 L 173.372252 73.73585 Q 173.72405 73.106851 174.257076 72.616476 L 174.257076 72.616476 L 174.257076 72.616476 Q 174.790101 72.126102 175.451048 71.83828 L 175.451048 71.83828 L 175.451048 71.83828 Q 176.112011 71.550425 176.794283 71.550425 L 176.794283 71.550425 L 176.794283 71.550425 Q 178.478629 71.550425 179.438085 72.89366 L 179.438085 72.89366 Z  M 185.237405 61.529552 L 183.31851 61.529552 L 180.376215 80.036183 L 182.295094 80.036183 L 183.020017 75.452176 L 183.020017 75.452176 Q 183.169263 74.556697 183.31851 73.927731 L 183.31851 73.927731 L 183.31851 73.927731 Q 183.467756 73.298765 183.787575 72.723088 L 183.787575 72.723088 L 183.787575 72.723088 Q 184.107393 72.147411 184.683054 71.8063 L 184.683054 71.8063 L 184.683054 71.8063 Q 185.258714 71.465156 186.132884 71.465156 L 186.132884 71.465156 L 186.132884 71.465156 Q 187.156284 71.465156 187.572059 71.880899 L 187.572059 71.880899 L 187.572059 71.880899 Q 187.987819 72.296674 187.987819 73.128193 L 187.987819 73.128193 L 187.987819 73.128193 Q 187.987819 73.597258 187.859881 74.322165 L 187.859881 74.322165 L 186.964402 80.036183 L 188.883298 80.036183 L 189.821411 74.087632 L 189.821411 74.087632 Q 189.949349 73.320074 189.949349 72.701779 L 189.949349 72.701779 L 189.949349 72.701779 Q 189.949349 71.315893 189.256406 70.537696 L 189.256406 70.537696 L 189.256406 70.537696 Q 188.563479 69.759467 186.964402 69.759467 L 186.964402 69.759467 L 186.964402 69.759467 Q 186.047598 69.759467 185.152119 70.185881 L 185.152119 70.185881 L 185.152119 70.185881 Q 184.25664 70.612295 183.702289 71.401195 L 183.702289 71.401195 L 183.659638 71.401195 L 185.237405 61.529552 Z  M 196.750743 72.339325 L 198.435106 71.507774 L 198.435106 71.507774 Q 198.179264 70.676256 197.539627 70.217862 L 197.539627 70.217862 L 197.539627 70.217862 Q 196.900006 69.759467 195.983202 69.759467 L 195.983202 69.759467 L 195.983202 69.759467 Q 194.767904 69.759467 193.776468 70.601657 L 193.776468 70.601657 L 193.776468 70.601657 Q 192.785048 71.443814 192.593151 72.659128 L 192.593151 72.659128 L 192.593151 72.659128 Q 192.550516 72.89366 192.550516 73.106851 L 192.550516 73.106851 L 192.550516 73.106851 Q 192.550516 73.83179 192.934295 74.268875 L 192.934295 74.268875 L 192.934295 74.268875 Q 193.318074 74.705927 194.106941 75.174992 L 194.106941 75.174992 L 195.833955 76.177083 L 195.833955 76.177083 Q 196.111122 76.390306 196.239043 76.582188 L 196.239043 76.582188 L 196.239043 76.582188 Q 196.366981 76.774069 196.366981 77.051253 L 196.366981 77.051253 L 196.366981 77.051253 Q 196.366981 77.072562 196.366981 77.157864 L 196.366981 77.157864 L 196.366981 77.157864 Q 196.366981 77.221825 196.366981 77.264476 L 196.366981 77.264476 L 196.366981 77.264476 Q 196.260369 77.882771 195.759324 78.277205 L 195.759324 78.277205 L 195.759324 78.277205 Q 195.258278 78.671639 194.618641 78.671639 L 194.618641 78.671639 L 194.618641 78.671639 Q 193.97902 78.671639 193.616567 78.341165 L 193.616567 78.341165 L 193.616567 78.341165 Q 193.254097 78.010692 193.019565 77.392397 L 193.019565 77.392397 L 191.249932 78.138613 L 191.249932 78.138613 Q 191.484465 79.162046 192.358618 79.76967 L 192.358618 79.76967 L 192.358618 79.76967 Q 193.232788 80.377327 194.362799 80.377327 L 194.362799 80.377327 L 194.362799 80.377327 Q 195.045071 80.377327 195.706018 80.132156 L 195.706018 80.132156 L 195.706018 80.132156 Q 196.366981 79.886952 196.921315 79.439197 L 196.921315 79.439197 L 196.921315 79.439197 Q 197.475667 78.991473 197.83812 78.383817 L 197.83812 78.383817 L 197.83812 78.383817 Q 198.200573 77.77616 198.307185 77.072562 L 198.307185 77.072562 L 198.307185 77.072562 Q 198.34982 76.81672 198.34982 76.60353 L 198.34982 76.60353 L 198.34982 76.60353 Q 198.34982 75.750669 197.83812 75.206973 L 197.83812 75.206973 L 197.83812 75.206973 Q 197.32642 74.663309 196.45225 74.236895 L 196.45225 74.236895 L 196.45225 74.236895 Q 196.45225 74.236895 196.068471 74.044981 L 196.068471 74.044981 L 196.068471 74.044981 Q 195.215643 73.639876 194.810539 73.341383 L 194.810539 73.341383 L 194.810539 73.341383 Q 194.405434 73.04289 194.405434 72.595167 L 194.405434 72.595167 L 194.405434 72.595167 Q 194.405434 72.595167 194.405434 72.531207 L 194.405434 72.531207 L 194.405434 72.531207 Q 194.405434 72.488556 194.405434 72.445904 L 194.405434 72.445904 L 194.405434 72.445904 Q 194.469395 72.0408 194.831864 71.752978 L 194.831864 71.752978 L 194.831864 71.752978 Q 195.194318 71.465156 195.620732 71.465156 L 195.620732 71.465156 L 195.620732 71.465156 Q 196.025836 71.465156 196.334984 71.710327 L 196.334984 71.710327 L 196.334984 71.710327 Q 196.644148 71.95553 196.750743 72.339325 L 196.750743 72.339325 Z  M 208.178812 72.89366 L 208.562591 70.420414 L 208.562591 70.420414 Q 208.072217 70.100612 207.400599 69.930039 L 207.400599 69.930039 L 207.400599 69.930039 Q 206.728982 69.759467 206.025401 69.759467 L 206.025401 69.759467 L 206.025401 69.759467 Q 204.895389 69.759467 203.829338 70.164572 L 203.829338 70.164572 L 203.829338 70.164572 Q 202.763287 70.569677 201.910443 71.294584 L 201.910443 71.294584 L 201.910443 71.294584 Q 201.057599 72.01949 200.481922 73.000272 L 200.481922 73.000272 L 200.481922 73.000272 Q 199.906262 73.98102 199.71438 75.132374 L 199.71438 75.132374 L 199.71438 75.132374 Q 199.650404 75.580097 199.650404 75.963892 L 199.650404 75.963892 L 199.650404 75.963892 Q 199.650404 76.923332 199.991548 77.733541 L 199.991548 77.733541 L 199.991548 77.733541 Q 200.332676 78.543718 200.950987 79.130065 L 200.950987 79.130065 L 200.950987 79.130065 Q 201.569299 79.71638 202.411488 80.046854 L 202.411488 80.046854 L 202.411488 80.046854 Q 203.253661 80.377327 204.255752 80.377327 L 204.255752 80.377327 L 204.255752 80.377327 Q 205.769542 80.377327 207.091452 79.71638 L 207.091452 79.71638 L 207.49654 77.264476 L 207.49654 77.264476 Q 206.089361 78.586369 204.554245 78.586369 L 204.554245 78.586369 L 204.554245 78.586369 Q 203.211026 78.586369 202.411488 77.786831 L 202.411488 77.786831 L 202.411488 77.786831 Q 201.61195 76.987292 201.61195 75.708018 L 201.61195 75.708018 L 201.61195 75.708018 Q 201.61195 75.366906 201.654585 75.047072 L 201.654585 75.047072 L 201.654585 75.047072 Q 201.761196 74.364816 202.112995 73.73585 L 202.112995 73.73585 L 202.112995 73.73585 Q 202.464778 73.106851 202.997803 72.616476 L 202.997803 72.616476 L 202.997803 72.616476 Q 203.530829 72.126102 204.191791 71.83828 L 204.191791 71.83828 L 204.191791 71.83828 Q 204.852738 71.550425 205.53501 71.550425 L 205.53501 71.550425 L 205.53501 71.550425 Q 207.219373 71.550425 208.178812 72.89366 L 208.178812 72.89366 Z  M 213.978132 61.529552 L 212.059237 61.529552 L 209.116942 80.036183 L 211.035837 80.036183 L 211.760744 75.452176 L 211.760744 75.452176 Q 211.909991 74.556697 212.059237 73.927731 L 212.059237 73.927731 L 212.059237 73.927731 Q 212.208484 73.298765 212.528302 72.723088 L 212.528302 72.723088 L 212.528302 72.723088 Q 212.848121 72.147411 213.423797 71.8063 L 213.423797 71.8063 L 213.423797 71.8063 Q 213.999458 71.465156 214.873611 71.465156 L 214.873611 71.465156 L 214.873611 71.465156 Q 215.897027 71.465156 216.312787 71.880899 L 216.312787 71.880899 L 216.312787 71.880899 Q 216.728546 72.296674 216.728546 73.128193 L 216.728546 73.128193 L 216.728546 73.128193 Q 216.728546 73.597258 216.600625 74.322165 L 216.600625 74.322165 L 215.705146 80.036183 L 217.624025 80.036183 L 218.562155 74.087632 L 218.562155 74.087632 Q 218.690076 73.320074 218.690076 72.701779 L 218.690076 72.701779 L 218.690076 72.701779 Q 218.690076 71.315893 217.997149 70.537696 L 217.997149 70.537696 L 217.997149 70.537696 Q 217.304223 69.759467 215.705146 69.759467 L 215.705146 69.759467 L 215.705146 69.759467 Q 214.788342 69.759467 213.892846 70.185881 L 213.892846 70.185881 L 213.892846 70.185881 Q 212.997367 70.612295 212.443016 71.401195 L 212.443016 71.401195 L 212.400381 71.401195 L 213.978132 61.529552 Z  M 224.787889 78.671639 L 224.787889 78.671639 L 224.787889 78.671639 Q 223.529957 78.671639 222.83703 77.84012 L 222.83703 77.84012 L 222.83703 77.84012 Q 222.144104 77.008602 222.144104 75.771978 L 222.144104 75.771978 L 222.144104 75.771978 Q 222.144104 75.409525 222.208064 75.047072 L 222.208064 75.047072 L 222.208064 75.047072 Q 222.314643 74.343474 222.634478 73.693198 L 222.634478 73.693198 L 222.634478 73.693198 Q 222.95428 73.04289 223.444655 72.541845 L 223.444655 72.541845 L 223.444655 72.541845 Q 223.935062 72.0408 224.574699 71.752978 L 224.574699 71.752978 L 224.574699 71.752978 Q 225.214303 71.465156 225.939243 71.465156 L 225.939243 71.465156 L 225.939243 71.465156 Q 227.239826 71.465156 227.954062 72.264694 L 227.954062 72.264694 L 227.954062 72.264694 Q 228.668331 73.064232 228.668331 74.322165 L 228.668331 74.322165 L 228.668331 74.322165 Q 228.668331 74.684618 228.60437 75.047072 L 228.60437 75.047072 L 228.60437 75.047072 Q 228.369838 76.582188 227.335767 77.626929 L 227.335767 77.626929 L 227.335767 77.626929 Q 226.301696 78.671639 224.787889 78.671639 Z  M 229.62777 80.036183 L 231.205538 70.05796 L 229.286626 70.05796 L 229.030784 71.720997 L 228.988133 71.720997 L 228.988133 71.720997 Q 228.519068 70.804209 227.71953 70.281822 L 227.71953 70.281822 L 227.71953 70.281822 Q 226.919991 69.759467 225.832631 69.759467 L 225.832631 69.759467 L 225.832631 69.759467 Q 224.787889 69.759467 223.839121 70.185881 L 223.839121 70.185881 L 223.839121 70.185881 Q 222.89032 70.612295 222.154742 71.337235 L 222.154742 71.337235 L 222.154742 71.337235 Q 221.419164 72.062142 220.939461 73.01091 L 220.939461 73.01091 L 220.939461 73.01091 Q 220.459725 73.959711 220.310494 74.983111 L 220.310494 74.983111 L 220.310494 74.983111 Q 220.225192 75.516137 220.225192 76.049162 L 220.225192 76.049162 L 220.225192 76.049162 Q 220.225192 77.925422 221.259263 79.151375 L 221.259263 79.151375 L 221.259263 79.151375 Q 222.293334 80.377327 224.233555 80.377327 L 224.233555 80.377327 L 224.233555 80.377327 Q 225.256954 80.377327 226.216394 79.865643 L 226.216394 79.865643 L 226.216394 79.865643 Q 227.175833 79.353927 227.922082 78.479757 L 227.922082 78.479757 L 227.964733 78.479757 L 227.708859 80.036183 L 229.62777 80.036183 Z  M 239.691295 63.469773 L 240.011097 61.529552 L 240.011097 61.529552 Q 239.392802 61.27371 238.689204 61.27371 L 238.689204 61.27371 L 238.689204 61.27371 Q 236.962207 61.27371 236.056057 62.339761 L 236.056057 62.339761 L 236.056057 62.339761 Q 235.149907 63.405812 234.851414 65.19677 L 234.851414 65.19677 L 234.083856 70.05796 L 233.209686 70.05796 L 232.932535 71.848918 L 233.806672 71.848918 L 232.506089 80.036183 L 234.425 80.036183 L 235.725584 71.848918 L 238.369369 71.848918 L 238.646553 70.05796 L 236.002767 70.05796 L 236.685023 65.772447 L 236.685023 65.772447 Q 236.770293 65.260731 236.866266 64.834317 L 236.866266 64.834317 L 236.866266 64.834317 Q 236.962207 64.407903 237.154088 64.002798 L 237.154088 64.002798 L 237.154088 64.002798 Q 237.34597 63.597694 237.676443 63.331181 L 237.676443 63.331181 L 237.676443 63.331181 Q 238.006916 63.064668 238.475981 63.064668 L 238.475981 63.064668 L 238.475981 63.064668 Q 238.731855 63.064668 238.998368 63.160609 L 238.998368 63.160609 L 238.998368 63.160609 Q 239.264881 63.256549 239.605993 63.427122 L 239.605993 63.427122 L 239.691295 63.469773 Z  M 240.181669 80.036183 L 241.482253 71.848918 L 243.358513 71.848918 L 243.635664 70.05796 L 241.759436 70.05796 L 242.377732 66.241512 L 240.458853 66.241512 L 239.840525 70.05796 L 238.795816 70.05796 L 238.518632 71.848918 L 239.563374 71.848918 L 238.26279 80.036183 L 240.181669 80.036183 Z " fill-rule="evenodd" fill="rgb(0,0,0)"/><path d=" M 159.459706 17.285102 L 175.004764 17.285102 L 175.750451 12.351991 L 154.813416 12.351991 L 147.98735 55.60277 L 153.379371 55.60277 L 156.763717 34.378914 L 171.792496 34.378914 L 172.538205 29.445798 L 157.509426 29.445798 L 159.459706 17.285102 Z  M 180.626215 55.60277 L 183.494304 37.47645 L 186.591845 37.47645 L 186.591845 37.47645 Q 189.80409 37.47645 192.614827 36.759428 L 192.614827 36.759428 L 192.614827 36.759428 Q 195.425542 36.042405 197.777374 34.522316 L 197.777374 34.522316 L 197.777374 34.522316 Q 200.129206 33.002233 201.677976 30.564356 L 201.677976 30.564356 L 201.677976 30.564356 Q 203.226747 28.12648 203.743004 24.85686 L 203.743004 24.85686 L 203.743004 24.85686 Q 203.972456 23.365453 203.972456 22.046129 L 203.972456 22.046129 L 203.972456 22.046129 Q 203.972456 17.170381 200.329971 14.761186 L 200.329971 14.761186 L 200.329971 14.761186 Q 196.687508 12.351991 188.25532 12.351991 L 188.25532 12.351991 L 182.060259 12.351991 L 175.234194 55.60277 L 180.626215 55.60277 Z  M 184.240013 32.65806 L 186.706549 17.170381 L 188.140594 17.170381 L 188.140594 17.170381 Q 190.262995 17.170381 192.09857 17.399828 L 192.09857 17.399828 L 192.09857 17.399828 Q 193.934145 17.629275 195.454229 18.260253 L 195.454229 18.260253 L 195.454229 18.260253 Q 196.974312 18.891236 197.8921 20.124509 L 197.8921 20.124509 L 197.8921 20.124509 Q 198.809887 21.357788 198.809887 23.30809 L 198.809887 23.30809 L 198.809887 23.30809 Q 198.809887 23.939073 198.695161 24.742134 L 198.695161 24.742134 L 198.695161 24.742134 Q 198.351005 27.208692 197.117726 28.786139 L 197.117726 28.786139 L 197.117726 28.786139 Q 195.884447 30.363591 194.134911 31.195334 L 194.134911 31.195334 L 194.134911 31.195334 Q 192.385375 32.027082 190.377721 32.342568 L 190.377721 32.342568 L 190.377721 32.342568 Q 188.370046 32.65806 185.960862 32.65806 L 185.960862 32.65806 L 184.240013 32.65806 Z  M 211.486857 44.761392 L 231.334026 44.761392 L 234.546271 55.60277 L 240.339823 55.60277 L 226.859814 10.516416 L 199.03934 55.60277 L 204.832891 55.60277 L 211.486857 44.761392 Z  M 224.966865 22.332939 L 229.899982 39.828282 L 214.527024 39.828282 L 224.966865 22.332939 Z " fill-rule="evenodd" fill="rgb(0,0,0)"/><rect x="200.904" y="39.698" width="24.006" height="5.231" transform="matrix(1,0,0,1,0,0)" fill="rgb(255,255,255)"/><rect x="177.414" y="17.173" width="9.521" height="5.333" transform="matrix(1,0,0,1,0,0)" fill="rgb(255,255,255)"/><rect x="149.118" y="34.384" width="10.188" height="4.922" transform="matrix(1,0,0,1,0,0)" fill="rgb(255,255,255)"/><path d=" M 59.980319 81.468011 C 25.401505 61.503924 3.555166 34.509668 11.225417 21.224404 C 18.895667 7.93914 53.196548 13.361497 87.775362 33.325585 C 122.354176 53.289672 144.200515 80.283928 136.530265 93.569192 C 128.860014 106.854456 94.559133 101.432098 59.980319 81.468011 Z " fill="none" vector-effect="non-scaling-stroke" stroke-width="1.066051" stroke="rgb(0,0,0)" stroke-linejoin="miter" stroke-linecap="square" stroke-miterlimit="3"/><path d=" M 64.054342 56.754118 C 64.054342 54.172534 66.15026 52.076615 68.731845 52.076615 C 71.313429 52.076615 73.409348 54.172534 73.409348 56.754118 C 73.409348 59.335702 71.313429 61.431621 68.731845 61.431621 C 66.15026 61.431621 64.054342 59.335702 64.054342 56.754118 Z " fill="rgb(255,255,255)" vector-effect="non-scaling-stroke" stroke-width="1.066051" stroke="rgb(0,0,0)" stroke-linejoin="miter" stroke-linecap="square" stroke-miterlimit="3"/><path d=" M 69.327498 62.072486 C 69.327498 59.490901 71.423417 57.394983 74.005001 57.394983 C 76.586585 57.394983 78.682504 59.490901 78.682504 62.072486 C 78.682504 64.65407 76.586585 66.749989 74.005001 66.749989 C 71.423417 66.749989 69.327498 64.65407 69.327498 62.072486 Z " fill="rgb(255,255,255)" vector-effect="non-scaling-stroke" stroke-width="1.066051" stroke="rgb(0,0,0)" stroke-linejoin="miter" stroke-linecap="square" stroke-miterlimit="3"/><path d=" M 64.054342 53.193089 C 64.054342 50.611505 66.15026 48.515586 68.731845 48.515586 C 71.313429 48.515586 73.409348 50.611505 73.409348 53.193089 C 73.409348 55.774674 71.313429 57.870593 68.731845 57.870593 C 66.15026 57.870593 64.054342 55.774674 64.054342 53.193089 Z " fill="rgb(255,255,255)" vector-effect="non-scaling-stroke" stroke-width="1.066051" stroke="rgb(0,0,0)" stroke-linejoin="miter" stroke-linecap="square" stroke-miterlimit="3"/><path d=" M 36.689148 71.100479 C 36.689148 67.083328 39.950564 63.821912 43.967715 63.821912 C 47.984865 63.821912 51.246281 67.083328 51.246281 71.100479 C 51.246281 75.117629 47.984865 78.379045 43.967715 78.379045 C 39.950564 78.379045 36.689148 75.117629 36.689148 71.100479 Z " fill="rgb(0,0,0)" vector-effect="non-scaling-stroke" stroke-width="2.132102" stroke="rgb(255,255,255)" stroke-linejoin="miter" stroke-linecap="square" stroke-miterlimit="3"/><path d=" M 72.714269 53.956891 C 72.714269 51.375307 74.810188 49.279388 77.391772 49.279388 C 79.973357 49.279388 82.069275 51.375307 82.069275 53.956891 C 82.069275 56.538475 79.973357 58.634394 77.391772 58.634394 C 74.810188 58.634394 72.714269 56.538475 72.714269 53.956891 Z " fill="rgb(255,255,255)" vector-effect="non-scaling-stroke" stroke-width="1.066051" stroke="rgb(0,0,0)" stroke-linejoin="miter" stroke-linecap="square" stroke-miterlimit="3"/><path d=" M 71.424079 59.489279 C 71.424079 56.907694 73.519998 54.811776 76.101582 54.811776 C 78.683167 54.811776 80.779085 56.907694 80.779085 59.489279 C 80.779085 62.070863 78.683167 64.166782 76.101582 64.166782 C 73.519998 64.166782 71.424079 62.070863 71.424079 59.489279 Z " fill="rgb(255,255,255)" vector-effect="non-scaling-stroke" stroke-width="1.066051" stroke="rgb(0,0,0)" stroke-linejoin="miter" stroke-linecap="square" stroke-miterlimit="3"/><path d=" M 69.327498 53.193089 C 69.327498 50.611505 71.423417 48.515586 74.005001 48.515586 C 76.586585 48.515586 78.682504 50.611505 78.682504 53.193089 C 78.682504 55.774674 76.586585 57.870593 74.005001 57.870593 C 71.423417 57.870593 69.327498 55.774674 69.327498 53.193089 Z " fill="rgb(255,255,255)" vector-effect="non-scaling-stroke" stroke-width="1.066051" stroke="rgb(0,0,0)" stroke-linejoin="miter" stroke-linecap="square" stroke-miterlimit="3"/></svg>